<svg xmlns="http://www.w3.org/2000/svg" width="332" height="48" viewBox="0 0 332 48">
  <g fill="none" fill-rule="evenodd">
    <path fill="#2A2A2A" fill-rule="nonzero" d="M1.463 9.055c-.16866751 0-.30433282-.0513328-.407-.154-.10266718-.1026672-.154-.2419991-.154-.418V1.795c0-.16866751.0494995-.3024995.1485-.4015.09900049-.09900049.23649912-.1485.4125-.1485h2.651c.82133744 0 1.45933106.20166465 1.914.605.45466894.40333535.682.97532963.682 1.716 0 .733337-.22733106 1.30533128-.682 1.716-.45466894.41066872-1.09266256.616-1.914.616H2.035v2.585c0 .1760009-.04949951.3153328-.1485.418-.0990005.1026672-.24016575.154-.4235.154zm2.53-4.07c1.08533876 0 1.628-.47299527 1.628-1.419 0-.93867136-.54266124-1.408-1.628-1.408H2.035v2.827h1.958zM10.197 3.5c.7113369 0 1.2411649.17966487 1.5895.539.3483351.35933513.5225.905663.5225 1.639v2.849c0 .1686675-.0476662.2988329-.143.3905s-.2273325.1375-.396.1375c-.1613341 0-.2896662-.0476662-.385-.143-.0953338-.0953338-.143-.2236659-.143-.385V8.12c-.139334.3080015-.3464986.5444992-.6215.7095-.2750014.1650008-.5958315.2475-.9625.2475-.35200176 0-.6746652-.0714993-.968-.2145-.2933348-.1430007-.52249918-.3428321-.6875-.5995-.16500083-.2566679-.2475-.5426651-.2475-.858 0-.3886686.10083232-.6948322.3025-.9185.20166767-.2236678.535331-.3831662 1.001-.4785.46566899-.09533381 1.1054959-.143 1.9195-.143h.253v-.319c0-.41066872-.0843325-.70766575-.253-.891-.1686675-.18333425-.4399981-.275-.814-.275-.25666795 0-.49866553.03299967-.726.099-.22733447.06600033-.47666531.16133271-.748.286-.19800099.11000055-.33733293.165-.418.165-.11000055 0-.19983299-.04033293-.2695-.121-.06966702-.08066707-.1045-.18333271-.1045-.308 0-.11000055.03116635-.20716625.0935-.2915.06233364-.08433375.16316597-.16683293.3025-.2475.25666795-.13933403.55733161-.25116625.902-.3355.34466839-.08433375.67833172-.1265 1.001-.1265zm-.341 4.752c.4033353 0 .733332-.1374986.99-.4125.2566679-.2750014.385-.6288312.385-1.0615v-.286h-.198c-.5720029 0-1.0119985.0256664-1.32.077-.30800154.0513336-.52799934.1374994-.66.2585-.13200066.1210006-.198.2951655-.198.5225 0 .2640013.09533238.4803325.286.649.19066762.1686675.42899857.253.715.253zm4.532.803c-.1613341 0-.2951661-.0439996-.4015-.132-.1063339-.0880004-.1595-.2199991-.1595-.396V4.061c0-.17600088.0531661-.30983287.1595-.4015.1063339-.09166712.2401659-.1375.4015-.1375.1613341 0 .2933328.04583288.396.1375.1026672.09166713.154.22549912.154.4015v4.466c0 .1760009-.0513328.3079996-.154.396-.1026672.0880004-.2346659.132-.396.132zm0-6.611c-.2126677 0-.3813327-.05866608-.506-.176-.1246673-.11733392-.187-.27133238-.187-.462 0-.19066762.0623327-.34283276.187-.4565.1246673-.11366724.2933323-.1705.506-.1705.2053344 0 .372166.05683276.5005.1705.128334.11366724.1925.26583238.1925.4565 0 .19066762-.0623327.34466608-.187.462-.1246673.11733392-.2933323.176-.506.176zm6.303 5.203c.1026672 0 .1869997.0403329.253.121.0660003.0806671.099.1833327.099.308 0 .2126677-.1319987.3923326-.396.539-.256668.1466674-.5371651.2603329-.8415.341-.3043349.0806671-.5958319.121-.8745.121-.8506709 0-1.5216642-.2474975-2.013-.7425-.4913358-.4950025-.737-1.1714957-.737-2.0295 0-.55000275.1081656-1.03766454.3245-1.463.2163344-.42533546.5206647-.75533216.913-.99.3923353-.23466784.8378308-.352 1.3365-.352.7186703 0 1.2869979.23099769 1.705.693.4180021.46200231.627 1.08532941.627 1.87 0 .2933348-.1319987.44-.396.44h-3.399c.0733337 1.1366724.6196616 1.705 1.639 1.705.2713347 0 .505999-.0366663.704-.11.198001-.0733337.4069989-.1686661.627-.286.0220001-.0146667.0824995-.0458331.1815-.0935.0990005-.0476669.1814997-.0715.2475-.0715zm-1.914-3.333c-.4253355 0-.7663321.13566531-1.023.407-.2566679.27133469-.4106664.65266421-.462 1.144h2.838c-.0220001-.49866916-.1484988-.88183199-.3795-1.1495-.2310012-.26766801-.5554979-.4015-.9735-.4015zm9.691-.814c1.2026727 0 1.804.72232611 1.804 2.167v2.86c0 .1686675-.0513328.2988329-.154.3905s-.2383325.1375-.407.1375c-.1613341 0-.2933328-.0458329-.396-.1375-.1026672-.0916671-.154-.2218325-.154-.3905V5.678c0-.44733557-.0806659-.77183233-.242-.9735-.1613341-.20166768-.4143316-.3025-.759-.3025-.4033353 0-.7223322.13749863-.957.4125-.2346678.27500138-.352.65083095-.352 1.1275v2.585c0 .1686675-.0513328.2988329-.154.3905s-.2383325.1375-.407.1375c-.1613341 0-.2933328-.0458329-.396-.1375-.1026672-.0916671-.154-.2218325-.154-.3905V5.678c0-.44733557-.0806659-.77183233-.242-.9735-.1613341-.20166768-.4143316-.3025-.759-.3025-.4033353 0-.7241655.13749863-.9625.4125-.2383345.27500138-.3575.65083095-.3575 1.1275v2.585c0 .1686675-.0513328.2988329-.154.3905s-.2346659.1375-.396.1375-.2951661-.0458329-.4015-.1375c-.1063339-.0916671-.1595-.2218325-.1595-.3905V4.05c0-.16133414.0549995-.28966619.165-.385.1100006-.09533381.2419992-.143.396-.143.1540008 0 .2804995.04583288.3795.1375.0990005.09166713.1485.21816586.1485.3795v.407c.1613341-.30800154.3849986-.54266586.671-.704.2860014-.16133414.6159981-.242.99-.242.4106687 0 .749832.08433249 1.0175.253.267668.16866751.4674993.42899824.5995.781.1613341-.31533491.3996651-.56649906.715-.7535.3153349-.18700094.6746647-.2805 1.078-.2805zm7.524 4.147c.1026672 0 .1869997.0403329.253.121.0660003.0806671.099.1833327.099.308 0 .2126677-.1319987.3923326-.396.539-.256668.1466674-.5371651.2603329-.8415.341-.3043349.0806671-.5958319.121-.8745.121-.8506709 0-1.5216642-.2474975-2.013-.7425-.4913358-.4950025-.737-1.1714957-.737-2.0295 0-.55000275.1081656-1.03766454.3245-1.463.2163344-.42533546.5206647-.75533216.913-.99.3923353-.23466784.8378308-.352 1.3365-.352.7186703 0 1.2869979.23099769 1.705.693.4180021.46200231.627 1.08532941.627 1.87 0 .2933348-.1319987.44-.396.44h-3.399c.0733337 1.1366724.6196616 1.705 1.639 1.705.2713347 0 .505999-.0366663.704-.11.198001-.0733337.4069989-.1686661.627-.286.0220001-.0146667.0824995-.0458331.1815-.0935.0990005-.0476669.1814997-.0715.2475-.0715zm-1.914-3.333c-.4253355 0-.766332.13566531-1.023.407-.256668.27133469-.4106664.65266421-.462 1.144h2.838c-.0220001-.49866916-.1484988-.88183199-.3795-1.1495-.2310012-.26766801-.5554979-.4015-.9735-.4015zm6.424-.814c1.2833397 0 1.925.72232611 1.925 2.167v2.86c0 .1686675-.0494995.2988329-.1485.3905-.0990005.0916671-.2364991.1375-.4125.1375-.1686675 0-.3024995-.0476662-.4015-.143-.0990005-.0953338-.1485-.2236659-.1485-.385V5.722c0-.45466894-.0898324-.78833227-.2695-1.001-.1796676-.21266773-.4601648-.319-.8415-.319-.4473356 0-.8066653.13933194-1.078.418-.2713347.27866806-.407.65266432-.407 1.122v2.585c0 .1613341-.0494995.2896662-.1485.385-.0990005.0953338-.2328325.143-.4015.143-.1686675 0-.3043328-.0476662-.407-.143-.1026672-.0953338-.154-.2236659-.154-.385V4.05c0-.15400077.0531661-.28049951.1595-.3795.1063339-.09900049.2401659-.1485.4015-.1485.1613341 0 .2896662.04766619.385.143.0953338.09533381.143.21999923.143.374v.451c.1760009-.32266828.4216651-.56833249.737-.737.3153349-.16866751.670998-.253 1.067-.253zm6.072 4.708c.1613341.0146667.276833.056833.3465.1265.069667.069667.1045.1668327.1045.2915 0 .1466674-.0568328.2584996-.1705.3355-.1136672.0770004-.2804989.1081667-.5005.0935l-.297-.022c-.594003-.0440002-1.0376652-.2254984-1.331-.5445s-.44-.7901636-.44-1.4135V4.49h-.66c-.3226683 0-.484-.14299857-.484-.429 0-.13200066.0421662-.23649961.1265-.3135.0843338-.07700038.2034992-.1155.3575-.1155h.66V2.499c0-.16866751.0494995-.30066619.1485-.396.0990005-.09533381.2328325-.143.4015-.143.1686675 0 .3043328.04766619.407.143.1026672.09533381.154.22733249.154.396v1.133h1.089c.1540008 0 .2731662.03849962.3575.1155.0843338.07700039.1265.18149934.1265.3135 0 .13933403-.0421662.2456663-.1265.319s-.2034992.11-.3575.11h-1.089v2.662c0 .3446684.0714993.5976659.2145.759.1430007.1613341.3611652.2529999.6545.275l.308.022zm3.124.869c-.7480037 0-1.360331-.1539985-1.837-.462-.1320007-.0806671-.2254997-.1649996-.2805-.253-.0550003-.0880004-.0825-.1869994-.0825-.297 0-.1173339.0329997-.2163329.099-.297.0660003-.0806671.1503328-.121.253-.121.0953338 0 .2456656.0586661.451.176.2200011.1173339.434499.2126663.6435.286.209001.0733337.4711651.11.7865.11.3520018 0 .626999-.0623327.825-.187.198001-.1246673.297-.3006655.297-.528 0-.1466674-.0384996-.2639996-.1155-.352-.0770004-.0880004-.2108324-.166833-.4015-.2365-.1906676-.069667-.4729981-.1448329-.847-.2255-.6453366-.139334-1.1091653-.3281655-1.3915-.5665-.2823347-.23833452-.4235-.56283128-.4235-.9735 0-.31533491.0916657-.59949874.275-.8525.1833342-.25300127.4363317-.44916597.759-.5885s.6893313-.209 1.1-.209c.2933348 0 .5793319.03849961.858.1155.2786681.07700038.5243323.1888326.737.3355.2420012.16133414.363.34833227.363.561 0 .11733392-.034833.21633293-.1045.297-.069667.08066707-.1521662.121-.2475.121-.0660003 0-.1319997-.01466652-.198-.044-.0660003-.02933348-.1539995-.07699967-.264-.143-.198001-.11733392-.3831658-.20899967-.5555-.275-.1723342-.06600033-.3868321-.099-.6435-.099-.3080015 0-.5554991.06599934-.7425.198-.1870009.13200066-.2805.31166553-.2805.539 0 .20533436.0861658.36483277.2585.4785.1723342.11366723.4968309.22183282.9735.3245.4913358.1026672.8763319.2199993 1.155.352.2786681.1320007.4784994.2951657.5995.4895.1210006.1943343.1815.4418318.1815.7425 0 .4766691-.1998313.8598319-.5995 1.1495-.3996687.2896681-.9331633.4345-1.6005.4345zm8.206 0c-.7480037 0-1.360331-.1539985-1.837-.462-.1320007-.0806671-.2254997-.1649996-.2805-.253-.0550003-.0880004-.0825-.1869994-.0825-.297 0-.1173339.0329997-.2163329.099-.297.0660003-.0806671.1503328-.121.253-.121.0953338 0 .2456656.0586661.451.176.2200011.1173339.434499.2126663.6435.286.209001.0733337.4711651.11.7865.11.3520018 0 .626999-.0623327.825-.187.198001-.1246673.297-.3006655.297-.528 0-.1466674-.0384996-.2639996-.1155-.352-.0770004-.0880004-.2108324-.166833-.4015-.2365-.1906676-.069667-.4729981-.1448329-.847-.2255-.6453366-.139334-1.1091653-.3281655-1.3915-.5665-.2823347-.23833452-.4235-.56283128-.4235-.9735 0-.31533491.0916657-.59949874.275-.8525.1833342-.25300127.4363317-.44916597.759-.5885s.6893313-.209 1.1-.209c.2933348 0 .5793319.03849961.858.1155.2786681.07700038.5243323.1888326.737.3355.2420012.16133414.363.34833227.363.561 0 .11733392-.034833.21633293-.1045.297-.069667.08066707-.1521662.121-.2475.121-.0660003 0-.1319997-.01466652-.198-.044-.0660003-.02933348-.1539995-.07699967-.264-.143-.198001-.11733392-.3831658-.20899967-.5555-.275-.1723342-.06600033-.3868321-.099-.6435-.099-.3080015 0-.5554991.06599934-.7425.198-.1870009.13200066-.2805.31166553-.2805.539 0 .20533436.0861658.36483277.2585.4785.1723342.11366723.4968309.22183282.9735.3245.4913358.1026672.8763319.2199993 1.155.352.2786681.1320007.4784994.2951657.5995.4895.1210006.1943343.1815.4418318.1815.7425 0 .4766691-.1998313.8598319-.5995 1.1495-.3996687.2896681-.9331633.4345-1.6005.4345zm7.634-1.43c.1026672 0 .1869997.0403329.253.121.0660003.0806671.099.1833327.099.308 0 .2126677-.1319987.3923326-.396.539-.256668.1466674-.5371651.2603329-.8415.341-.3043349.0806671-.5958319.121-.8745.121-.8506709 0-1.5216642-.2474975-2.013-.7425-.4913358-.4950025-.737-1.1714957-.737-2.0295 0-.55000275.1081656-1.03766454.3245-1.463.2163344-.42533546.5206647-.75533216.913-.99.3923353-.23466784.8378308-.352 1.3365-.352.7186703 0 1.2869979.23099769 1.705.693.4180021.46200231.627 1.08532941.627 1.87 0 .2933348-.1319987.44-.396.44h-3.399c.0733337 1.1366724.6196616 1.705 1.639 1.705.2713347 0 .505999-.0366663.704-.11.198001-.0733337.4069989-.1686661.627-.286.0220001-.0146667.0824995-.0458331.1815-.0935.0990005-.0476669.1814997-.0715.2475-.0715zm-1.914-3.333c-.4253355 0-.7663321.13566531-1.023.407-.256668.27133469-.4106664.65266421-.462 1.144h2.838c-.0220001-.49866916-.1484988-.88183199-.3795-1.1495-.2310012-.26766801-.5554979-.4015-.9735-.4015zm.209-1.408c-.058667.05133359-.1283329.077-.209.077-.0806671 0-.1521664-.02933304-.2145-.088-.0623336-.05866696-.0935-.12833293-.0935-.209 0-.0733337.0256664-.13933304.077-.198L64.581.937c.1466674-.19800099.3153324-.297.506-.297.139334 0 .2566662.04766619.352.143.0953338.09533381.143.20899934.143.341 0 .16866751-.0879991.3263326-.264.473l-1.485 1.309zm5.621 6.171c-.5206693 0-.9771647-.1136655-1.3695-.341-.3923353-.2273345-.6966656-.5499979-.913-.968-.2163344-.4180021-.3245-.9019973-.3245-1.452 0-.55733612.1118322-1.04866454.3355-1.474.2236678-.42533546.5371646-.75533216.9405-.99.4033353-.23466784.8653307-.352 1.386-.352.2786681 0 .5591653.04033293.8415.121.2823347.08066707.5334989.19066597.7535.33.2346678.16133414.352.34833227.352.561 0 .12466729-.0329997.22916624-.099.3135-.0660003.08433376-.1503328.1265-.253.1265-.0660003 0-.1319997-.01649983-.198-.0495-.0660003-.03300016-.1503328-.08249967-.253-.1485-.1833343-.11733392-.3538325-.20716636-.5115-.2695-.1576675-.06233365-.3464989-.0935-.5665-.0935-.4986692 0-.8854986.16866498-1.1605.506-.2750014.33733502-.4125.80666366-.4125 1.408 0 .6013363.1356653 1.065165.407 1.3915.2713347.326335.6563308.4895 1.155.4895.2200011 0 .4143325-.0329997.583-.099.1686675-.0660003.3409991-.1539995.517-.264.0806671-.0513336.1613329-.0953331.242-.132.0806671-.0366669.1539997-.055.22-.055.1026672 0 .1869997.0421662.253.1265.0660003.0843338.099.1888327.099.3135 0 .1026672-.0274997.1961662-.0825.2805-.0550003.0843338-.1484993.1704996-.2805.2585-.2200011.1466674-.4766652.2603329-.77.341-.2933348.0806671-.5903318.121-.891.121zm7.172-5.555c.1686675 0 .3024995.04766619.4015.143.0990005.09533381.1485.22733249.1485.396v4.477c0 .1540008-.0513328.2786662-.154.374-.1026672.0953338-.2383325.143-.407.143-.1540008 0-.2786662-.0458329-.374-.1375-.0953338-.0916671-.143-.2144992-.143-.3685v-.418c-.1686675.3080015-.4014985.5426659-.6985.704-.2970015.1613341-.6288315.242-.9955.242-1.3053399 0-1.958-.7186595-1.958-2.156v-2.86c0-.16866751.0494995-.30066619.1485-.396.0990005-.09533381.2364991-.143.4125-.143.1686675 0 .3024995.04766619.4015.143.0990005.09533381.1485.22733249.1485.396V6.91c0 .4326688.0879991.7516656.264.957.1760009.2053344.4473315.308.814.308.4326688 0 .7791654-.1393319 1.0395-.418.2603346-.2786681.3905-.6489977.3905-1.111V4.061c0-.16133414.0513328-.29149951.154-.3905s.2383325-.1485.407-.1485zm4.917 0c.3520018-.02200011.528.12833172.528.451 0 .16133414-.0403329.28233293-.121.363-.0806671.08066707-.219999.12833326-.418.143l-.33.033c-.4620023.04400022-.8048322.20533194-1.0285.484-.2236678.27866806-.3355.61599802-.3355 1.012v2.519c0 .1760009-.0513328.3079996-.154.396-.1026672.0880004-.2346659.132-.396.132s-.2951661-.0439996-.4015-.132c-.1063339-.0880004-.1595-.2199991-.1595-.396V4.05c0-.16866751.0531661-.29883287.1595-.3905.1063339-.09166712.2401659-.1375.4015-.1375.1466674 0 .2694995.04583288.3685.1375.0990005.09166713.1485.21816586.1485.3795v.528c.1466674-.32266828.3593319-.56833249.638-.737.2786681-.16866751.5939982-.26766652.946-.297l.154-.011zm1.771 5.533c-.1613341 0-.2951661-.0439996-.4015-.132-.1063339-.0880004-.1595-.2199991-.1595-.396V4.061c0-.17600088.0531661-.30983287.1595-.4015.1063339-.09166712.2401659-.1375.4015-.1375.1613341 0 .2933328.04583288.396.1375.1026672.09166713.154.22549912.154.4015v4.466c0 .1760009-.0513328.3079996-.154.396-.1026672.0880004-.2346659.132-.396.132zm0-6.611c-.2126677 0-.3813327-.05866608-.506-.176-.1246673-.11733392-.187-.27133238-.187-.462 0-.19066762.0623327-.34283276.187-.4565.1246673-.11366724.2933323-.1705.506-.1705.2053344 0 .372166.05683276.5005.1705.128334.11366724.1925.26583238.1925.4565 0 .19066762-.0623327.34466608-.187.462-.1246673.11733392-.2933323.176-.506.176zm3.971 6.633c-.7480037 0-1.360331-.1539985-1.837-.462-.1320007-.0806671-.2254997-.1649996-.2805-.253-.0550003-.0880004-.0825-.1869994-.0825-.297 0-.1173339.0329997-.2163329.099-.297.0660003-.0806671.1503328-.121.253-.121.0953338 0 .2456656.0586661.451.176.2200011.1173339.434499.2126663.6435.286.209001.0733337.4711651.11.7865.11.3520018 0 .626999-.0623327.825-.187.198001-.1246673.297-.3006655.297-.528 0-.1466674-.0384996-.2639996-.1155-.352-.0770004-.0880004-.2108324-.166833-.4015-.2365-.1906676-.069667-.4729981-.1448329-.847-.2255-.6453366-.139334-1.1091653-.3281655-1.3915-.5665-.2823347-.23833452-.4235-.56283128-.4235-.9735 0-.31533491.0916657-.59949874.275-.8525.1833343-.25300127.4363317-.44916597.759-.5885s.6893313-.209 1.1-.209c.2933348 0 .5793319.03849961.858.1155.2786681.07700038.5243323.1888326.737.3355.2420012.16133414.363.34833227.363.561 0 .11733392-.034833.21633293-.1045.297-.069667.08066707-.1521662.121-.2475.121-.0660003 0-.1319997-.01466652-.198-.044-.0660003-.02933348-.1539995-.07699967-.264-.143-.198001-.11733392-.3831658-.20899967-.5555-.275-.1723342-.06600033-.3868321-.099-.6435-.099-.3080015 0-.5554991.06599934-.7425.198-.1870009.13200066-.2805.31166553-.2805.539 0 .20533436.0861658.36483277.2585.4785.1723342.11366723.496831.22183282.9735.3245.4913358.1026672.8763319.2199993 1.155.352.2786681.1320007.4784994.2951657.5995.4895.1210006.1943343.1815.4418318.1815.7425 0 .4766691-.1998313.8598319-.5995 1.1495-.3996687.2896681-.9331633.4345-1.6005.4345zm7.634-1.43c.1026672 0 .1869997.0403329.253.121.0660003.0806671.099.1833327.099.308 0 .2126677-.1319987.3923326-.396.539-.2566679.1466674-.5371651.2603329-.8415.341-.3043349.0806671-.5958319.121-.8745.121-.8506709 0-1.5216642-.2474975-2.013-.7425-.4913358-.4950025-.737-1.1714957-.737-2.0295 0-.55000275.1081656-1.03766454.3245-1.463.2163344-.42533546.5206647-.75533216.913-.99.3923353-.23466784.8378308-.352 1.3365-.352.7186703 0 1.2869979.23099769 1.705.693.4180021.46200231.627 1.08532941.627 1.87 0 .2933348-.1319987.44-.396.44H91.52c.0733337 1.1366724.6196616 1.705 1.639 1.705.2713347 0 .505999-.0366663.704-.11.198001-.0733337.4069989-.1686661.627-.286.0220001-.0146667.0824995-.0458331.1815-.0935.0990005-.0476669.1814997-.0715.2475-.0715zm-1.914-3.333c-.4253355 0-.766332.13566531-1.023.407-.2566679.27133469-.4106664.65266421-.462 1.144h2.838c-.0220001-.49866916-.1484988-.88183199-.3795-1.1495-.2310012-.26766801-.5554979-.4015-.9735-.4015zm.209-1.408c-.058667.05133359-.1283329.077-.209.077-.0806671 0-.1521664-.02933304-.2145-.088-.0623336-.05866696-.0935-.12833293-.0935-.209 0-.0733337.0256664-.13933304.077-.198L93.962.937c.1466674-.19800099.3153324-.297.506-.297.139334 0 .2566662.04766619.352.143.0953338.09533381.143.20899934.143.341 0 .16866751-.0879991.3263326-.264.473l-1.485 1.309zm5.192 6.171c-.7480037 0-1.3603309-.1539985-1.837-.462-.1320007-.0806671-.2254997-.1649996-.2805-.253-.0550003-.0880004-.0825-.1869994-.0825-.297 0-.1173339.0329997-.2163329.099-.297.0660003-.0806671.1503328-.121.253-.121.0953338 0 .2456656.0586661.451.176.2200011.1173339.434499.2126663.6435.286.209001.0733337.4711651.11.7865.11.3520018 0 .626999-.0623327.825-.187.198001-.1246673.297-.3006655.297-.528 0-.1466674-.0384996-.2639996-.1155-.352-.0770004-.0880004-.2108324-.166833-.4015-.2365-.1906676-.069667-.4729981-.1448329-.847-.2255-.6453366-.139334-1.1091653-.3281655-1.3915-.5665-.2823347-.23833452-.4235-.56283128-.4235-.9735 0-.31533491.0916658-.59949874.275-.8525.1833342-.25300127.4363317-.44916597.759-.5885s.6893313-.209 1.1-.209c.2933348 0 .5793319.03849961.858.1155.2786681.07700038.5243323.1888326.737.3355.242001.16133414.363.34833227.363.561 0 .11733392-.034833.21633293-.1045.297-.069667.08066707-.152166.121-.2475.121-.066 0-.1319997-.01466652-.198-.044-.0660003-.02933348-.1539995-.07699967-.264-.143-.198001-.11733392-.3831658-.20899967-.5555-.275-.1723342-.06600033-.386832-.099-.6435-.099-.3080015 0-.5554991.06599934-.7425.198-.1870009.13200066-.2805.31166553-.2805.539 0 .20533436.0861658.36483277.2585.4785.1723342.11366723.496831.22183282.9735.3245.4913358.1026672.8763319.2199993 1.155.352.278668.1320007.478499.2951657.5995.4895.121001.1943343.1815.4418318.1815.7425 0 .4766691-.199831.8598319-.5995 1.1495-.3996687.2896681-.9331633.4345-1.6005.4345zM128.667 9c-.176001 0-.3135-.0494995-.4125-.1485-.099-.0990005-.1485-.2328325-.1485-.4015V1.795c0-.16866751.0495-.3024995.1485-.4015.099-.09900049.236499-.1485.4125-.1485h4.048c.168668 0 .298833.04033293.3905.121s.1375.1943326.1375.341c0 .1466674-.045833.25849962-.1375.3355-.091667.07700039-.221832.1155-.3905.1155h-3.498V4.6h3.278c.168668 0 .298833.04033293.3905.121s.1375.1943326.1375.341c0 .1466674-.045833.26033293-.1375.341-.091667.08066707-.221832.121-.3905.121h-3.278v2.563h3.498c.352002 0 .528.1503318.528.451 0 .1466674-.045833.2603329-.1375.341-.091667.0806671-.221832.121-.3905.121h-4.048zm8.635-5.5c1.28334 0 1.925.72232611 1.925 2.167v2.86c0 .1686675-.0495.2988329-.1485.3905-.099.0916671-.236499.1375-.4125.1375-.168668 0-.3025-.0476662-.4015-.143-.099-.0953338-.1485-.2236659-.1485-.385V5.722c0-.45466894-.089832-.78833227-.2695-1.001-.179668-.21266773-.460165-.319-.8415-.319-.447336 0-.806665.13933194-1.078.418-.271335.27866806-.407.65266432-.407 1.122v2.585c0 .1613341-.0495.2896662-.1485.385-.099.0953338-.232832.143-.4015.143s-.304333-.0476662-.407-.143c-.102667-.0953338-.154-.2236659-.154-.385V4.05c0-.15400077.053166-.28049951.1595-.3795.106334-.09900049.240166-.1485.4015-.1485.161334 0 .289666.04766619.385.143.095334.09533381.143.21999923.143.374v.451c.176001-.32266828.421665-.56833249.737-.737.315335-.16866751.670998-.253 1.067-.253zm5.742 5.577c-.520669 0-.977165-.1136655-1.3695-.341-.392335-.2273345-.696666-.5499979-.913-.968-.216334-.4180021-.3245-.9019973-.3245-1.452 0-.55733612.111832-1.04866454.3355-1.474.223668-.42533546.537165-.75533216.9405-.99.403335-.23466784.865331-.352 1.386-.352.278668 0 .559165.04033293.8415.121s.533499.19066597.7535.33c.234668.16133414.352.34833227.352.561 0 .12466729-.033.22916624-.099.3135-.066.08433376-.150333.1265-.253.1265-.066 0-.132-.01649983-.198-.0495-.066-.03300016-.150333-.08249967-.253-.1485-.183334-.11733392-.353833-.20716636-.5115-.2695-.157667-.06233365-.346499-.0935-.5665-.0935-.498669 0-.885499.16866498-1.1605.506-.275001.33733502-.4125.80666366-.4125 1.408 0 .6013363.135665 1.065165.407 1.3915.271335.326335.656331.4895 1.155.4895.220001 0 .414332-.0329997.583-.099.168668-.0660003.340999-.1539995.517-.264.080667-.0513336.161333-.0953331.242-.132.080667-.0366669.154-.055.22-.055.102667 0 .187.0421662.253.1265s.099.1888327.099.3135c0 .1026672-.0275.1961662-.0825.2805-.055.0843338-.148499.1704996-.2805.2585-.220001.1466674-.476665.2603329-.77.341-.293335.0806671-.590332.121-.891.121zm5.83-5.555c.352002-.02200011.528.12833172.528.451 0 .16133414-.040333.28233293-.121.363-.080667.08066707-.219999.12833326-.418.143l-.33.033c-.462002.04400022-.804832.20533194-1.0285.484-.223668.27866806-.3355.61599802-.3355 1.012v2.519c0 .1760009-.051333.3079996-.154.396-.102667.0880004-.234666.132-.396.132s-.295166-.0439996-.4015-.132c-.106334-.0880004-.1595-.2199991-.1595-.396V4.05c0-.16866751.053166-.29883287.1595-.3905.106334-.09166712.240166-.1375.4015-.1375.146667 0 .2695.04583288.3685.1375.099.09166713.1485.21816586.1485.3795v.528c.146667-.32266828.359332-.56833249.638-.737.278668-.16866751.593998-.26766652.946-.297l.154-.011zm5.027.33c.044-.11000055.108166-.19066641.1925-.242.084334-.05133359.174166-.077.2695-.077.139334 0 .262166.04766619.3685.143.106334.09533381.1595.20899934.1595.341 0 .0733337-.014667.14299967-.044.209l-3.058 6.49c-.044.1026672-.108166.1814997-.1925.2365-.084334.0550003-.174166.0825-.2695.0825-.132001 0-.251166-.0439996-.3575-.132-.106334-.0880004-.1595-.1979993-.1595-.33 0-.058667.018333-.1319996.055-.22l.759-1.617-2.123-4.51c-.029333-.05866696-.044-.1246663-.044-.198 0-.13933403.058666-.25666619.176-.352.117334-.09533381.249333-.143.396-.143.220001 0 .377666.10266564.473.308l1.705 3.784 1.694-3.773zm4.785-.352c.462002 0 .874498.11733216 1.2375.352.363002.23466784.645332.56466454.847.99.201668.42533546.3025.91666388.3025 1.474 0 .5500027-.098999 1.0339979-.297 1.452-.198001.4180021-.478498.7406655-.8415.968-.363002.2273345-.779164.341-1.2485.341-.403335 0-.758998-.0861658-1.067-.2585s-.542666-.4198317-.704-.7425v2.453c0 .1540008-.0495.2768329-.1485.3685-.099.0916671-.229166.1375-.3905.1375-.168668 0-.306166-.0476662-.4125-.143-.106334-.0953338-.1595-.2236659-.1595-.385V4.061c0-.16133414.051333-.29149951.154-.3905.102667-.09900049.238332-.1485.407-.1485.161334 0 .293333.04949951.396.1485.102667.09900049.154.22916586.154.3905v.451c.161334-.32266828.395998-.57199912.704-.748.308002-.17600088.663665-.264 1.067-.264zm-.264 4.697c.484002 0 .857999-.163165 1.122-.4895.264001-.326335.396-.7901637.396-1.3915 0-.60866971-.133832-1.08166498-.4015-1.419-.267668-.33733502-.639831-.506-1.1165-.506-.484002 0-.856165.16499835-1.1165.495-.260335.33000165-.3905.79933029-.3905 1.408 0 .6086697.130165 1.0779984.3905 1.408.260335.3300016.632498.495 1.1165.495zm6.512.011c.161334.0146667.276833.056833.3465.1265.069667.069667.1045.1668327.1045.2915 0 .1466674-.056833.2584996-.1705.3355-.113667.0770004-.280499.1081667-.5005.0935l-.297-.022c-.594003-.0440002-1.037665-.2254984-1.331-.5445-.293335-.3190016-.44-.7901636-.44-1.4135V4.49h-.66c-.322668 0-.484-.14299857-.484-.429 0-.13200066.042166-.23649961.1265-.3135.084334-.07700038.203499-.1155.3575-.1155h.66V2.499c0-.16866751.0495-.30066619.1485-.396.099-.09533381.232832-.143.4015-.143s.304333.04766619.407.143c.102667.09533381.154.22733249.154.396v1.133h1.089c.154001 0 .273166.03849962.3575.1155.084334.07700039.1265.18149934.1265.3135 0 .13933403-.042166.2456663-.1265.319-.084334.0733337-.203499.11-.3575.11h-1.089v2.662c0 .3446684.071499.5976659.2145.759.143001.1613341.361165.2529999.6545.275l.308.022zm1.815.847c-.161334 0-.295166-.0439996-.4015-.132-.106334-.0880004-.1595-.2199991-.1595-.396V4.061c0-.17600088.053166-.30983287.1595-.4015.106334-.09166712.240166-.1375.4015-.1375.161334 0 .293333.04583288.396.1375.102667.09166713.154.22549912.154.4015v4.466c0 .1760009-.051333.3079996-.154.396-.102667.0880004-.234666.132-.396.132zm0-6.611c-.212668 0-.381333-.05866608-.506-.176-.124667-.11733392-.187-.27133238-.187-.462 0-.19066762.062333-.34283276.187-.4565s.293332-.1705.506-.1705c.205334 0 .372166.05683276.5005.1705.128334.11366724.1925.26583238.1925.4565 0 .19066762-.062333.34466608-.187.462-.124667.11733392-.293332.176-.506.176zm4.433 6.633c-.528003 0-.991831-.1136655-1.3915-.341-.399669-.2273345-.707666-.5518312-.924-.9735-.216334-.4216688-.3245-.9111639-.3245-1.4685 0-.56466949.108166-1.05783123.3245-1.4795.216334-.42166877.524331-.74616553.924-.9735.399669-.22733447.863497-.341 1.3915-.341s.991831.11366553 1.3915.341c.399669.22733447.707666.55183123.924.9735.216334.42166877.3245.91483051.3245 1.4795 0 .5573361-.108166 1.0468312-.3245 1.4685-.216334.4216688-.524331.7461655-.924.9735-.399669.2273345-.863497.341-1.3915.341zm0-.88c.491336 0 .867165-.1613317 1.1275-.484s.3905-.7956635.3905-1.419c0-.61600308-.131999-1.08716503-.396-1.4135-.264001-.32633496-.637998-.4895-1.122-.4895-.484002 0-.857999.16316504-1.122.4895-.264001.32633497-.396.79749692-.396 1.4135 0 .6233365.130165 1.0963317.3905 1.419.260335.3226683.636164.484 1.1275.484zm6.765-4.697c1.28334 0 1.925.72232611 1.925 2.167v2.86c0 .1686675-.0495.2988329-.1485.3905-.099.0916671-.236499.1375-.4125.1375-.168668 0-.3025-.0476662-.4015-.143-.099-.0953338-.1485-.2236659-.1485-.385V5.722c0-.45466894-.089832-.78833227-.2695-1.001-.179668-.21266773-.460165-.319-.8415-.319-.447336 0-.806665.13933194-1.078.418-.271335.27866806-.407.65266432-.407 1.122v2.585c0 .1613341-.0495.2896662-.1485.385-.099.0953338-.232832.143-.4015.143s-.304333-.0476662-.407-.143c-.102667-.0953338-.154-.2236659-.154-.385V4.05c0-.15400077.053166-.28049951.1595-.3795.106334-.09900049.240166-.1485.4015-.1485.161334 0 .289666.04766619.385.143.095334.09533381.143.21999923.143.374v.451c.176001-.32266828.421665-.56833249.737-.737.315335-.16866751.670998-.253 1.067-.253zm9.042 5.588c-.557336 0-1.087164-.0769992-1.5895-.231-.502336-.1540008-.903832-.3666653-1.2045-.638-.139334-.1173339-.209-.2676657-.209-.451 0-.1320007.036666-.2438329.11-.3355.073334-.0916671.161333-.1375.264-.1375.102667 0 .227333.0476662.374.143.65267.4840024 1.396996.726 2.233.726.58667 0 1.037665-.1099989 1.353-.33.315335-.2200011.473-.5353313.473-.946 0-.3226683-.146665-.5646659-.44-.726-.293335-.1613341-.762663-.3153326-1.408-.462-.616003-.13200066-1.121998-.28233249-1.518-.451-.396002-.16866751-.705832-.39783188-.9295-.6875-.223668-.28966811-.3355-.65816443-.3355-1.1055 0-.44733557.122832-.84516492.3685-1.1935.245668-.34833507.588498-.61966569 1.0285-.814.440002-.1943343.942331-.2915 1.507-.2915.520669 0 1.000998.0733326 1.441.22s.813998.36299857 1.122.649c.146667.12466729.22.27499912.22.451 0 .12466729-.0385.23466619-.1155.33-.077.09533381-.166833.143-.2695.143-.095334 0-.216333-.04766619-.363-.143-.337335-.25666795-.654499-.44183276-.9515-.5555-.297001-.11366724-.654498-.1705-1.0725-.1705-.564669 0-1.004665.11549885-1.32.3465-.315335.23100115-.473.55183128-.473.9625 0 .35200176.139332.61783243.418.7975.278668.17966757.725997.3428326 1.342.4895.645337.1466674 1.167831.29883254 1.5675.4565.399669.15766746.718665.37399863.957.649.238335.2750014.3575.6288312.3575 1.0615 0 .4400022-.122832.8304983-.3685 1.1715-.245668.3410017-.590331.6049991-1.034.792-.443669.1870009-.955164.2805-1.5345.2805zm6.897 0c-.557336 0-1.087164-.0769992-1.5895-.231-.502336-.1540008-.903832-.3666653-1.2045-.638-.139334-.1173339-.209-.2676657-.209-.451 0-.1320007.036666-.2438329.11-.3355.073334-.0916671.161333-.1375.264-.1375.102667 0 .227333.0476662.374.143.65267.4840024 1.396996.726 2.233.726.58667 0 1.037665-.1099989 1.353-.33.315335-.2200011.473-.5353313.473-.946 0-.3226683-.146665-.5646659-.44-.726-.293335-.1613341-.762663-.3153326-1.408-.462-.616003-.13200066-1.121998-.28233249-1.518-.451-.396002-.16866751-.705832-.39783188-.9295-.6875-.223668-.28966811-.3355-.65816443-.3355-1.1055 0-.44733557.122832-.84516492.3685-1.1935.245668-.34833507.588498-.61966569 1.0285-.814.440002-.1943343.942331-.2915 1.507-.2915.520669 0 1.000998.0733326 1.441.22s.813998.36299857 1.122.649c.146667.12466729.22.27499912.22.451 0 .12466729-.0385.23466619-.1155.33-.077.09533381-.166833.143-.2695.143-.095334 0-.216333-.04766619-.363-.143-.337335-.25666795-.654499-.44183276-.9515-.5555-.297001-.11366724-.654498-.1705-1.0725-.1705-.564669 0-1.004665.11549885-1.32.3465-.315335.23100115-.473.55183128-.473.9625 0 .35200176.139332.61783243.418.7975.278668.17966757.725997.3428326 1.342.4895.645337.1466674 1.167831.29883254 1.5675.4565.399669.15766746.718665.37399863.957.649.238335.2750014.3575.6288312.3575 1.0615 0 .4400022-.122832.8304983-.3685 1.1715-.245668.3410017-.590331.6049991-1.034.792-.443669.1870009-.955164.2805-1.5345.2805zM198.77 9c-.168668 0-.3025-.0476662-.4015-.143-.099-.0953338-.1485-.2236659-.1485-.385v-6.71c0-.16866751.051333-.30616613.154-.4125.102667-.10633386.238332-.1595.407-.1595.176001 0 .315333.05133282.418.154.102667.10266718.154.24199912.154.418v6.292h3.344c.168668 0 .298833.0403329.3905.121.091667.0806671.1375.1979992.1375.352s-.045833.2713329-.1375.352c-.091667.0806671-.221832.121-.3905.121h-3.927z"/>
    <g fill-rule="nonzero">
      <path fill="#306FC5" d="M280 44.1712844C280 45.7335406 278.7296875 47 277.1626562 47h-42.32531245C233.2703125 47.0000935 232 45.7335406 232 44.1712844V16.82862216C232 15.26645936 233.2703125 14 234.83734375 14h42.32531245C278.7297813 14 280 15.26645936 280 16.82862216V44.1712844z"/>
      <path fill="#202121" d="M234.0775321 44.1711989V16.82861415C234.0775321 15.26645577 235.38601912 14 236.99990345 14h-2.07782177C233.30829391 14 232 15.26636231 232 16.82861415V44.1712924C232 45.7335442 233.30829391 47 234.92217824 47H237c-1.61388433 0-2.9224679-1.2665492-2.9224679-2.8288011z" opacity=".15"/>
      <g fill="#FFF">
        <path d="M239.59588636 27.45406536h1.42549546l-.71256137-1.78156863zM247.1767864 33.43462745v.82728105h2.397475v.8909673h-2.397475v.9546536h2.6565204l1.231025-1.3364967-1.1661704-1.33640525zM265.9018591 25.67249673l-.7776023 1.78156863H266.6147zM254.1097 36.6160131v-3.62664055l-1.6847273 1.78166015zM257.2845909 34.0075294c-.0648545-.38175162-.3242727-.57290195-.7132136-.57290195h-1.3603614v1.14525495h1.4255886c.3886614.0000915.6479864-.1906929.6479864-.572353zM261.81975 34.4529673c.1296159-.0637778.1946568-.2548366.1946568-.4453464.0648546-.25428757-.0650409-.38175162-.1946568-.44543789-.1292432-.06368628-.3239-.06368628-.5179977-.06368628h-1.2961591v1.01815687h1.2960659c.1940977 0 .3887545 0 .5180909-.0636863z"/>
        <path d="M271.1497659 24.01811765v.76350326l-.388475-.76350326h-3.0449954v.76350326l-.388941-.76350326h-4.1467772c-.7126546 0-1.2960659.12737255-1.8141568.38184313v-.38184313h-2.915566v.38184313c-.3239-.25437908-.7126545-.38184313-1.231025-.38184313H246.788125l-.7130273 1.59069281-.71256134-1.59069281h-3.30441363v.76350326l-.32399318-.76350326H238.88323182l-1.29606591 2.99032679-1.49007046 3.24488889-.02739545.06377778h3.373275l.02348182-.06377778.38894091-.95419608h.84227045l.38875455 1.01797386h3.75765v-.76350327l.32417954.76341177h1.87882503l.3238068-.76341177v.76350327H256.3772795v-1.65437908h.1298955c.1294295 0 .1294295 0 .1294295.19096732v1.39972549h4.6651478v-.38175164c.3887545.19115033.9715136.38175164 1.7491159.38175164h1.9440523l.3887545-1.01779085h.9068455l.3887545 1.01779085h3.7578364v-.95419608l.5834113.95419608h3.0451818v-6.2353072h-2.9159386zm-21.9644454 5.34479738h-1.036741v-3.49954248l-.0648545.14594771v-.00173856l-1.5073091 3.35533333H245.62148864l-1.554925-3.49954248v3.49954248h-2.20281819l-.4535159-.95437908h-2.20319091l-.45360909.95437908h-1.13896137l1.91675-4.45392157h1.61968637l1.81415681 4.26286275v-4.26286275H244.68165682l.03056363.06377778h.00223637l.81748409 1.7471634.58704549 1.30904575.0207795-.06597385 1.2957864-3.05392157h1.749675l.0000932 4.45383006zm4.4708636-3.49954248h-2.5269977v.82709804h2.4621431v.89069281h-2.4621431v.89105882h2.5269977v.95410458h-3.6284068v-4.51724183h3.6284068v.95428758zm4.6213523 1.64065359c.0016772.00146406.0038204.00247059.0058704.00384314.0245068.02543791.0454727.05096732.0633637.07539869.1241181.15976471.224475.3973987.2295068.74584314.0003727.00603922.0006522.01198693.001025.01802614 0 .00347713.0006522.00649674.0006522.01006536 0 .00201308-.0001863.00356863-.0001863.0054902.0014909.03504575.0024227.07082353.0024227.10952941v.89078432h-.9717v-.50921569c0-.25447059 0-.63631373-.1946568-.89078431-.0612205-.06011765-.1231864-.09973857-.19065-.12792157-.0970955-.06176471-.2811296-.06277124-.5865796-.06277124h-1.1666363v1.59069281h-1.1012227v-4.45392157h2.4623295c.5827591 0 .9717 0 1.2957864.19087581.3174704.18721569.5092386.49768628.5165068.98933334-.0150023.67712418-.4576159 1.04862745-.7758318 1.17389542 0 0 .2161818.04273203.41.2408366zm2.1818522 1.85888889h-1.1015954v-4.45392157h1.1015954v4.45392157zm12.6347091 0h-1.4256818l-2.0732954-3.37235294v2.79954249l-.0068023-.00658824v.58214379h-1.0946068v-.00265359h-1.1015955l-.3887545-.95437909h-2.2679523l-.3887546 1.01779085h-1.231025c-.5179977 0-1.1663568-.12709804-1.554925-.50884967-.3887545-.38175164-.5829454-.89078432-.5829454-1.71779085 0-.63622222.1294295-1.27290196.5829454-1.78175164.3237137-.38202614.907125-.50894117 1.6196864-.50894117h1.0369273v.95428758h-1.0369273c-.3887545 0-.5827591.06341176-.8424568.25465359-.1940046.19078432-.3237136.57244445-.3237136 1.01779085 0 .50912419.0648545.82718955.3237136 1.08166013.1948432.19115033.4537954.25483661.7776954.25483661h.453516l1.4900704-3.49935948h1.6199659l1.8144364 4.26286274v-4.26277124h1.6196863l1.8786387 3.11751634v-3.11751634h1.1019682v4.39005229h.0001863v-.00018301z"/>
        <path d="M257.3536386 26.76403922c.0189159-.01985621.0360614-.04236602.0505978-.06816994.0587045-.09122876.1259818-.25556863.0897341-.47984314-.001491-.02058823-.0053114-.03962091-.0097841-.05801307-.0012114-.00512418-.001025-.00960784-.0024228-.01473202l-.0006522.0000915c-.0322409-.10898039-.1145205-.17596079-.1966137-.21658824-.1298954-.06341176-.3242727-.06341176-.5185568-.06341176h-1.2960659v1.01815686h1.2960659c.1942841 0 .3887546 0 .5185568-.06377778.019475-.00969934.0368068-.02287581.0534864-.03779085l.0001864.00082353c.0000931-.0000915.006709-.00686274.0154681-.01674509zM276.9166023 35.7255948c0-.4453464-.1294296-.8908758-.3237137-1.2089412v-2.86304576h-.0029818v-.19115032H273.4699c-.4040364 0-.8943591.38166013-.8943591.38166013v-.38166013h-2.9803273c-.4537954 0-1.0365545.12737255-1.2960659.38166013v-.38166013h-5.3128545v.38156862c-.388475-.31788235-1.1017818-.38166013-1.4254955-.38166013h-3.4988841v.38156863c-.3239-.31788235-1.1017818-.38166013-1.4907227-.38166013h-3.8869864l-.9073113.95447059-.8423637-.95447059h-5.83113177V37.8888235h5.70179547l.93685-.9202483.8120795.9202483h3.6286864v-1.4633202h.3241795c.4531432 0 1.0365546 0 1.4900705-.1911504v1.7180654h2.9157523V36.2980392h.1292431c.1946569 0 .1946569 0 .1946569.1908758v1.4635033h8.8115522c.5835978 0 1.1663569-.1275556 1.4902569-.3820261v.3820261h2.7863227c.5827591 0 1.1663568-.0635948 1.5551113-.3182484.59655-.351464.9725387-.9735947 1.0284478-1.7155947.0026091-.0219608.0058704-.0439216.0079204-.0659739l-.0038204-.0035686c.0024227-.0411765.0041-.0818954.0041-.1234379zm-20.4095205-.3816602h-1.2961591V36.9980392h-2.1296704l-1.2395046-1.3999085-.0042863.0046667-.0605682-.0684445-1.4254023 1.4636863h-4.1466841v-4.45373855h4.2115387l1.150609 1.2375817.2419.25913725.0328-.0333987 1.3608273-1.46322874h3.4339364c.6664363 0 1.4127295.16150326 1.6955363.82737255.0340114.13185621.053766.27844444.053766.44498039 0 1.2724444-.907125 1.5271895-1.8786387 1.5271895zm6.4792114-.0637777c.1294295.1904183.1942841.4453464.1942841.827281v.8905098h-1.1013159v-.5724444c0-.2549281 0-.7-.1946569-.8911504-.1292431-.1904183-.3887545-.1904183-.7772295-.1904183h-1.1661705v1.6541046h-1.101409v-4.51742482h2.4619568c.5179977 0 .9715136 0 1.2960659.19069281.3237136.19105882.5827591.50921569.5827591 1.01824837 0 .69972544-.4533296 1.08147714-.7774159 1.20894114.3240863.1267321.5183704.2543791.5831318.3816602zm4.4708636-1.84552945h-2.5272773v.82718955h2.4622364v.8909673h-2.4622364v.8908758h2.5272773v.9542876H263.82875v-4.51742482h3.6284068v.95410457zm2.7210955 3.56341175h-2.0734818v-.9542876h2.0734818c.1940045 0 .3239 0 .4537954-.1273725.0648546-.0637778.1292432-.1907843.1292432-.3181569 0-.1275555-.0643886-.2541961-.1292432-.3179738-.0650409-.0635948-.1948432-.1272811-.3891272-.1272811-1.036741-.0636863-2.267766 0-2.267766-1.39963397 0-.63631372.3887546-1.33631372 1.5551114-1.33631372h2.1380568v1.08147712h-2.0084409c-.1942841 0-.3240863 0-.4537954.06368628-.1292432.06377777-.1292432.19115032-.1292432.31824836 0 .19096733.1292432.25465363.2588591.31779083.1298954.0637778.259325.0637778.3887545.0637778h.583225c.583225 0 .9718864.127281 1.231025.3818431.1944705.1909674.3240864.5091242.3240864.9543791 0 .9541046-.5831318 1.399817-1.6845409 1.399817zm5.5721795-.4457124c-.2588591.2548366-.7126545.4457124-1.3608273.4457124h-2.0729227v-.9542876h2.0728296c.1944704 0 .3243659 0 .4537954-.1273725.064575-.0637778.1296159-.1907843.1296159-.3181569 0-.1275555-.0650409-.2541961-.1296159-.3179738-.0648545-.0635948-.1942841-.1272811-.3887545-.1272811-1.0363682-.0636863-2.2677659 0-2.2677659-1.39954246 0-.6047451.3523204-1.15101961 1.2212409-1.31325491.1038977-.0140915.2136659-.02315032.3338704-.02315032h2.1383364v1.08147712h-2.0087205c-.1944704 0-.3239 0-.4533295.06368628-.0652273.06377777-.1300818.19115032-.1300818.31824836 0 .19096733.0648545.25465363.2595113.31779083.1294296.0637778.2590455.0637778.3887546.0637778H274.5193136c.2831796 0 .4973114.0343137.6932728.1019346.1794681.0637778.7735954.3247451.9064727 1.005987.0115545.0713725.0200341.1458562.0200341.2283006 0 .3818432-.1296159.6999085-.3886614.9541046z"/>
      </g>
    </g>
    <g fill-rule="nonzero">
      <path fill="#0099DF" d="M228 44.3076875c0 1.567125-1.2703125 2.8375312-2.8373438 2.8375312h-42.32531245C181.2703125 47.1452187 180 45.874625 180 44.3076875V16.87971875c0-1.56703125 1.2703125-2.8374375 2.83734375-2.8374375h42.32521875c1.567125 0 2.8373437 1.27040625 2.8373437 2.8374375L228 44.3076875z"/>
      <path fill="#202121" d="M182.01721875 44.3076875V16.87971875c0-1.56703125 1.2705-2.8374375 2.83753125-2.8374375h-2.0175c-1.5669375 0-2.83725 1.2705-2.83725 2.8374375V44.3076875c0 1.567125 1.2703125 2.8375312 2.83734375 2.8375312h2.0175c-1.56703125 0-2.837625-1.2705937-2.837625-2.8375312z" opacity=".15"/>
      <path fill="#EA001B" d="M211.3769063 28.5853437c0-1.6901249.7784999-3.1982812 1.9965-4.1858437-.9255-.75046875-2.1051563-1.2005625-3.3896251-1.2005625-2.9747812 0-5.3859374 2.4114375-5.3859374 5.3863125 0 2.9747813 2.4111562 5.3860313 5.3859374 5.3860313 1.2846563 0 2.4641251-.4498125 3.3896251-1.2005625-1.2180001-.9872813-1.9965-2.4953438-1.9965-4.1853751z"/>
      <path fill="#F79F1A" d="M216.763125 23.19903125c-1.2846562 0-2.46375.45009375-3.389625 1.20056255 1.2181875.9875625 1.9966875 2.4957187 1.9966875 4.1858437 0 1.6900313-.7785 3.1980938-1.9966875 4.1854688.925875.7506562 2.1051563 1.2005625 3.389625 1.2005625 2.9749688 0 5.386125-2.41125 5.386125-5.3860313 0-2.9749687-2.4113437-5.38640625-5.386125-5.38640625z"/>
      <path fill="#FF5F01" d="M215.3700938 28.5853437c0-1.6901249-.7785-3.1982812-1.9966875-4.1858437-1.2179063.9875625-1.9965 2.4957188-1.9965 4.1858437 0 1.6900313.7784999 3.1980938 1.9965 4.1854688 1.2180937-.987375 1.9966875-2.4954375 1.9966875-4.1854688z"/>
      <path fill="#FFC715" d="M195.5477813 31.0822813c0 .3784687-.307125.685125-.685125.685125h-8.5015313c-.37846875 0-.685125-.3066563-.685125-.685125V24.45725c0-.3784687.30675-.68503125.685125-.68503125h8.5015313c.3780937 0 .685125.30656255.685125.68503125v6.6250313z"/>
      <g fill="#34495E">
        <path d="M195.6415312 37.6349375h-9.96562495c-.43228125 0-.782625-.3504375-.782625-.782625 0-.43228125.35025-.782625.782625-.782625h9.96562495c.4322813 0 .782625.35025.782625.782625 0 .4321875-.3503437.782625-.782625.782625zM195.6415312 40.89865625h-9.96562495c-.43228125 0-.782625-.35025-.782625-.782625 0-.43228125.35025-.782625.782625-.782625h9.96562495c.4322813 0 .782625.35025.782625.782625 0 .43228125-.3503437.782625-.782625.782625z"/>
      </g>
      <g fill="#FFA617">
        <path d="M188.33371875 31.7675h1.56525V23.772125h-1.56525V25.6544375h-2.6578125v1.56525h2.6578125v1.10025h-2.6578125v1.56515625h2.6578125V30.984875zM194.76525 27.2196875h.782625v-1.56525h-2.275125V23.772125h-1.56525v5.33034375c0 .4321875.35025.782625.782625.782625h3.05775v-1.56525h-2.275125V27.2196875h1.4925z"/>
      </g>
      <path fill="#202121" d="M187.1175 31.0822813V24.45725c0-.3784687.30665625-.68503125.685125-.68503125h-1.4415c-.37846875 0-.685125.30656255-.685125.68503125v6.6250313c0 .3784687.30675.685125.685125.685125h1.44159375c-.3785625.0000937-.68521875-.3066563-.68521875-.685125z" opacity=".15"/>
    </g>
    <g fill-rule="nonzero">
      <path fill="#FFF" d="M176 44.3075938c0 1.567125-1.2703125 2.8375312-2.8373438 2.8375312h-42.32531245C129.2703125 47.1452187 128 45.8747188 128 44.3075938V16.87971875c0-1.567125 1.2703125-2.8374375 2.83734375-2.8374375h42.32531245c1.5671251 0 2.8373438 1.27040625 2.8373438 2.8374375V44.3075938z"/>
      <path fill="#F79F1A" d="M138.65375 30.7845313l-1.1270625-5.4066563c-.19265625-.7455937-.75328125-.9674062-1.45378125-.99675h-5.1673125l-.04603125.2470313c4.02459375.9756562 6.6875625 3.3293437 7.7941875 6.156375z"/>
      <g fill="#059BBF">
        <path d="M150.6269375 24.489875h-3.3387187l-2.0851875 12.2369062h3.3331875zM140.6885938 36.7145l5.2509375-12.2162812H142.406l-3.2665313 8.346375-.3486562-1.2601875c-.6403125-1.5160313-2.4703125-3.6980625-4.6186875-5.0716875l2.9859375 10.2059062 3.5305313-.004125zM160.1497813 32.7265625c.012375-1.3892812-.8796563-2.4489375-2.8019063-3.3241875-1.1682187-.5653125-1.88025-.9422812-1.8717187-1.5159375 0-.5068125.603-1.0512187 1.9095-1.0512187 1.0932187-.0167813 1.8803437.2219062 2.496.4690312l.3016875.1382813.4524375-2.6509688c-.6617813-.2472187-1.6963125-.5110312-2.9901563-.5110312-3.2959687 0-5.616 1.6585312-5.637 4.03725-.021 1.7590312 1.658625 2.739 2.9232188 3.3252187 1.2981562.5975625 1.7337187.9799687 1.725375 1.5160313-.0083438.8196562-1.0345313 1.1934375-1.9935 1.1934375-1.3359375 0-2.04375-.1842188-3.1414688-.6415313l-.4265625-.1959375-.4685625 2.7420938c.7784063.3402187 2.218875.6375937 3.7141875.6499687 3.5050313 0 5.7833438-1.6374375 5.8084688-4.1805zM164.1155938 34.8926563c.3810937 0 3.7858125.0042187 4.2718124.0042187.1005.4260938.4062188 1.8342188.4062188 1.8342188h3.0947813l-2.7012188-12.2285625h-2.5755c-.7999688 0-1.3944375.2177812-1.746375 1.0133437l-4.9542188 11.2152188 3.5055-1e-7c-.0002812 0 .5691563-1.5074062.6990001-1.8384374zm2.2864687-5.9259375c-.0165.0334687.2765625-.7077188.4440937-1.1684063l.2260313 1.05525s.63675 2.9233125.770625 3.53475h-2.76825c.2764687-.7035 1.3275-3.4215937 1.3275-3.4215937zM173.1626562 14.04228125h-42.32531245c-1.56703125 0-2.83734375 1.2703125-2.83734375 2.8374375v2.944875h48v-2.944875c0-1.567125-1.2702187-2.8374375-2.8373438-2.8374375z"/>
      </g>
      <path fill="#F79F1A" d="M173.1626562 47.1452188h-42.32531245C129.2703125 47.1452188 128 45.8748125 128 44.3077813v-2.944875h48v2.944875c0 1.5670312-1.2702187 2.8374375-2.8373438 2.8374375z"/>
      <path fill="#202121" d="M130.01721875 44.3075938V16.87971875c0-1.567125 1.27040625-2.8374375 2.83753125-2.8374375h-2.0175c-1.5669375 0-2.83725 1.2703125-2.83725 2.8374375V44.3076875c0 1.567125 1.2703125 2.8375312 2.83734375 2.8375312h2.0175c-1.567125 0-2.837625-1.2705-2.837625-2.8376249z" opacity=".15"/>
    </g>
    <g fill-rule="nonzero">
      <path fill="#34495E" d="M332 44.3076875c0 1.567125-1.2703125 2.8375312-2.8373438 2.8375312h-42.32531245C285.2703125 47.1452187 284 45.874625 284 44.3076875V16.87971875c0-1.567125 1.2703125-2.8374375 2.83734375-2.8374375h42.32521875c1.567125 0 2.8373437 1.27040625 2.8373437 2.8374375L332 44.3076875z"/>
      <path fill="#202121" d="M286.01721875 44.3076875V16.87971875c0-1.567125 1.2705-2.8374375 2.83753125-2.8374375h-2.0175c-1.5669375 0-2.83725 1.2705-2.83725 2.8374375V44.3076875c0 1.567125 1.2703125 2.8375312 2.83734375 2.8375312h2.0175c-1.56703125 0-2.837625-1.2705937-2.837625-2.8375312z" opacity=".15"/>
      <path fill="#F26E21" d="M313.0052188 30.5750938c.0038437-.903375-.334875-1.8080625-1.0165313-2.4898125-.6831562-.6831563-1.5900937-1.0215938-2.4953437-1.0161563-.0043125 0-.0085313-.0002812-.0130313-.0002812-1.96575 0-3.525 1.558875-3.525 3.5251875 0 1.9469062 1.5784688 3.5249062 3.525 3.5249062 1.9663125 0 3.525375-1.5591562 3.525375-3.5249062 0-.0064688-.0004687-.0125625-.0004687-.0189375z"/>
      <g fill="#E7E8E3">
        <path d="M305.2998125 32.08521875c-.526875.5274375-1.0131562.7335-1.5369375.74465625-1.2760312-.0114375-2.2141875-.9564375-2.2141875-2.30371875 0-.6781875.2567812-1.23403125.6635625-1.708875.3814687-.36215625.8729063-.59615625 1.4380312-.59615625.6100313 0 1.0847813.20334375 1.6267501.7456875v-1.55915625c-.5418751-.27103125-1.0168126-.4066875-1.6267501-.4066875-.86175.06159375-1.6742812.40978125-2.2975312.95653125-.179625.161625-.35175.34003125-.4977188.54421875-.4552499.5900625-.7304062 1.31259375-.7304062 2.0925 0 1.96565625 1.5597188 3.45703125 3.5255625 3.45703125.0095625 0 .0190312-.00084375.0283125-.0009375.0132187.0001875.02625.0009375.039375.0009375.54225 0 1.0171875-.13528125 1.6272187-.4065l-.0452812-1.55953125c-.022875.022875.0226875.04415625 0 .0658125v-.0658125zM317.4559062 27.97184375l-1.53525 3.7745625-1.7626875-4.47459375h-1.4234062l2.7793125 6.84703125h.7456875l2.9150625-6.84703125h-1.4234063zM319.7171562 30.25475v3.66103125h3.7284375v-1.0850625h-2.372625V31.0008125h2.305125v-1.15284375h-2.305125v-1.4235h2.372625V27.2718125h-3.7284375zM289.07515625 27.2718125H287.176625v6.64396875h1.8984375c1.01671875 0 1.7623125-.27140625 2.3724375-.74596875.74559375-.610125 1.22034375-1.55896875 1.22034375-2.5756875.00009375-1.9665-1.42378125-3.3223125-3.5926875-3.3223125zm1.5590625 5.0169375c-.40678125.3388125-.949125.54196875-1.7626875.54196875H288.46475V28.424375h.33890625c.8135625 0 1.35590625.1355625 1.76278125.54215625.47446875.4065.74578125 1.017.74578125 1.6273125.06778125.610125-.20334375 1.28775-.678 1.69490625zM293.2784375 27.27125h1.28803125v6.64378125h-1.28803125zM297.8201562 29.84796875c-.81337495-.271125-1.01699995-.47465625-1.01699995-.81346875 0-.40678125.40678125-.7456875.94912495-.7456875.4067813 0 .7456875.13565625 1.0846875.5424375l.6780938-.88125c-.5425313-.47475-1.2201563-.74559375-1.9659375-.74559375-1.15275 0-2.101875.8135625-2.101875 1.897875 0 .9493125.40715625 1.356 1.62721875 1.8305625.54234375.2030625.74578125.271125.88162495.4066875.2706563.135375.4065.40678125.4065.677625 0 .5424375-.4065.9493125-1.017.9493125-.61068745 0-1.15256245-.33890625-1.4237812-.88134375l-.8135625.8135625c.61040625.88125 1.35609375 1.2879375 2.3052187 1.2879375 1.3557188 0 2.304375-.88125 2.304375-2.16946875.0001875-1.1521875-.4062187-1.62675-1.8976875-2.1691875zM327.106625 31.13590625c1.0165312-.2030625 1.5590625-.88125 1.5590625-1.897875 0-1.2200625-.8814375-1.96621875-2.372625-1.96621875h-1.966125v6.64396875h1.2880312V31.2715625h.203625l1.8299063 2.64421875h1.5594375l-2.1013125-2.779875zm-1.0850625-.8135625h-.4065V28.2888125h.4065c.8135625 0 1.2883125.3388125 1.2883125 1.0171875 0 .677625-.4746563 1.01634375-1.2883125 1.01634375z"/>
      </g>
    </g>
    <path fill="#32364E" d="M4.99328859 14H119.006711C121.764671 14 124 16.22741463 124 18.97560976V43.0243902C124 45.7725854 121.764671 48 119.006711 48H4.99328859C2.23532886 48 0 45.7725854 0 43.0243902V18.97560976C0 16.22741463 2.23532886 14 4.99328859 14z"/>
    <path fill="#FFF" d="M59.2342733 36h-1.2070126l.9345679-2.2744035-1.8600544-4.6244577h1.2755366l1.1690356 3.1472343 1.178117-3.1472343H62L59.2342733 36zm-4.6356881-1.9864425c-.4185742 0-.8470554-.1529284-1.2367339-.4506508v.3359545h-1.2458154V27h1.2458154v2.4281453c.3896785-.2879609.8181597-.4417028 1.2367339-.4417028 1.3052578 0 2.201023 1.0363341 2.201023 2.5135575 0 1.4772234-.8957652 2.5135575-2.201023 2.5135575zm-.2625377-3.9720716c-.3409687 0-.6819374.1439805-.9741962.4319414v2.0531454c.2922588.2879609.6332275.4319414.9741962.4319414.700926 0 1.1880241-.5946312 1.1880241-1.4585141 0-.8630694-.4870981-1.4585141-1.1880241-1.4585141zm-7.2651924 3.5214208c-.3797715.2977224-.8082527.4506508-1.2367339.4506508-1.2953508 0-2.2001975-1.0363341-2.2001975-2.5135575 0-1.4772234.9048467-2.5135575 2.2001975-2.5135575.4284812 0 .8569624.1537419 1.2367339.4417028V27h1.256548v6.8988612h-1.256548v-.3359545zm0-3.0894794c-.2823518-.2879609-.6233205-.4319414-.9642892-.4319414-.7108331 0-1.1971056.5954447-1.1971056 1.4585141 0 .8638829.4862725 1.4585141 1.1971056 1.4585141.3409687 0 .6819374-.1439805.9642892-.4319414v-2.0531454zm-7.4204035 1.3625271c.0776055.7288504.6621233 1.2283081 1.480283 1.2283081.4474698 0 .944475-.1635033 1.4505617-.4514642v1.0265726c-.5547965.2497289-1.109593.3741866-1.655308.3741866-1.4703759 0-2.5023635-1.0550434-2.5023635-2.5517896 0-1.4487527 1.012999-2.4753254 2.4049439-2.4753254 1.2755366 0 2.1424061.9883406 2.1424061 2.3988612 0 .1342191 0 .2871475-.0198141.4506507h-3.3007091zm1.1294072-1.8994034c-.6035063 0-1.0707903.4408893-1.1294072 1.1030369h2.1225921c-.0388028-.6523862-.4383883-1.1030369-.9931849-1.1030369zm-4.4111276.757321v3.2049892h-1.246641v-4.7977224h1.246641v.479935c.3500502-.383948.7785314-.5946313 1.1971056-.5946313.1370479 0 .2732703.0097614.4094926.0479935v1.0940889c-.1362223-.0390455-.2922589-.0577548-.4383883-.0577548-.4086671 0-.8470554.2204447-1.1682099.6231019zm-5.5611746 1.1420824c.078431.7288504.6621232 1.2283081 1.4802829 1.2283081.4482954 0 .9444751-.1635033 1.4513874-.4514642v1.0265726c-.5556221.2497289-1.1104187.3741866-1.6561337.3741866-1.4703759 0-2.5023634-1.0550434-2.5023634-2.5517896 0-1.4487527 1.012999-2.4753254 2.4049438-2.4753254 1.2763622 0 2.1424062.9883406 2.1424062 2.3988612 0 .1342191 0 .2871475-.0189886.4506507h-3.3015346zm1.1294072-1.8994034c-.6035064 0-1.0707903.4408893-1.1294072 1.1030369h2.1234176c-.0396283-.6523862-.4383883-1.1030369-.9940104-1.1030369zm-5.4827436 3.9623102l-.9931848-3.2619306-.9832778 3.2619306h-1.1203257l-1.6742966-4.7977224h1.2458154l.9841033 3.2627441.9832778-3.2627441h1.1294072l.9832777 3.2627441.9841034-3.2627441h1.2458154l-1.6652152 4.7977224h-1.1195001zm-7.6152426.1146963c-1.4703759 0-2.5122706-1.045282-2.5122706-2.5135575 0-1.4772234 1.0418947-2.5135575 2.5122706-2.5135575 1.4703758 0 2.5023634 1.0363341 2.5023634 2.5135575 0 1.4682755-1.0319876 2.5135575-2.5023634 2.5135575zm0-4.0005423c-.7306472 0-1.2367339.6043926-1.2367339 1.4869848 0 .8825922.5060867 1.4869848 1.2367339 1.4869848.7207401 0 1.2268268-.6043926 1.2268268-1.4869848 0-.8825922-.5060867-1.4869848-1.2268268-1.4869848zm-5.4728365 1.516269h-1.1203257v2.369577H11v-6.6011389h2.3661411c1.3630492 0 2.3364198.8728308 2.3364198 2.1206616 0 1.2470174-.9733706 2.1109003-2.3364198 2.1109003zm-.1758507-3.2334599h-.944475v2.2353579h.944475c.7207401 0 1.2268268-.4506507 1.2268268-1.1127983 0-.6719088-.5060867-1.1225596-1.2268268-1.1225596zM113.958349 32.375613h-6.03943c.137449 1.4059843 1.197057 1.8198426 2.399111 1.8198426 1.22538 0 2.190023-.2502587 3.031378-.6633071v2.4167379c-.838856.4511136-1.945113.7775028-3.4204.7775028-3.004721 0-5.110607-1.8295613-5.110607-5.4473791 0-3.0549381 1.786005-5.4813948 4.721584-5.4813948 2.930581 0 4.460015 2.4256468 4.460015 5.4975928 0 .2899438-.02749.9184252-.041651 1.0804049zm-4.438356-4.1321034c-.771381 0-1.628564.5661192-1.628564 1.9178402h3.189652c0-1.3501012-.803036-1.9178402-1.561088-1.9178402zm-9.5947801 8.4828796c-1.0796002 0-1.7393558-.4430146-2.182525-.7588751l-.0066642 3.3942857L94.6513328 40l-.001666-14.0023397h2.7173269l.1599408.7410574c.4273417-.3879415 1.2078859-.9411024 2.417438-.9411024 2.1666975 0 4.2076085 1.8975928 4.2076085 5.3898763 0 3.8121934-2.019252 5.5388976-4.2267681 5.5388976zm-.7180674-8.2714961c-.7089041 0-1.1520733.2518786-1.4736209.5944657l.0183266 4.4576828c.2990559.3150506.7313957.5693588 1.4552943.5693588 1.1404105 0 1.9051275-1.207559 1.9051275-2.8224971 0-1.5695838-.776379-2.7990102-1.9051275-2.7990102zm-8.9150315-2.4572328h3.0971863V36.511766H90.292114V25.9976603zm0-3.35703038L93.3893003 22v2.4434646l-3.0971863.63982v-2.44265468zM87.0924658 29.383847v7.127919h-3.0838579V25.9976603h2.6673455l.1940947.8868391c.7213995-1.2909786 2.1641985-1.0293813 2.5748797-.8860292v2.7568954c-.3923547-.1231046-1.6235653-.3029022-2.352462.6284814zm-6.511755 3.4388302c0 1.768009 1.946779 1.2180877 2.3424658 1.0642069v2.4418448c-.4115143.2194826-1.1570715.3976603-2.1658645.3976603-1.8309885 0-3.2046464-1.3112261-3.2046464-3.0873341l.0133284-9.624027 3.0122177-.62200223.002499 2.60463443h2.3432988v2.5576603h-2.3432988v4.2673566zm-3.7436134.511856c0 2.1591901-1.7676787 3.391856-4.3333951 3.391856-1.0637726 0-2.2266753-.2008549-3.3737504-.6811249v-2.863802c1.0354498.5474916 2.3549611.9581103 3.3770825.9581103.6880785 0 1.1837283-.1797976 1.1837283-.7337683C73.6907627 31.9739033 69 32.5132958 69 29.191901c0-2.1235545 1.6685487-3.3942857 4.1709552-3.3942857 1.0221214 0 2.0442429.1530709 3.0663643.5491114v2.8249268c-.9388189-.4924184-2.1300444-.7718335-3.0688634-.7718335-.6464272 0-1.0479452.1814173-1.0479452.6503487 0 1.3492914 4.7165865.7078515 4.7165865 4.2843645z"/>
  </g>
</svg>