<?xml version="1.0" encoding="utf-8"?>
<!-- Generator: Adobe Illustrator 19.1.0, SVG Export Plug-In . SVG Version: 6.00 Build 0)  -->
<svg version="1.1" id="Layer_1" xmlns="http://www.w3.org/2000/svg" xmlns:xlink="http://www.w3.org/1999/xlink" x="0px" y="0px"
	 viewBox="-156 69 647 423" style="enable-background:new -156 69 647 423;" xml:space="preserve">
<g>
	<path style="fill:#313F84;" d="M490.1,446c0,25.1-20.4,45.5-45.5,45.5H62.5c-24.6,0-45.3-19.2-46.2-43.9
		c-0.3-8.1,1.6-16.2,5.4-23.3l1.2-2.1L213.1,92.8l1.1-1.9c8.3-13.6,23-21.9,38.9-21.9c15.9,0,30.7,8.3,38.9,21.9l1.1,1.9
		l190.3,329.6C487.8,429.5,490.1,437.7,490.1,446z"/>
	<path style="fill:#586ECF;" d="M317.8,446c0,25.1-20.4,45.5-45.5,45.5h-382.1c-24.6,0-45.3-19.2-46.2-43.9
		c-0.3-8.1,1.6-16.2,5.4-23.3l1.2-2.1L40.9,92.8l1.1-1.9C50.2,77.3,65,69,80.9,69s30.7,8.3,38.9,21.9l1.1,1.9l190.3,329.6
		C315.6,429.5,317.8,437.7,317.8,446L317.8,446z"/>
</g>
</svg>
