<svg xmlns="http://www.w3.org/2000/svg" viewBox="0 0 273 273" width="273" height="273">
  <path fill="#586ECF" fill-rule="evenodd" d="M79.130435 0h114.73913C237.572098 0 273 35.4279024 273 79.130435v114.73913C273 237.572098 237.572098 273 193.869565 273H79.130435C35.4279024 273 0 237.572098 0 193.869565V79.130435C0 35.4279024 35.4279024 0 79.130435 0zm0 39.5652174c-21.8512664 0-39.5652176 17.7139512-39.5652176 39.5652176v114.73913c0 21.851266 17.7139512 39.565218 39.5652176 39.565218h114.73913c21.851266 0 39.565218-17.713952 39.565218-39.565218V79.130435c0-21.8512664-17.713952-39.5652176-39.565218-39.5652176H79.130435z"/>
</svg>
