<svg xmlns="http://www.w3.org/2000/svg" xmlns:xlink="http://www.w3.org/1999/xlink" viewBox="1399 -1351 3243 3243"><circle cx="3020.5" cy="270.5" r="1621.5" fill="#cfe1b7"/><defs><circle id="a" cx="3020.5" cy="270.5" r="1621.5"/></defs><clipPath id="b"><use xlink:href="#a" overflow="visible"/></clipPath><g clip-path="url(#b)"><path d="M2292.5 1970.2c-21.3-257.3-28.9-413.6-25.3-522.3 4.4-133.4 26.4-212.2 73.7-263.5 54.6-59.3 130.3-67.5 204-67.5v150c-54.1 0-81.2 5.5-93.6 19-13.5 14.7-30.4 55.6-34.1 166.9-3.4 102.7 4.1 253.7 24.9 505l-149.6 12.4zM3769.8 1971.1l-149.5-12.4c20.8-251.3 28.3-402.3 24.9-505-3.7-111.3-20.6-152.2-34.1-166.9-12.5-13.5-39.6-19-93.6-19v-150c73.7 0 149.4 8.2 204 67.5 47.2 51.3 69.3 130.1 73.7 263.5 3.6 108.7-4 264.9-25.4 522.3z" fill="#65a1e3"/><path d="M4060 116c0-375-381.6-698.7-879-754.5-45.9-5.6-253.1-5.6-299 0-497.4 55.8-879 379.5-879 754.5 0 261.1 44.5 285.5 403.2 855.8 5.1 11.1 8.8 22.5 8.8 33.2v831l614 93.7 616-93.7v-831c0-6.6 1.4-13.4 3.7-20.3C4014.9 401.9 4060 379 4060 116z" fill="#65a1e3"/><ellipse cx="2504" cy="411.5" rx="103" ry="61.5" fill="#f6ab9d"/><ellipse cx="3551" cy="411.5" rx="103" ry="61.5" fill="#f6ab9d"/><defs><path id="c" d="M4060 116c0-375-381.6-698.7-879-754.5-45.9-5.6-253.1-5.6-299 0-497.4 55.8-879 379.5-879 754.5 0 261.1 44.5 285.5 403.2 855.8 5.1 11.1 8.8 22.5 8.8 33.2v831l614 93.7 616-93.7v-831c0-6.6 1.4-13.4 3.7-20.3C4014.9 401.9 4060 379 4060 116z"/></defs><clipPath id="d"><use xlink:href="#c" overflow="visible"/></clipPath><path d="M2262 1909l43-849 901 144 622-144-43 371 73 410s-814 111-848 117-748-49-748-49z" clip-path="url(#d)" fill="#9dd3eb"/><g><defs><path id="e" d="M4060 116c0-375-381.6-698.7-879-754.5-45.9-5.6-253.1-5.6-299 0-497.4 55.8-879 379.5-879 754.5 0 261.1 44.5 285.5 403.2 855.8 5.1 11.1 8.8 22.5 8.8 33.2v831l614 93.7 616-93.7v-831c0-6.6 1.4-13.4 3.7-20.3C4014.9 401.9 4060 379 4060 116z"/></defs><clipPath id="f"><use xlink:href="#e" overflow="visible"/></clipPath><path d="M3711 1179s-173.9 155-665 155c-489 0-665-155-665-155V955s254 170 665 165c420.3-5.1 665-165 665-165v224z" clip-path="url(#f)" fill="#65bfdf"/><defs><path id="g" d="M4060 116c0-375-381.6-698.7-879-754.5-45.9-5.6-253.1-5.6-299 0-497.4 55.8-879 379.5-879 754.5 0 261.1 44.5 285.5 403.2 855.8 5.1 11.1 8.8 22.5 8.8 33.2v831l614 93.7 616-93.7v-831c0-6.6 1.4-13.4 3.7-20.3C4014.9 401.9 4060 379 4060 116z"/></defs><clipPath id="h"><use xlink:href="#g" overflow="visible"/></clipPath><path d="M3711 1596s-173.9 155-665 155c-489 0-665-155-665-155v-224s254 170 665 165c420.3-5.1 665-165 665-165v224z" clip-path="url(#h)" fill="#65bfdf"/><path d="M3121.3-935.9c-8.5 101.3-68.2 354.7-134.3 345.9-75-10-78.1-261.8-69.6-363.1s61.1-179.5 117.4-174.8c56.3 4.8 95 90.7 86.5 192z" fill="#65a1e3"/><path d="M3043-607c57 75.4 123.2-24.4 188-52 68-29 99-33 99-90 0-58.2-98.8-63.2-161.9-31.9C3105-749.7 3012-648 3043-607zM2967-595c-18.7 25.6-68.6-42.9-142-86-50.3-29.5-86-60-59.6-104.8 16.1-27.4 72.1-18.5 119.1 15.9S2985.7-620.6 2967-595z" fill="#65a1e3"/><path d="M3032.5 519.8c-25.7 0-50.3-6.8-71.3-19.6-22.8-14-40.2-34.6-50.1-59.6-3.1-7.7.7-16.4 8.4-19.5 7.7-3.1 16.4.7 19.5 8.4 17.7 44.5 59.9 60.3 93.6 60.3 33.6 0 75.9-15.8 93.6-60.3 3.1-7.7 11.8-11.5 19.5-8.4 7.7 3.1 11.5 11.8 8.4 19.5-9.9 25-27.3 45.6-50.1 59.6-21.2 12.8-45.8 19.6-71.5 19.6zM2828 178.1c-6 0-11.6-3.6-13.9-9.5-12-30-32.8-54.8-60.2-71.6-25.8-15.7-56.2-24-87.9-24s-62.1 8.3-87.9 24.1c-27.4 16.8-48.2 41.5-60.2 71.6-3.1 7.7-11.8 11.5-19.5 8.4-7.7-3.1-11.5-11.8-8.4-19.5 14.4-36.1 39.4-65.9 72.4-86.1C2592.9 52.9 2628.7 43 2666 43s73.1 9.8 103.5 28.5c33 20.2 58 49.9 72.4 86.1 3.1 7.7-.7 16.4-8.4 19.5-1.8.7-3.6 1-5.5 1zM3551 178.1c-6 0-11.6-3.6-13.9-9.5-12-30-32.8-54.8-60.2-71.6-25.8-15.7-56.2-24-87.9-24s-62.1 8.3-87.9 24.1c-27.4 16.8-48.2 41.5-60.2 71.6-3.1 7.7-11.8 11.4-19.5 8.4-7.7-3.1-11.5-11.8-8.4-19.5 14.4-36.1 39.4-65.9 72.4-86.1C3315.9 52.9 3351.7 43 3389 43s73.1 9.8 103.5 28.5c33 20.2 58 49.9 72.4 86.1 3.1 7.7-.7 16.4-8.4 19.5-1.8.7-3.6 1-5.5 1z" fill="#40455f"/></g></g></svg>