<svg xmlns="http://www.w3.org/2000/svg" viewBox="0 0 273 244" width="273" height="244">
  <path fill="#586ECF" fill-rule="nonzero" d="M272.999994 217.713973c-.006348 14.507973-11.733844 26.2701-26.208633 26.286027H26.642295C12.463476 244 .525844 232.883875.018841 218.678333c-.177574-4.690288.902744-9.342517 3.128443-13.472167l.702891-1.224217L113.437869 13.743178l.627993-1.0971761C118.828215 4.7936285 127.332455 0 136.500775 0c9.16832 0 17.672561 4.7936285 22.434913 12.6460019l.627994 1.0971761 109.628023 190.331164c2.493927 4.110233 3.811442 8.828995 3.808289 13.639631zm-51.999997-22.981146c.001951-2.977073-.813653-5.897291-2.357513-8.440918l-67.864967-117.78691-.388758-.6789896C147.440636 62.9665488 142.176107 60 136.50048 60s-10.940156 2.9665488-13.88828 7.8260094l-.388757.6789896-67.840001 117.729732-.435123.75761c-1.377814 2.555644-2.046583 5.434687-1.936656 8.337283C52.325523 204.120758 59.715485 211 68.49285 211h136.282754c8.960584-.009857 16.220463-7.288878 16.224393-16.267173z"/>
</svg>
