<svg xmlns="http://www.w3.org/2000/svg" xmlns:xlink="http://www.w3.org/1999/xlink" viewBox="0 0 143.2 279.7"><ellipse cx="71.6" cy="261.6" rx="71.6" ry="18.1" fill="#bbcb9e"/><path d="M23.5 261c-.6 0-1.1-.1-1.7-.2-3.2-.9-5-4.3-4.1-7.4l12.8-43.5c.9-3.2 4.3-5 7.4-4.1 3.2.9 5 4.3 4.1 7.4l-12.8 43.5c-.7 2.7-3.1 4.3-5.7 4.3zM118.8 262.1c-2.6 0-5-1.7-5.8-4.3l-12.8-43.5c-.9-3.2.9-6.5 4.1-7.4 3.2-.9 6.5.9 7.4 4.1l12.8 43.5c.9 3.2-.9 6.5-4.1 7.4-.5.2-1 .2-1.6.2z" fill="#4993d0"/><path d="M72.8 191.1c0 20.9 27.2 35.2-3.2 34.1-41.9-1.5-53.3-14.4-53.3-35.2 0-25 17.3-15.9 10.1-62.1-1.9-12.2 29.2 24.3 44.9 24.3 30.4 0 1.5 18 1.5 38.9z" fill="#4993d0"/><path d="M71.8 191.1c0 20.9-27.2 35.2 3.2 34.1 41.9-1.5 53.3-14.4 53.3-35.2 0-25-17.3-15.9-10.1-62.1 1.9-12.2-29.2 24.3-44.9 24.3-30.4 0-1.5 18-1.5 38.9z" fill="#4993d0"/><path d="M72.7 53.5c28 .1 51.8 17.1 51.8 45.4 0 10.2-4.6 26.6-11.3 43.6-1.7 5.4-3.9 12.9-4.1 20.7-.4 10.5 1.1 45-5 44.9-7.5-.1-4.4-.2-32-.4-27.6.2-24.4.3-32 .4-6.1.1-4.6-34.4-5-44.9-.3-5.6-1.2-11.1-2.8-16.4-6.7-18.3-11.2-36.6-11.2-47.6 0-28.3 23-45.6 51-45.8h.3l.3.1z" fill="#7ca7f6"/><defs><path id="a" d="M72.7 53.5c28 .1 51.8 17.1 51.8 45.4 0 10.2-4.6 26.6-11.3 43.6-1.7 5.4-3.9 12.9-4.1 20.7-.4 10.5 1.1 45-5 44.9-7.5-.1-4.4-.2-32-.4-27.6.2-24.4.3-32 .4-6.1.1-4.6-34.4-5-44.9-.3-5.6-1.2-11.1-2.8-16.4-6.7-18.3-11.2-36.6-11.2-47.6 0-28.3 23-45.6 51-45.8h.3l.3.1z"/></defs><clipPath id="b"><use xlink:href="#a" overflow="visible"/></clipPath><g clip-path="url(#b)"><path fill="#c5d6fa" d="M27.7 165.3h90.4v46.8H27.7z"/></g><defs><path id="c" d="M72.7 53.5c28 .1 51.8 17.1 51.8 45.4 0 10.2-4.6 26.6-11.3 43.6-1.7 5.4-3.9 12.9-4.1 20.7-.4 10.5 1.1 45-5 44.9-7.5-.1-4.4-.2-32-.4-27.6.2-24.4.3-32 .4-6.1.1-4.6-34.4-5-44.9-.3-5.6-1.2-11.1-2.8-16.4-6.7-18.3-11.2-36.6-11.2-47.6 0-28.3 23-45.6 51-45.8h.3l.3.1z"/></defs><clipPath id="d"><use xlink:href="#c" overflow="visible"/></clipPath><g clip-path="url(#d)" fill="#467ade"><path d="M34.5 159.8h78v14h-78zM34.9 202.7h75.9v14H34.9zM34.9 180.9h75.9v14H34.9z"/></g><g fill="#4a5161"><path d="M60.6 196.7c-.3 0-.5-.2-.5-.4v-42c0-.3.2-.5.4-.5h22.1c.3 0 .5.2.5.4v42c0 .3-.2.5-.4.5H60.6z"/><path d="M82.6 154.4v41.9h-22v-41.9h22m0-1h-22c-.5 0-1 .4-1 .9v42c0 .5.4 1 .9 1h22.1c.5 0 1-.4 1-.9v-42c0-.6-.4-1-1-1z"/></g><path d="M74.7 171.4c-1.7 0-3-1.4-2.9-3.1 0-1.3.9-2.5 2.2-2.8-.6-.4-1.4-.6-2.1-.6-2.3 0-4.1 1.8-4.1 4.1s1.8 4.1 4.1 4.1c1.4 0 2.6-.7 3.4-1.8-.1.1-.4.1-.6.1zM72.1 163.9s-.4-2.3.4-2.7c.4-.2.8-.1 1.1.2.1.1.1.3.1.5-.1.8-1.6 2-1.6 2z" fill="#d77965"/><path d="M72.2 184.9c-1.4-1.9-4.1-2.4-6.1-1.2-3.5 2.4-7.3 4.5-11.3 6-4.4 1.9-9.2 3.1-14 3.4-1.7.1-3.5-.2-5.1-.9-3-1.3-3.8-3.1-2.6-6.1.6-1.4 1.3-2.8 2.2-4l-.1-13.3c-2.7 2.4-5.2 5.1-7.3 8.1-2.3 3.2-4.1 6.6-4.3 10.6-.4 5.7 3 10.6 8.6 13 4.7 2 9.5 2 14.4 1.1 7-1.3 13.7-3.8 19.9-7.3 1.8-.9 3.4-2 5-3.2 1.8-1.6 2.1-4.3.7-6.2z" fill="#7da7f5"/><path d="M72 184.9c1.4-1.9 4.1-2.4 6.1-1.2 3.5 2.4 7.3 4.5 11.3 6 4.4 1.9 9.2 3.1 14 3.4 1.7.1 3.5-.2 5.1-.9 3-1.3 3.8-3.1 2.6-6.1-.6-1.4-1.3-2.8-2.2-4l.1-13.3c2.7 2.4 5.2 5.1 7.3 8.1 2.3 3.2 4.1 6.6 4.3 10.6.4 5.7-3 10.6-8.6 13-4.7 2-9.5 2-14.4 1.1-7-1.3-13.7-3.8-19.9-7.3-1.8-.9-3.4-2-5-3.2-1.8-1.6-2.1-4.3-.7-6.2z" fill="#7da7f5"/><path d="M76.1 207.8c0 1.1 0 2.2-.1 3.3-.1 1.5 0 3-.1 4.5s0 3-.1 4.5 0 3-.1 4.5 0 3-.1 4.5 0 3-.1 4.5 0 3-.1 4.5c-.1 1.7-.1 3.4-.1 5.1v3.5c-.1 1.8-.1 3.7 0 5.5.2 2.4 2.3 4.2 4.7 4h.2c2.3-.3 4-2.1 4.1-4.4 0-1.4 0-2.7.1-4.1s0-2.9.1-4.4 0-3 .1-4.6 0-2.9.1-4.4 0-3 .1-4.5 0-3 .1-4.5 0-3 .1-4.5 0-2.9.1-4.4 0-3 .1-4.6v-3.9h-9.1v-.1zM67.8 249.9c0-1 0-1.9-.1-2.9-.1-1.4 0-2.9-.1-4.4s0-3.1-.1-4.6 0-2.9-.1-4.4 0-3.1-.1-4.6 0-2.9-.1-4.4 0-3.1-.1-4.6 0-2.9-.1-4.4 0-3.1-.1-4.6c0-1.1 0-2.3-.1-3.4h-9v.7c.1 1.5 0 3 .1 4.6s0 2.9.1 4.4 0 3.1.1 4.6 0 2.9.1 4.4 0 3 .1 4.5 0 3 .1 4.5 0 3 .1 4.5 0 3 .1 4.5c.1 2.4.1 4.8.1 7.2 0 2.5 2 4.5 4.5 4.5h.5c1.9-.2 3.5-1.6 3.9-3.5.2-.8.3-1.7.2-2.6z" fill="#7ca7f5"/><path d="M53 110.7c-5.9 0-12.2-3.2-12.2-10.2 0-.4.3-.8.8-.8s.8.3.8.8c0 2.7 1.1 5 3.3 6.5 1.9 1.4 4.6 2.2 7.4 2.2 5.1 0 10.5-2.6 10.5-8.4 0-.4.3-.8.8-.8s.8.3.8.8c-.2 6.5-6.2 9.9-12.2 9.9zM93.3 110.7c-3.1 0-6-.9-8.2-2.4-2.5-1.8-3.8-4.4-3.8-7.4 0-.4.3-.8.8-.8s.8.3.8.8c0 5.7 5.5 8.4 10.5 8.4 5.1 0 10.7-2.7 10.7-8.8 0-.4.3-.8.8-.8s.8.3.8.8c-.2 7-6.6 10.2-12.4 10.2zM73.2 130c-3 0-6.5-1.6-7.6-5.2-.1-.4.1-.8.5-.9.4-.1.8.1.9.5.9 2.9 3.8 4.2 6.3 4.1 2.2-.1 5-1.2 5.8-4.2.1-.4.5-.6.9-.5.4.1.6.5.5.9-.8 3.1-3.6 5.2-7.2 5.3h-.1z" fill="#4a5161"/><ellipse cx="41.6" cy="121.5" rx="7.7" ry="5.4" fill="#c5d6fa"/><ellipse cx="104.8" cy="121.5" rx="7.7" ry="5.4" fill="#c5d6fa"/><path d="M61.5 54.4c.1-.7.1-1.5 0-2.2-.2-1.2-2.5-11.3-2.7-15.7-.9-15.4 7.2-16.2 10-14.5 3.7 2.2 3.2 9.7 3.2 13.4 0 5.6-1.7 13.6-.5 15s2.9.5 2.9-2 .2-17.8 1.4-25.6C77.5 12.4 82.1-.9 91.8 0c4.5.4 10.6 9.2 3.2 23.3-3.1 5.9-10.1 19.3-10.3 23.1-.2 3.5.1 6 1.9 8.5s6.2 4.3 6.2 4.3l-31.5-1.3.2-3.5z" fill="#7ca7f6"/><path d="M62.3 258.5c3.3 0 5.5.4 5.5-2.8v-4.1c-.2 0-.4-.1-.6-.1H49.1c-.2 0-.5 0-.7.1-1.8.4-3 2.2-2.7 4 .3 1.7 1.7 2.9 3.4 2.9h13.2zM80.9 258.4c-3.3 0-5.5.4-5.5-2.8v-4.1c.2 0 .4-.1.6-.1h18.1c.2 0 .5 0 .7.1 1.8.4 3 2.2 2.7 4-.3 1.7-1.7 2.9-3.4 2.9h-9c-1.4.1-2.8.1-4.2 0z" fill="#4a5161"/></svg>