<?xml version="1.0" encoding="utf-8"?>
<!-- Generator: Adobe Illustrator 19.1.0, SVG Export Plug-In . SVG Version: 6.00 Build 0)  -->
<svg version="1.1" id="Layer_1" xmlns="http://www.w3.org/2000/svg" xmlns:xlink="http://www.w3.org/1999/xlink" x="0px" y="0px"
	 viewBox="0 0 143.2 279.7" style="enable-background:new 0 0 143.2 279.7;" xml:space="preserve">
<style type="text/css">
	.st0{fill:#BBCB9E;}
	.st1{fill:none;stroke:#4993D0;stroke-width:12;stroke-linecap:round;stroke-miterlimit:10;}
	.st2{fill:#4993D0;}
	.st3{fill:#7CA7F6;}
	.st4{clip-path:url(#SVGID_3_);}
	.st5{fill:#C5D6FA;}
	.st6{clip-path:url(#SVGID_5_);}
	.st7{fill:#467ADE;}
	.st8{fill:#4A5161;}
	.st9{fill:#D77965;}
	.st10{fill:#7DA7F5;}
	.st11{fill:#7CA7F5;}
	.st12{fill:none;stroke:#4A5161;stroke-width:1.5;stroke-linecap:round;stroke-miterlimit:10;}
</style>
<g>
	<title>Asset 1</title>
	<g>
		<g id="Layer_1-2_1_">
			<ellipse class="st0" cx="71.6" cy="261.6" rx="71.6" ry="18.1"/>
			<line class="st1" x1="23.5" y1="255" x2="36.3" y2="211.5"/>
			<line class="st1" x1="118.8" y1="256.1" x2="106" y2="212.6"/>
			<path class="st2" d="M72.8,191.1c0,20.9,27.2,35.2-3.2,34.1c-41.9-1.5-53.3-14.4-53.3-35.2c0-25,17.3-15.9,10.1-62.1
				c-1.9-12.2,29.2,24.3,44.9,24.3C101.7,152.2,72.8,170.2,72.8,191.1z"/>
			<path class="st2" d="M71.8,191.1c0,20.9-27.2,35.2,3.2,34.1c41.9-1.5,53.3-14.4,53.3-35.2c0-25-17.3-15.9-10.1-62.1
				c1.9-12.2-29.2,24.3-44.9,24.3C42.9,152.2,71.8,170.2,71.8,191.1z"/>
			<path id="SVGID_1_" class="st3" d="M72.7,53.5c28,0.1,51.8,17.1,51.8,45.4c0,10.2-4.6,26.6-11.3,43.6c-1.7,5.4-3.9,12.9-4.1,20.7
				c-0.4,10.5,1.1,45-5,44.9c-7.5-0.1-4.4-0.2-32-0.4c-27.6,0.2-24.4,0.3-32,0.4c-6.1,0.1-4.6-34.4-5-44.9
				c-0.3-5.6-1.2-11.1-2.8-16.4c-6.7-18.3-11.2-36.6-11.2-47.6c0-28.3,23-45.6,51-45.8h0.3L72.7,53.5z"/>
			<g>
				<g>
					<defs>
						<path id="SVGID_2_" d="M72.7,53.5c28,0.1,51.8,17.1,51.8,45.4c0,10.2-4.6,26.6-11.3,43.6c-1.7,5.4-3.9,12.9-4.1,20.7
							c-0.4,10.5,1.1,45-5,44.9c-7.5-0.1-4.4-0.2-32-0.4c-27.6,0.2-24.4,0.3-32,0.4c-6.1,0.1-4.6-34.4-5-44.9
							c-0.3-5.6-1.2-11.1-2.8-16.4c-6.7-18.3-11.2-36.6-11.2-47.6c0-28.3,23-45.6,51-45.8h0.3L72.7,53.5z"/>
					</defs>
					<clipPath id="SVGID_3_">
						<use xlink:href="#SVGID_2_"  style="overflow:visible;"/>
					</clipPath>
					<g class="st4">
						<rect x="27.7" y="165.3" class="st5" width="90.4" height="46.8"/>
					</g>
				</g>
			</g>
			<g>
				<g>
					<defs>
						<path id="SVGID_4_" d="M72.7,53.5c28,0.1,51.8,17.1,51.8,45.4c0,10.2-4.6,26.6-11.3,43.6c-1.7,5.4-3.9,12.9-4.1,20.7
							c-0.4,10.5,1.1,45-5,44.9c-7.5-0.1-4.4-0.2-32-0.4c-27.6,0.2-24.4,0.3-32,0.4c-6.1,0.1-4.6-34.4-5-44.9
							c-0.3-5.6-1.2-11.1-2.8-16.4c-6.7-18.3-11.2-36.6-11.2-47.6c0-28.3,23-45.6,51-45.8h0.3L72.7,53.5z"/>
					</defs>
					<clipPath id="SVGID_5_">
						<use xlink:href="#SVGID_4_"  style="overflow:visible;"/>
					</clipPath>
					<g class="st6">
						<rect x="34.5" y="159.8" class="st7" width="78" height="14"/>
						<rect x="34.9" y="202.7" class="st7" width="75.9" height="14"/>
						<rect x="34.9" y="180.9" class="st7" width="75.9" height="14"/>
					</g>
				</g>
			</g>
			<g>
				<path class="st8" d="M60.6,196.7c-0.3,0-0.5-0.2-0.5-0.4c0,0,0,0,0-0.1v-41.9c0-0.3,0.2-0.5,0.4-0.5c0,0,0,0,0.1,0h22
					c0.3,0,0.5,0.2,0.5,0.4c0,0,0,0,0,0.1v41.9c0,0.3-0.2,0.5-0.4,0.5c0,0,0,0-0.1,0H60.6z"/>
				<path class="st8" d="M82.6,154.4v41.9h-22v-41.9H82.6 M82.6,153.4h-22c-0.5,0-1,0.4-1,0.9v0.1v41.9c0,0.5,0.4,1,0.9,1h0.1h22
					c0.5,0,1-0.4,1-0.9v-0.1v-41.9C83.6,153.8,83.2,153.4,82.6,153.4z"/>
			</g>
			<path class="st9" d="M74.7,171.4c-1.7,0-3-1.4-2.9-3.1c0-1.3,0.9-2.5,2.2-2.8c-0.6-0.4-1.4-0.6-2.1-0.6c-2.3,0-4.1,1.8-4.1,4.1
				c0,2.3,1.8,4.1,4.1,4.1c1.4,0,2.6-0.7,3.4-1.8C75.2,171.4,74.9,171.4,74.7,171.4z"/>
			<path class="st9" d="M72.1,163.9c0,0-0.4-2.3,0.4-2.7c0.4-0.2,0.8-0.1,1.1,0.2c0.1,0.1,0.1,0.3,0.1,0.5
				C73.6,162.7,72.1,163.9,72.1,163.9z"/>
			<path class="st10" d="M72.2,184.9c-1.4-1.9-4.1-2.4-6.1-1.2c-3.5,2.4-7.3,4.5-11.3,6c-4.4,1.9-9.2,3.1-14,3.4
				c-1.7,0.1-3.5-0.2-5.1-0.9c-3-1.3-3.8-3.1-2.6-6.1c0.6-1.4,1.3-2.8,2.2-4l-0.1-13.3c-2.7,2.4-5.2,5.1-7.3,8.1
				c-2.3,3.2-4.1,6.6-4.3,10.6c-0.4,5.7,3,10.6,8.6,13c4.7,2,9.5,2,14.4,1.1c7-1.3,13.7-3.8,19.9-7.3c1.8-0.9,3.4-2,5-3.2
				C73.3,189.5,73.6,186.8,72.2,184.9z"/>
			<path class="st10" d="M72,184.9c1.4-1.9,4.1-2.4,6.1-1.2c3.5,2.4,7.3,4.5,11.3,6c4.4,1.9,9.2,3.1,14,3.4c1.7,0.1,3.5-0.2,5.1-0.9
				c3-1.3,3.8-3.1,2.6-6.1c-0.6-1.4-1.3-2.8-2.2-4l0.1-13.3c2.7,2.4,5.2,5.1,7.3,8.1c2.3,3.2,4.1,6.6,4.3,10.6
				c0.4,5.7-3,10.6-8.6,13c-4.7,2-9.5,2-14.4,1.1c-7-1.3-13.7-3.8-19.9-7.3c-1.8-0.9-3.4-2-5-3.2C70.9,189.5,70.6,186.8,72,184.9z"
				/>
			<path class="st11" d="M76.1,207.8c0,1.1,0,2.2-0.1,3.3c-0.1,1.5,0,3-0.1,4.5s0,3-0.1,4.5s0,3-0.1,4.5s0,3-0.1,4.5s0,3-0.1,4.5
				s0,3-0.1,4.5c-0.1,1.7-0.1,3.4-0.1,5.1v3.5c-0.1,1.8-0.1,3.7,0,5.5c0.2,2.4,2.3,4.2,4.7,4c0.1,0,0.1,0,0.2,0
				c2.3-0.3,4-2.1,4.1-4.4c0-1.4,0-2.7,0.1-4.1s0-2.9,0.1-4.4s0-3,0.1-4.6s0-2.9,0.1-4.4s0-3,0.1-4.5s0-3,0.1-4.5s0-3,0.1-4.5
				s0-2.9,0.1-4.4s0-3,0.1-4.6v-3.9h-9.1L76.1,207.8L76.1,207.8z"/>
			<path class="st11" d="M67.8,249.9c0-1,0-1.9-0.1-2.9c-0.1-1.4,0-2.9-0.1-4.4s0-3.1-0.1-4.6s0-2.9-0.1-4.4s0-3.1-0.1-4.6
				s0-2.9-0.1-4.4s0-3.1-0.1-4.6s0-2.9-0.1-4.4s0-3.1-0.1-4.6c0-1.1,0-2.3-0.1-3.4h-9v0.7c0.1,1.5,0,3,0.1,4.6s0,2.9,0.1,4.4
				s0,3.1,0.1,4.6s0,2.9,0.1,4.4s0,3,0.1,4.5s0,3,0.1,4.5s0,3,0.1,4.5s0,3,0.1,4.5c0.1,2.4,0.1,4.8,0.1,7.2c0,2.5,2,4.5,4.5,4.5
				c0.2,0,0.4,0,0.5,0c1.9-0.2,3.5-1.6,3.9-3.5C67.8,251.7,67.9,250.8,67.8,249.9z"/>
			<path class="st12" d="M64.3,100.8c0,12.1-22.7,12.3-22.7-0.4"/>
			<path class="st12" d="M82,100.8c0,12.1,22.7,12.3,22.7-0.4"/>
			<path class="st12" d="M79.9,124.5c-1.6,6.3-11.6,6.3-13.5,0.1"/>
			<ellipse class="st5" cx="41.6" cy="121.5" rx="7.7" ry="5.4"/>
			<ellipse class="st5" cx="104.8" cy="121.5" rx="7.7" ry="5.4"/>
			<path class="st3" d="M61.5,54.4c0.1-0.7,0.1-1.5,0-2.2C61.3,51,59,40.9,58.8,36.5C57.9,21.1,66,20.3,68.8,22
				c3.7,2.2,3.2,9.7,3.2,13.4c0,5.6-1.7,13.6-0.5,15s2.9,0.5,2.9-2s0.2-17.8,1.4-25.6c1.7-10.4,6.3-23.7,16-22.8
				c4.5,0.4,10.6,9.2,3.2,23.3c-3.1,5.9-10.1,19.3-10.3,23.1c-0.2,3.5,0.1,6,1.9,8.5s6.2,4.3,6.2,4.3l-31.5-1.3L61.5,54.4z"/>
			<path class="st8" d="M62.3,258.5c3.3,0,5.5,0.4,5.5-2.8v-4.1c-0.2,0-0.4-0.1-0.6-0.1H49.1c-0.2,0-0.5,0-0.7,0.1
				c-1.8,0.4-3,2.2-2.7,4c0.3,1.7,1.7,2.9,3.4,2.9H62.3z"/>
			<path class="st8" d="M80.9,258.4c-3.3,0-5.5,0.4-5.5-2.8v-4.1c0.2,0,0.4-0.1,0.6-0.1h18.1c0.2,0,0.5,0,0.7,0.1
				c1.8,0.4,3,2.2,2.7,4c-0.3,1.7-1.7,2.9-3.4,2.9h-9C83.7,258.5,82.3,258.5,80.9,258.4z"/>
		</g>
	</g>
</g>
</svg>
