<svg id="Layer_1" xmlns="http://www.w3.org/2000/svg" viewBox="696.4 -187 4221.3 550.2"><style>.st0{fill:#bbcb9e}.st1{fill:#dbe7c3}.st2,.st4{stroke-linecap:round;stroke-linejoin:round;stroke-miterlimit:1.5}.st2{fill:#e7f3cf;stroke:#e7f3cf}.st4{stroke:#dcecbd}.st4,.st5{fill:#dcecbd}.st6{stroke:#d2e2b7;stroke-linecap:round;stroke-linejoin:round;stroke-miterlimit:1.5}.st6,.st7{fill:#d2e2b7}.st8{stroke:#ecf7d5;stroke-linecap:round;stroke-linejoin:round;stroke-miterlimit:1.5}.st8,.st9{fill:#ecf7d5}</style><g id="Calque1"><path class="st0" d="M3035-187l15.2 94.8h-30.5L3035-187z"/><path class="st0" d="M2580.8-118.5l8.1 49.6h-16.2l8.1-49.6z" transform="translate(-1.105 -1.447)"/><path class="st0" d="M2609.2-137.7l12.8 54h-25.5l12.7-54z" transform="translate(-1.227 .011)"/><path class="st1" d="M2584.3-97.6l3.2 49h-6.4l3.2-49z" transform="translate(-4.038 -.568)"/><path class="st1" d="M2584.3-97.8l.1.1v.4l.9 12.6 1.1 15.9.6 8.3.6 8.2.2 3.6v.5l-.1.1H2580.6l-.1-.1-.1-.1v-.4l.2-3.1.2-3.4.2-3.6.5-7.6.5-7.7.5-7.3.9-11.6.4-4.7.5-.1zm-.1 4.8l-.6 11.3-.4 7.1-.4 7.4-.4 7.3-.2 3.5-.2 3.3-.3 3.9H2587l-.3-4.3-.5-8-.5-8.1-.9-15.5-.5-9.6-.1 1.7z" transform="translate(-4.038 -.568)"/><path class="st1" d="M2608.3-113.5l4.4 59.2h-8.8l4.4-59.2z"/><path class="st1" d="M2608.4-113.7l.1.1v.4l1.2 15.2 1.6 19.3.8 10.1.8 10 .3 4v.5l-.1.1H2603.5l-.1-.1-.1-.1v-.4l.2-3.4.3-4.2.3-4.4.7-9.2.7-9.3.7-8.8 1.2-14.1.5-5.7h.5zm-.2 5.8l-.9 13.8-.6 8.6-.6 9.1-.6 9-.3 4.3-.3 4.1-.3 4.2h7.8l-.4-4.8-.7-9.7-.7-9.9-1.3-18.9-.9-12.9-.2 3.1zM3034.9-135.5l5.6 80.8h-11.3l5.7-80.8z"/><path class="st1" d="M3034.9-135.6l.1.1h-.2.1v.6l1.5 20.7 1.9 26.2 1 13.7 1 13.5.4 6.1v.5l-.1.1H3028.5l-.1-.1-.1-.1v-.4l.4-5.3.4-5.6.4-6 .9-12.5.9-12.6.9-12 1.4-19.1.6-7.7.7-.1zm-.3 7.8l-1.2 18.8-.8 11.8-.8 12.4-.8 12.2-.4 5.8-.4 5.5-.4 6h10.3l-.5-6.9-.9-13.3-.9-13.5-1.7-25.7-1.2-18.4-.3 5.3z"/><g><path class="st2" d="M3702.4-34.6c.2-11.9-24.9-32.5-58.7-42.6-20.7-6.2-48.7-6.7-64.4-4.3-199.9 30.8-235.5 29.6-285.4 20.1-12.8-2.4-24.8-4.4-36.1-6-17.6-3.3-38.1-5.6-63.7-5.2-25.6-.3-46 1.9-63.7 5.2-11.3 1.6-23.3 3.6-36.1 6-49.9 9.5-85.6 10.7-285.4-20.1-15.7-2.4-43.7-1.9-64.4 4.3-33.8 10.2-58.9 30.7-58.7 42.6.5 27.7-10 54 23.1 74 27.3 16.5 233.3 16.4 335.8 12.2 39.7 1.6 95 2.6 149.4 2.3 54.4.3 109.6-.7 149.4-2.3 102.5 4.1 308.5 4.2 335.8-12.2 33.1-20 22.7-46.3 23.1-74z"/><path class="st2" d="M2885.2-34.3c.2-11.9-24.9-32.5-58.7-42.6-20.7-6.2-48.7-6.7-64.4-4.3-199.9 30.8-235.5 29.6-285.4 20.1-12.8-2.4-24.8-4.4-36.1-6-17.6-3.3-38.1-5.6-63.7-5.2-25.6-.3-46 1.9-63.7 5.2-11.3 1.6-23.3 3.6-36.1 6-49.9 9.5-85.6 10.7-285.4-20.1-15.7-2.4-43.7-1.9-64.4 4.3-33.8 10.2-58.9 30.7-58.7 42.6.5 27.7-10 54 23.1 74 27.3 16.5 233.3 16.4 335.8 12.2 39.7 1.6 95 2.6 149.4 2.3 54.4.3 109.6-.7 149.4-2.3 102.5 4.1 308.5 4.2 335.8-12.2 33.1-20 22.6-46.2 23.1-74z"/><path class="st2" d="M2067.1-34.3c.2-11.9-24.9-32.5-58.7-42.6-20.7-6.2-48.7-6.7-64.4-4.3-199.9 30.8-235.5 29.6-285.4 20.1-12.8-2.4-24.8-4.4-36.1-6-17.6-3.3-38.1-5.6-63.7-5.2-25.6-.3-46 1.9-63.7 5.2-11.3 1.6-23.3 3.6-36.1 6-49.9 9.5-85.6 10.7-285.4-20.1-15.7-2.4-43.7-1.9-64.4 4.3-33.8 10.2-58.9 30.7-58.7 42.6.5 27.7-10 54 23.1 74 27.3 16.5 233.3 16.4 335.8 12.2 39.7 1.6 95 2.6 149.4 2.3 54.4.3 109.6-.7 149.4-2.3 102.5 4.1 308.5 4.2 335.8-12.2 33.1-20 22.6-46.2 23.1-74zM4515.6-34.6c.2-11.9-24.9-32.5-58.7-42.6-20.7-6.2-48.7-6.7-64.4-4.3-199.9 30.8-235.5 29.6-285.4 20.1-12.8-2.4-24.8-4.4-36.1-6-17.6-3.3-38.1-5.6-63.7-5.2-25.6-.3-46 1.9-63.7 5.2-11.3 1.6-23.3 3.6-36.1 6-49.9 9.5-85.6 10.7-285.4-20.1-15.7-2.4-43.7-1.9-64.4 4.3-33.8 10.2-58.9 30.7-58.7 42.6.5 27.7-10 54 23.1 74 27.3 16.5 233.3 16.4 335.8 12.2 39.7 1.6 95 2.6 149.4 2.3 54.4.3 109.6-.7 149.4-2.3 102.5 4.1 308.5 4.2 335.8-12.2 33.1-20 22.7-46.3 23.1-74z"/><path fill="#e7f3cf" d="M3022.2-60.1V-60.4h-.1v-.2h-.1v-.2h-.1v-.1h-.1v-.1h-.1l-.1-.1h-.1v-.1h-.2v-.1h-.2l-.1-.1h-.4l-.1-.1H3019.7l-.1.1h-.5v.1H3018.8v.1h-.2l-.1.1h-.1v.1h-.2v.1h-.1l-.1.1h-.1v.1h-.1v.1h-.1l-.1.1-.1.1-.1.1-.1.1v.1h-.1v.1h-.1v.1-.1l-.2-.1-.1-.2-.1-.2-.1-.1-.1-.1-.1-.2-.2-.2-.1-.2h-.1v-.1h-.1v-.1l-.1-.1-.1-.2-.1-.1-.1-.2h-.1v-.1l-.1-.1-.1-.1v-.1h-.1l-.1-.1v-.1l-.1-.1-.1-.1-.1-.1-.1-.1-.1-.1-.1-.1-.1-.1-.1-.1-.1-.1h-.1v-.1h-.1v-.1h-.1l-.1-.1h-.1v-.1h-.1l-.1-.1h-.1l-.1-.1h-.1l-.1-.1H3012.7v-.1H3011.2v.1h-.2l-.1.1h-.2l-.1.1h-.1l-.1.1h-.1v.1h-.1l-.1.1h-.1v.1h-.1v.1h-.1v.1h-.1v.1h-.1v.2h-.1v.2l-.1.1V-62.6h.1V-62.3h.1v.2h.1v.1l.1.1v.1h.1v.1h.1v.1h.1v.1h.1v.1h.1l.1.1.1.1.1.1h.1v.1h.1l.1.1.1.1h.1l.1.1.2.1.1.1.2.1.1.1.3.2.2.1.2.1.1.1.2.1.1.1.1.1h.1l.1.1.1.1h.1l.1.1.1.1.1.1h.1v.1h.1l.1.1.1.1h.1v.1h.1v.1l.1.1h.1v.1h.1v.1h.1v.1h.1v.1h.1v.1l.1.1v.1h.1v.1l.1.1v.1l.1.1V-57h.1-.1v.2h.1v.4h.1V-56.1h.1v.2h.1v.1h.1v.1h.1v.1h.1v.1h.2v.1h.2v.1h.7v-.1H3017.4l.1-.1H3017.8v-.1h.2l.1-.1h.1l.1-.1H3018.6v-.1H3018.9v-.1h.2v-.1h.1v-.1h.1v-.1h.1v-.2h.1v-.1l.1-.1v-.2l.1-.1v-.1l.1-.1v-.1h.1v-.2h.1v-.2h.1v-.2h.1v-.1h.1v-.1h.1v-.1h.1v-.1h.1v-.1h.2l.1-.1h.2v-.1h.2v-.1h.2v-.1h.1l.1-.1.1-.1v-.1h.1v-.1h.1v-.2h.1v-.2h.1v-.4z"/></g><g><path class="st4" d="M2905.7 38.6c-54.1-1.3-46.7-18.6-163.1-65.7-38.9-15.7-71.9-21.7-99.4-22.1h-6.6c-27.5.4-60.5 6.4-99.4 22.1-116.5 47-109 64.4-163.1 65.7-58.3 1.4-124.4 146.6-38.3 146.4 57.4-.2 197.1-25.8 304.1-25.8s246.7 25.6 304.1 25.8c86.1.2 20-145-38.3-146.4z"/><path class="st4" d="M3438.8 38.6c-54.1-1.3-46.7-18.6-163.1-65.7-38.9-15.7-71.9-21.7-99.4-22.1h-6.6c-27.5.4-60.5 6.4-99.4 22.1-116.5 47-109 64.4-163.1 65.7-58.3 1.4-124.5 146.7-38.3 146.4 57.4-.2 197.1-25.8 304.1-25.8s246.7 25.6 304.1 25.8c86.2.2 20-145-38.3-146.4z"/><path class="st4" d="M3970.4 38.6c-54.1-1.3-251.6-97.8-379-60.9-44.9 13-98.5 59.6-152.6 60.9-58.3 1.4-124.5 146.7-38.3 146.4 57.4-.2 197.1-25.8 304.1-25.8s246.7 25.6 304.1 25.8c86.2.2 20-145-38.3-146.4z"/><path class="st4" d="M4505.6 38.6c-54.1-1.3-125.7-56.5-213.8-51.3-52 3.1-129.7 30.3-173.9 42.1-81.1 21.7-113.7 10.1-144.7 9.4-58.3-1.3-123.7 146.5-37.5 146.2 57.4-.2 197.1-25.8 304.1-25.8s246.7 25.6 304.1 25.8c86.1.2 20-145-38.3-146.4z"/><g><path class="st4" d="M1308.2 38.6c-54.1-1.3-46.7-18.6-163.1-65.7-38.9-15.7-71.9-21.7-99.4-22.1h-6.6c-27.5.4-60.5 6.4-99.4 22.1-116.5 47-109 64.4-163.1 65.7C718.3 40 652.1 185.3 738.3 185c57.4-.2 197.1-25.8 304.1-25.8 107 0 246.7 25.6 304.1 25.8 86.1.2 19.9-145-38.3-146.4z"/><path class="st4" d="M1839.8 38.6c-54.1-1.3-46.7-18.6-163.1-65.7-38.9-15.7-71.9-21.7-99.4-22.1h-6.6c-27.5.4-60.5 6.4-99.4 22.1-116.5 47-109 64.4-163.1 65.7-58.3 1.4-124.5 146.7-38.3 146.4 57.4-.2 197.1-25.8 304.1-25.8s246.7 25.6 304.1 25.8c86.2.2 20-145-38.3-146.4z"/><path class="st4" d="M2374.9 38.6c-54.1-1.3-45.5-12.2-162-59.2-38.9-15.7-89.6-18.8-102.8-18.8-11.3 0-64.7-3.3-103.6 12.4-116.5 47-109 64.4-163.1 65.7-58.3 1.3-124.5 146.5-38.3 146.3 57.4-.2 197.1-25.8 304.1-25.8s246.7 25.6 304.1 25.8c86.1.2 19.9-145-38.4-146.4z"/></g><path class="st5" d="M2698.4-49.7v-.2h-.1V-50.2h-.1v-.1l-.1-.1v-.1h-.1v-.1h-.1v-.1h-.2v-.1h-.2v-.1h-1.2v.1h-.4v.1h-.2l-.1.1h-.2v.1h-.2v.1h-.2l-.1.1h-.1v.1h-.1l-.1.1h-.1l-.1.1-.1.1-.1.1h-.1l-.1.1-.1.1h-.1v.1h-.1v.1h-.1v.1h-.1v.1h-.1v.1h-.1v.1l-.1.1v.1h-.1v.1l-.1.1v.1h-.1v.1l-.1.1v.1l-.1-.1v-.1l-.1-.2v-.1l-.1-.1-.1-.1v-.1l-.1-.1v-.1l-.1-.1-.1-.1v-.2l-.1-.1-.1-.1-.1-.2v-.1l-.1-.1-.1-.1v-.1h-.1v-.1l-.1-.1v-.1l-.1-.1-.1-.1v-.1h-.1v-.1h-.1v-.1l-.1-.1-.1-.1v-.1h-.1v-.1l-.1-.1-.1-.1-.1-.1v-.1h-.1v-.1h-.1l-.1-.1v-.1h-.1v-.1h-.1v-.1h-.1v-.1h-.1l-.1-.1-.1-.1-.1-.1h-.1v-.1h-.1v-.1h-.1l-.1-.1h-.1v-.1h-.1l-.1-.1h-.1l-.1-.1h-.1v-.1h-.2l-.1-.1H2687.8v-.1h-1.3l-.1.1H2686.1l-.1.1h-.2v.1h-.1l-.1.1h-.1v.1h-.1v.1h-.1v.1l-.1.1v.1l-.1.1V-51.8h.1v.2l.1.1v.2h.1v.1l.1.1v.1h.1v.2h.1v.1h.1v.1l.1.1.1.1v.1h.1v.1l.1.1.1.1v.1h.1l.1.1.1.1.1.1.1.1.1.1.1.1.1.1v.1l.1.1.1.1.1.1h.1l.1.1.1.1.1.1.1.1.1.1.1.1.1.1h.1v.1l.1.1h.1l.1.1.1.1.1.1.1.1.1.1v.1l.1.1.1.1h.1l.1.1.1.2.2.1.2.2.1.2.1.1.2.2.1.1.1.1.1.2.1.1.1.1.1.1.1.1.1.1.1.1.1.1.1.1.1-.1-.1.1v.1h.1l2 .6.5.1.1.1.1.1H2694.5v-.1h.1v-.2h.1v-.1h-.1V-44.5h.1V-44.8h.1v-.1l.1-.1v-.1l.1-.1v-.1h.1v-.1h.1v-.2h.1v-.1h.1v-.1h.1v-.1l.1-.1.1-.1v-.1h.1v-.1h.1v-.1h.1v-.1h.1v-.1h.1v-.1h.1v-.1h.1v-.1h.1v-.1h.1l.1-.1.1-.1.1-.1.1-.1h.1v-.1h.1v-.1h.1l.1-.1v-.1h.1l.1-.1.1-.1v-.1h.1v-.1l.1-.1.1-.1v-.1h.1v-.2h.1v-.2l.1-.1V-49.3h.1V-49.6z"/></g><g><path class="st6" d="M3312.9 50.6c-72.3 6.1-128.5-8.6-163.7-21.1-40.1-14.2-80.1-31-142.2-25.1-55.1 5.2-193.3 52.8-323.5 55.8-9.3.2-36.6 147.2 2.6 150.5 51.2 4.2 254.1-13.8 338.6-14.4 70.1-.5 222.3 22.3 247.1 12.8 37.5-14.5 48.5-159.2 41.1-158.5z"/><path class="st6" d="M3870.4 46.5c-72.3 6.1-128.5-8.6-163.7-21.1-40.1-14.2-80.1-31-142.2-25.1-55.1 5.2-193.3 52.8-323.5 55.8-9.3.2-36.6 147.2 2.6 150.5 51.2 4.2 254.1-13.8 338.6-14.4 70.1-.5 222.3 22.3 247.1 12.8 37.5-14.5 48.5-159.1 41.1-158.5z"/><path class="st6" d="M4398.7 46.5c-72.3 6.1-128.5-8.6-163.7-21.1-40.1-14.2-80.1-31-142.2-25.1-55.1 5.2-193.3 52.8-323.5 55.8-9.3.2-36.6 147.2 2.6 150.5 51.2 4.2 254.1-13.8 338.6-14.4 70.1-.5 222.3 22.3 247.1 12.8 37.6-14.5 48.5-159.1 41.1-158.5z"/><path class="st6" d="M4915 48.5c-72.3 6.1-128.5-8.6-163.7-21.1-40.1-14.2-80.1-31-142.2-25.1-55.1 5.2-193.3 52.8-323.5 55.8-9.3.2-36.6 147.2 2.6 150.5 51.2 4.2 254.1-13.8 338.6-14.4 70.1-.5 222.3 22.3 247.1 12.8 37.5-14.4 48.5-159.1 41.1-158.5zM2714.7 58.5c-72.3 6.1-128.5-8.6-163.7-21.1-40.1-14.2-80.1-31-142.2-25.1-55.1 5.2-193.3 52.8-323.5 55.8-9.3.2-36.6 147.2 2.6 150.5 51.2 4.2 254.1-13.8 338.6-14.4 70.1-.5 222.3 22.3 247.1 12.8 37.5-14.5 48.5-159.2 41.1-158.5z"/><path class="st6" d="M2118.6 66.1c-72.3 6.1-128.5-8.6-163.7-21.1-40.1-14.2-80.1-31-142.2-25.1-55.1 5.2-193.3 52.8-323.5 55.8-9.3.2-36.6 147.2 2.6 150.5 51.2 4.2 254.1-13.8 338.6-14.4 70.1-.5 222.3 22.3 247.1 12.8 37.5-14.4 48.5-159.1 41.1-158.5z"/><path class="st7" d="M2712.9 49.1v-.5h-.1v-.2h-.1v-.1h-.1v-.1h-.1v-.1h-.2V48h-.7l-.1.1H2711.2v.1h-.2l-.1.1h-.2v.1h-.2v.1h-.2l-.1.1h-.1v.1l-.1.1h-.1l-.1.1h-.1l-.1.1-.1.1-.1.1h-.1v.1h-.1l-.1.1-.1.1-.1.1-.1.1h-.1v.1l-.1.1h-.1v.1l-.1.1h-.1v.1l-.1.1-.1.1v-.2l.1-.1.1-.1v-.2l.1-.1v-.1l.1-.1v-.1l.1-.1v-.1l.1-.1V49l.1-.1v-.1l.1-.1v-.1l.1-.1v-.2l.1-.1.1-.1V48l.1-.1.1-.2.1-.2.1-.2.2-.2.1-.2.2-.4.3-.4.1-.2.1-.3.1-.2.1-.1.1-.1v-.1l.1-.1.1-.1v-.1l.1-.1v-.1l.1-.1v-.2l.1-.1v-.1l.1-.1.1-.1v-.2l.1-.1v-.2h.1V43.1h.1v-.5l.1-.1V42.2h-.1v-.4h-.1v-.2h-.1v-.1h-.1v-.1l-.1-.1h-.1v-.1h-.2l-.1-.1H2710l-.1.1h-.4l-.1.1h-.2l-.1.1H2708.8l-.1.1h-.2l-.1.1h-.2v.1h-.2l-.1.1h-.1v.1h-.2l-.1.1-.1.1h-.1l-.1.1h-.1v.1h-.1l-.1.1-.1.1h-.1v.1h-.1l-.1.1v.1h-.1v.1h-.1l-.1.1-.1.1v.1h-.1v.1h-.1v.1l-.1.1-.1.1v.1h-.1v.1l-.1.1-.1.1v.1h-.1v.1l-.1.1v.1h-.1v.2h-.1v.1l-.1.1v.1l-.1.1v.1l-.1.1v.1l-.1.1v.1l-.1.1v.1l-.1.1V46.1h-.1v.2l-.1.1v.2l-.1.1v.1l-.1.1V47.2l-.1.2v.1l-.1.2v.1l-.1.2V48.3l-.1.1v.2l-.1.1v.5l-.1.1V49.6l-.1.1V50l-.1.3v.2l-.1.5v.2l-.1.2V51.7l-.1.1V52.1h-.1v-.2l-.1-.1v-.1l-.1-.1v-.1l-.1-.1V51.1h-.1V51l-.1-.2v-.2h-.1V50.3l-.1-.1V50l-.1-.1v-.2l-.1-.1V49.3l-.1-.1v-.4h-.1v-.5l-.1-.1v-.5l-.1-.1v-.7h-.1v-1.2l-.1-.1V40.9l.1-.3V36.9h-.1v-.4l-.1-.1v-.2l-.1-.1V36l-.1-.1v-.1h-.1l-.1-.1h-.1v-.1h-.7v.1h-.2v.1h-.1l-.1.1h-.1v.1h-.1l-.1.1-.1.1h-.1v.1h-.1v.1h-.1v.1l-.1.1-.1.1v.1h-.1v.1l-.1.1v.1h-.1v.1l-.1.1v.1h-.1v.2l-.1.1v.1l-.1.1v.2l-.1.1v.1l-.1.1v.2l-.1.1v.2l-.1.1V39.3l-.1.1v.2l-.1.1v.4l-.1.1v.5l-.1.1v.5l-.1.1V42.1l-.1.1v1.3l-.1.1V48.7l.1.2V50.1l.1.3v1l.1.3V52.6l.1.3v.7l.1.3v.6l.1.3v.3l.1.3v.6l.1.3v.3l.1.2v.6l.1.3v.3l.1.2v.3l.1.3v.3l.1.2v.3l.1.2v.5l.1.3v.2l.1.2v.3l.1.2v.2l.1.2v.2l.1.2v.2l.1.2v.2l.1.2V63.4l.1.2v.2l.1.1v.2l.1.1v.2l.1.1v.2l.1.1v.2h.1v.2h.1v.1l.1.1.1.1.1.1h.2v-.1h.2l.1-.1h.1v-.1h.1l.1-.1h.1v-.1h.1V65h.1l.1-.1.1-.1.1-.1h.1l.1-.1.1-.1.1-.1.1-.1.1-.1.1-.1.1-.2.2-.1.1-.1.2-.2.3-.3.2-.3.2-.1.4-.4.3-.3.3-.3.2-.2.1-.1.2-.2.2-.1.1-.2.2-.2.2-.1.1-.2.2-.2.2-.1.2-.2.1-.2.2-.1.2-.2.2-.2.2-.2.2-.1.2-.2.2-.2.2-.1.1-.1v-.1h.1v-.1h.1v-.1h.1V58h.1v-.1h.1v-.1h.1l.1-.1v-.1h.1v-.1h.1v-.1l.1-.1.1-.1v-.1h.1V57h.1v-.2h.1v-.1h.1v-.2l.1-.1v-.1l.1-.1V56h.1v-.2h.1v-.3l.1-.1v-.1l.1-.1V55l.1-.1v-.1l.1-.1v-.1h.1v-.2h.1v-.1h.1v-.1l.1-.1V54h.1v-.1l.1-.1.1-.1v-.1l.1-.1v-.1l.1-.1h.1v-.1l.1-.2v-.1l.1-.1.1-.1v-.1l.1-.1v-.1l.1-.1.1-.2V52l.1-.1v-.1l.1-.1.1-.2v-.1l.1-.1v-.1l.1-.1V50.8h.1v-.2l.1-.1v-.2l.1-.1V49.9l.1-.1v-.6zM2998.1 3.7l-.2-.1H2993.7V-2.6H2992.1l-.1.1-.1.1-.1.1-.1.1-.1.1-.1.1-.1.1-.1.1-.1.1-.1.1-.1.1-.1.1-.1.1-.1.1-.1.1-.1.1-.1.1-.1.1-.1.1-.1.1-.1.1-.1.1-.1.1-.1.1-.1.1-.1.1-.1.1-.1.1v.1l-.1.1V1.5l-.1.2-.1.2-.1.2-.1.2-.1.2-.1.2-.1.2-.1.2-.2.3-.2.3-.1.3-.1.1-.1.1-.1.1-.1.1-.1.1V4.8v-.2l-.1-.1-.1-.1-.1-.1-.1-.1-.1-.2-.1-.2-.1-.1-.1-.1-.1-.1-.1-.1-.1-.1-.1-.1-.1-.1-.1-.1-.1-.1V1.4l-.1-.1-.1-.1-.1-.1-.1-.1-.1-.1-.1-.1-.1-.1-.1-.1-.1-.1-.1-.1-.1-.1-.1-.1-.1-.1-.1-.1-.1-.1H2983.4v.4l.1.1v.1l.1.1.1.1.1.1.1.1.1.1.1.1.1.1.1.1.1.1.1.1.1.1.1.1.1.1.1.1.1.1.1.1.1.1.1.1.1.1.1.1.1.1.1.1V5.7l.1.2.1.2.1.1.1.1.1.1.1.1.1.1v.7l.1-.1-.1.1 2.4-.3 5.9-.7h.2V5.5H2996.5l1.6-1.8zm-9 .7z"/></g><g><path class="st8" d="M3428.7-105.2s-163.8-96.1-310 29.5c-126.9 109.1-135 308.1-342.3 258.6-106.2-25.3-126.8-84.1-241.7-82.4-17.4.3-288.9 43.2-500.4-147.5-81.2-73.2-232.9-124.7-566.8 14.4-57.4 23.9-358.3 383.4 6.6 354.2 268.1-21.3 289.1-88.6 472.9-93.2 151.7-3.7 328.2 41.6 610.9 82.6 257.7 37.4 222.7-50 431-38.1 162.8 9.3 262.6 76.9 440.1 35.3 130.3-30.4-.3-413.4-.3-413.4z"/><path class="st8" d="M3158.2 300.3c93.6 21.9 169.1 36.7 430-27.4 278.3-68.4 854.3 213.4 1050.4 22 147.5-144 90.3-487.8-92.4-300-288 296.1-420.4 56.1-702.7 103.8-167.5 28.3-246-65.3-372.9-174.3-146.2-125.7-310-29.5-310-29.5s-132.6 374.8-2.4 405.4z"/><path class="st7" d="M3086.1 189.4l17.8-14.3 9.8-2.9 2.1 13.4-19.9 3.9-9.8-.1zM1667.4 222.6l17.8-3.9 2.1-13.4-21.9 5.4-7.8 11.9h9.8z"/><path class="st5" d="M3109.9 1.7l9-5.4 12.2-1.5 6 1.7-.7 6.8-16.8.9-9.7-2.5zM1977.6 14.2l-16.8-.9-.7-6.8 6-1.7 12.2 1.5 9 5.4-9.7 2.5z"/><path class="st0" d="M3670 155c-.4-3.3-.1-3.6 5.5-5.2s9.7-.2 8.8 3.3-1.5 4.4-5.1 4.7c-2.5.1-8.8.5-9.2-2.8z"/><path class="st7" d="M2594.7 205.7c-2.1.8-16.3 3-16.3 3l-1.1-4.3 9.9-6 7.7-2.5 7.1 3.8c0-.1-5.2 5.2-7.3 6zM4081.8 288.2l7.1-3.8 7.7 2.5 9.9 6-1.1 4.3s-14.2-2.2-16.3-3c-2.1-.7-7.3-6-7.3-6z"/><path class="st9" d="M2927.2 166.7c-1.8-3.9-8.8-14.3-7.9-18.3 1.1-5.3 3.3-2.2 5.8 3.9 3 7.2-1.7-15.7 3.8-20 2.6-2 1.9 2.5 4.2 13.6 2.7 12.8.5-6.1 10.7-6.1 1.3 0-2.1 5.5-4.1 17.5-1.7 10.7-10.7 13.3-12.5 9.4zM2669.4 138c-.2-1.8-2.1-11.4 0-16 1.5-3.5 3.6 4 3.8 8.6.1 2.2.9-2.9 3.4-7.4 1.9-3.4 4.9-6.4 7-8 3.3-2.5-1.7 8-2.7 14.8-.5 3 .1-.2 3-2 2.3-1.4 5.6-1.2 7.2-.3 1.8 1.1-.7.2-6 6.9-2 2.6-3.1 7.3-4.1 9.1-2.7 5.1-11.4-3.9-11.6-5.7zM2577.9 105.7c.5-1.6 2.9-3-.1-6.4-3.8-4.4-8.7-6.6-6.8-8.1 5.1-4 9.7 2.6 10.4 6.5.3 1.6.1 3.3.4 2.8 1.3-2.2 5.6-3.5 6.4-1.7 1.5 3.5-1.7 1.9-3.5 3.7-2.1 2-.2 1.7-1 2.8-2.6 3.8-5.8.4-5.8.4z"/><path class="st9" d="M2586.8 97.5H2588.6V99.9H2584.5l-.1-.1h-.4l.2.1h-.1v-.7l.1-.2V95.2l-.1-.1-.1-.1-.1-.1-.1-.1-.1-.1-.1-.1-.1-.1-.1-.1-.1-.1-.1-.1-.1-.1-.1-.1-.1-.1-.1-.1-.1-.1-.1-.1-.1-.1-.1-.1-.1-.1-.1-.1-.1-.1-.1-.1-.1-.1-.1-.1-.1-.1-.1-.1-.1-.1-.1-.1-.1-.1-.1-.1-.1-.1-.1-.1-.1-.1-.1-.1-.1-.1-.1-.1-.1-.1-.1-.1-.1-.1-.1-.1-.2-.2-.2-.2-.2-.2-.2-.2-.2-.1-.2-.1-.2-.1-.3-.3-.3-.3-.2-.1-.2-.1-.2-.1-.1-.1-.1-.1-.1-.1-.1-.1-.1-.1-.1-.1-.1-.1-.1-.1-.1-.1-.1-.1-.1-.1-.1-.1-.1-.1-.1-.1-.1-.1-.1-.1-.1-.1-.1-.1-.1-.1v-1.2H2587l.1.1.1.1.1.1.1.1.1.1.1.1.1.1.1.1.1.1.1.1.1.1.1.1.1.1.1.1.1.1.1.1.1.1.1.1.1.1.1.1.1.1.1.1.1.1v.1l.1.1.1.1.1.1.1.1V93.2H2596.6l-9.8 4.3zM2090.4-14.8h-1.2V-13l.1.1.1.1.1.1.1.1.1.1.1.2.1.2.2.3.2.3.1.2.1.2.1.2.1.2.1.2.1.2.1.2V-2.4l-.1.1-.1.1-.1.1-.1.1-.1.1-.1.1-.1.1-.1.1-.1.1-.1.1-.1.1-.1.1v.6-.2h1.1v-1.3h-1.2V-9.8l.7-5z"/></g></g></svg>