<svg xmlns="http://www.w3.org/2000/svg" viewBox="1863.4 -43.8 4221.3 630.7"><path d="M4202 36.7l15.2 94.8h-30.5l15.3-94.8zM3746.695 103.753l8.1 49.6h-16.2l8.1-49.6zM3774.973 86.011l12.8 54h-25.5l12.7-54z" fill="#bbcb9e"/><g fill="#dbe7c3"><path d="M3747.262 125.532l3.2 49h-6.4l3.2-49z"/><path d="M3747.262 125.332l.1.1v.4l.9 12.6 1.1 15.9.6 8.3.6 8.2.2 3.6v.5l-.1.1H3743.562l-.1-.1-.1-.1v-.4l.2-3.1.2-3.4.2-3.6.5-7.6.5-7.7.5-7.3.9-11.6.4-4.7.5-.1zm-.1 4.8l-.6 11.3-.4 7.1-.4 7.4-.4 7.3-.2 3.5-.2 3.3-.3 3.9H3749.962l-.3-4.3-.5-8-.5-8.1-.9-15.5-.5-9.6-.1 1.7z"/></g><path d="M3775.3 110.2l4.4 59.2h-8.8l4.4-59.2z" fill="#dbe7c3"/><path d="M3775.4 110l.1.1v.4l1.2 15.2 1.6 19.3.8 10.1.8 10 .3 4v.5l-.1.1H3770.5l-.1-.1-.1-.1v-.4l.2-3.4.3-4.2.3-4.4.7-9.2.7-9.3.7-8.8 1.2-14.1.5-5.7h.5zm-.2 5.8l-.9 13.8-.6 8.6-.6 9.1-.6 9-.3 4.3-.3 4.1-.3 4.2h7.8l-.4-4.8-.7-9.7-.7-9.9-1.3-18.9-.9-12.9-.2 3.1zM4201.9 88.2l5.6 80.8h-11.3l5.7-80.8z" fill="#dbe7c3"/><path d="M4201.9 88.1l.1.1h-.2.1v.6l1.5 20.7 1.9 26.2 1 13.7 1 13.5.4 6.1v.5l-.1.1H4195.5l-.1-.1-.1-.1v-.4l.4-5.3.4-5.6.4-6 .9-12.5.9-12.6.9-12 1.4-19.1.6-7.7.7-.1zm-.3 7.8l-1.2 18.8-.8 11.8-.8 12.4-.8 12.2-.4 5.8-.4 5.5-.4 6h10.3l-.5-6.9-.9-13.3-.9-13.5-1.7-25.7-1.2-18.4-.3 5.3z" fill="#dbe7c3"/><g fill="#e7f3cf"><path d="M4869.4 189.1c.2-11.9-24.9-32.5-58.7-42.6-20.7-6.2-48.7-6.7-64.4-4.3-199.9 30.8-235.5 29.6-285.4 20.1-12.8-2.4-24.8-4.4-36.1-6-17.6-3.3-38.1-5.6-63.7-5.2-25.6-.3-46 1.9-63.7 5.2-11.3 1.6-23.3 3.6-36.1 6-49.9 9.5-85.6 10.7-285.4-20.1-15.7-2.4-43.7-1.9-64.4 4.3-33.8 10.2-58.9 30.7-58.7 42.6.5 27.7-10 54 23.1 74 27.3 16.5 233.3 16.4 335.8 12.2 39.7 1.6 95 2.6 149.4 2.3 54.4.3 109.6-.7 149.4-2.3 102.5 4.1 308.5 4.2 335.8-12.2 33.1-20 22.7-46.3 23.1-74z"/><path d="M4084.4 278.2c-93.9 0-190.8-3.8-208.8-14.6-26.6-16.1-25.3-36.3-23.9-57.7.3-5.4.7-11.1.6-16.7-.2-11.9 24-32.5 59.1-43.1 20.4-6.1 48.5-6.8 64.6-4.3 197.3 30.4 235 29.7 285.2 20.1 12.9-2.4 25-4.4 36.1-6 20.2-3.8 41.1-5.5 63.8-5.2 22.4-.3 43.2 1.4 63.8 5.2 11.1 1.6 23.2 3.6 36.1 6 50.2 9.6 87.8 10.3 285.2-20.1 16.1-2.5 44.2-1.8 64.6 4.3 15.8 4.7 30.8 12.1 42.3 20.7 10.8 8.1 16.9 16.3 16.8 22.4-.1 5.6.3 11.1.6 16.5 1.4 21.5 2.7 41.8-24 57.9-28 16.8-236.1 16.3-336.1 12.3-42.7 1.7-98.6 2.6-149.4 2.3-50.9.3-106.7-.6-149.4-2.3-35 1.3-80.8 2.3-127.2 2.3zm-128.8-136.8c-14.3 0-30.8 1.7-43.9 5.6-33.6 10.1-58.5 30.6-58.3 42.1.1 5.7-.3 11.3-.6 16.8-1.3 21.1-2.6 41 23.5 56.8 26.7 16.1 229.5 16.5 335.5 12.1 42.7 1.7 98.6 2.6 149.4 2.3 50.8.3 106.6-.6 149.4-2.3 106.1 4.2 309 3.8 335.6-12.1 26.2-15.8 24.9-35.8 23.5-57-.4-5.4-.7-11-.6-16.6.2-11.6-24.7-32.1-58.3-42.1-20.2-6.1-48.2-6.7-64.2-4.3-197.5 30.4-235.2 29.7-285.6 20.1-12.8-2.4-25-4.4-36.1-6-20.5-3.8-41.3-5.6-63.6-5.2-22.6-.3-43.5 1.4-63.6 5.2-11.1 1.6-23.3 3.6-36.1 6-50.4 9.6-88.1 10.3-285.6-20.1-5.7-.9-12.8-1.3-20.4-1.3z"/><path d="M4052.2 189.4c.2-11.9-24.9-32.5-58.7-42.6-20.7-6.2-48.7-6.7-64.4-4.3-199.9 30.8-235.5 29.6-285.4 20.1-12.8-2.4-24.8-4.4-36.1-6-17.6-3.3-38.1-5.6-63.7-5.2-25.6-.3-46 1.9-63.7 5.2-11.3 1.6-23.3 3.6-36.1 6-49.9 9.5-85.6 10.7-285.4-20.1-15.7-2.4-43.7-1.9-64.4 4.3-33.8 10.2-58.9 30.7-58.7 42.6.5 27.7-10 54 23.1 74 27.3 16.5 233.3 16.4 335.8 12.2 39.7 1.6 95 2.6 149.4 2.3 54.4.3 109.6-.7 149.4-2.3 102.5 4.1 308.5 4.2 335.8-12.2 33.1-20 22.6-46.2 23.1-74z"/><path d="M3267.2 278.5c-93.9 0-190.8-3.8-208.8-14.6-26.6-16.1-25.3-36.3-23.9-57.7.3-5.4.7-11.1.6-16.7-.2-11.9 24-32.5 59.1-43.1 20.4-6.1 48.5-6.8 64.6-4.3 197.3 30.4 235 29.7 285.2 20.1 12.9-2.4 25-4.4 36.1-6 20.2-3.8 41.1-5.5 63.8-5.2 22.4-.4 43.2 1.4 63.8 5.2 11.1 1.6 23.2 3.6 36.1 6 50.2 9.6 87.8 10.3 285.2-20.1 16.1-2.5 44.2-1.8 64.6 4.3 15.8 4.7 30.8 12.1 42.3 20.7 10.8 8.1 16.9 16.3 16.8 22.4-.1 5.7.3 11.3.6 16.8 1.4 21.4 2.6 41.6-23.9 57.7-28 16.8-236.1 16.3-336.1 12.3-42.8 1.7-98.6 2.6-149.4 2.3-50.9.3-106.7-.6-149.4-2.3-35.1 1.2-80.9 2.2-127.3 2.2zm-128.8-136.8c-14.3 0-30.8 1.7-43.9 5.6-33.6 10.1-58.5 30.6-58.3 42.1.1 5.7-.3 11.3-.6 16.8-1.3 21.1-2.6 41 23.5 56.8 26.7 16.1 229.5 16.5 335.5 12.1 42.7 1.7 98.6 2.6 149.4 2.3 50.8.3 106.6-.6 149.4-2.3 106.1 4.2 309 3.8 335.6-12.1 26.1-15.8 24.8-35.7 23.5-56.7-.3-5.5-.7-11.1-.6-16.9.2-11.6-24.7-32.1-58.3-42.1-20.2-6.1-48.2-6.7-64.2-4.3-197.5 30.4-235.2 29.7-285.6 20.1-12.8-2.4-25-4.4-36.1-6-20.5-3.8-41.3-5.5-63.6-5.2-22.7-.3-43.5 1.4-63.6 5.2-11.1 1.6-23.3 3.6-36.1 6-50.4 9.6-88.1 10.3-285.6-20.1-5.8-.9-12.8-1.3-20.4-1.3z"/><path d="M3234.1 189.4c.2-11.9-24.9-32.5-58.7-42.6-20.7-6.2-48.7-6.7-64.4-4.3-199.9 30.8-235.5 29.6-285.4 20.1-12.8-2.4-24.8-4.4-36.1-6-17.6-3.3-38.1-5.6-63.7-5.2-25.6-.3-46 1.9-63.7 5.2-11.3 1.6-23.3 3.6-36.1 6-49.9 9.5-85.6 10.7-285.4-20.1-15.7-2.4-43.7-1.9-64.4 4.3-33.8 10.2-58.9 30.7-58.7 42.6.5 27.7-10 54 23.1 74 27.3 16.5 233.3 16.4 335.8 12.2 39.7 1.6 95 2.6 149.4 2.3 54.4.3 109.6-.7 149.4-2.3 102.5 4.1 308.5 4.2 335.8-12.2 33.1-20 22.6-46.2 23.1-74z"/><path d="M2449.1 278.5c-93.9 0-190.8-3.8-208.8-14.6-26.6-16.1-25.3-36.3-23.9-57.7.3-5.4.7-11.1.6-16.7-.2-11.9 24-32.5 59.1-43.1 20.4-6.1 48.5-6.8 64.6-4.3 197.3 30.4 235 29.7 285.2 20.1 12.9-2.4 25-4.4 36.1-6 20.2-3.8 41.1-5.5 63.8-5.2 22.4-.4 43.2 1.4 63.8 5.2 11.1 1.6 23.2 3.6 36.1 6 50.2 9.6 87.8 10.3 285.2-20.1 16.1-2.5 44.2-1.8 64.6 4.3 15.8 4.7 30.8 12.1 42.3 20.7 10.8 8.1 16.9 16.3 16.8 22.4-.1 5.7.3 11.3.6 16.8 1.4 21.4 2.6 41.6-23.9 57.7-28 16.8-236.1 16.3-336.1 12.3-42.8 1.7-98.6 2.6-149.4 2.3-50.9.3-106.7-.6-149.4-2.3-35.1 1.2-80.9 2.2-127.3 2.2zm-128.8-136.8c-14.3 0-30.8 1.7-43.9 5.6-33.6 10.1-58.5 30.6-58.3 42.1.1 5.7-.3 11.3-.6 16.8-1.3 21.1-2.6 41 23.5 56.8 26.7 16.1 229.5 16.5 335.5 12.1 42.7 1.7 98.6 2.6 149.4 2.3 50.8.3 106.6-.6 149.4-2.3 106.1 4.2 309 3.8 335.6-12.1 26.1-15.8 24.8-35.7 23.5-56.7-.3-5.5-.7-11.1-.6-16.9.2-11.6-24.7-32.1-58.3-42.1-20.2-6.1-48.2-6.7-64.2-4.3-197.5 30.4-235.2 29.7-285.6 20.1-12.8-2.4-25-4.4-36.1-6-20.5-3.8-41.3-5.5-63.6-5.2-22.6-.3-43.5 1.4-63.6 5.2-11.1 1.6-23.3 3.6-36.1 6-50.4 9.6-88.1 10.3-285.6-20.1-5.8-.9-12.8-1.3-20.4-1.3z"/><g><path d="M5682.6 189.1c.2-11.9-24.9-32.5-58.7-42.6-20.7-6.2-48.7-6.7-64.4-4.3-199.9 30.8-235.5 29.6-285.4 20.1-12.8-2.4-24.8-4.4-36.1-6-17.6-3.3-38.1-5.6-63.7-5.2-25.6-.3-46 1.9-63.7 5.2-11.3 1.6-23.3 3.6-36.1 6-49.9 9.5-85.6 10.7-285.4-20.1-15.7-2.4-43.7-1.9-64.4 4.3-33.8 10.2-58.9 30.7-58.7 42.6.5 27.7-10 54 23.1 74 27.3 16.5 233.3 16.4 335.8 12.2 39.7 1.6 95 2.6 149.4 2.3 54.4.3 109.6-.7 149.4-2.3 102.5 4.1 308.5 4.2 335.8-12.2 33.1-20 22.7-46.3 23.1-74z"/><path d="M4897.6 278.2c-93.9 0-190.8-3.8-208.8-14.6-26.6-16.1-25.3-36.3-23.9-57.7.3-5.4.7-11.1.6-16.7-.2-11.9 24-32.5 59.1-43.1 20.4-6.1 48.5-6.8 64.6-4.3 197.3 30.4 235 29.7 285.2 20.1 12.9-2.4 25-4.4 36.1-6 20.2-3.8 41.1-5.5 63.8-5.2 22.4-.4 43.2 1.4 63.8 5.2 11.1 1.6 23.3 3.6 36.1 6 50.2 9.6 87.8 10.3 285.2-20.1 16.1-2.5 44.2-1.8 64.6 4.3 15.8 4.7 30.8 12.1 42.3 20.7 10.8 8.1 16.9 16.3 16.8 22.4-.1 5.6.3 11.1.6 16.5 1.4 21.5 2.7 41.8-24 57.9-28 16.8-236.1 16.3-336.1 12.3-42.7 1.7-98.6 2.6-149.4 2.3-50.9.3-106.7-.6-149.4-2.3-35 1.3-80.8 2.3-127.2 2.3zm-128.8-136.8c-14.3 0-30.8 1.7-43.9 5.6-33.6 10.1-58.5 30.6-58.3 42.1.1 5.7-.3 11.3-.6 16.8-1.3 21.1-2.6 41 23.5 56.8 26.7 16.1 229.5 16.5 335.5 12.1 42.7 1.7 98.6 2.6 149.4 2.3 50.8.3 106.6-.6 149.4-2.3 106.1 4.2 309 3.8 335.6-12.1 26.2-15.8 24.9-35.8 23.5-57-.4-5.4-.7-11-.6-16.6.2-11.6-24.7-32.1-58.3-42.1-20.2-6.1-48.2-6.7-64.2-4.3-197.5 30.4-235.2 29.7-285.6 20.1-12.8-2.4-25-4.4-36.1-6-20.5-3.8-41.3-5.5-63.6-5.2-22.6-.3-43.5 1.4-63.6 5.2-11.1 1.6-23.3 3.6-36.1 6-50.4 9.6-88.1 10.3-285.6-20.1-5.7-.9-12.8-1.3-20.4-1.3z"/></g><path d="M4189.2 163.6V163.3h-.1v-.2h-.1v-.2h-.1v-.1h-.1v-.1h-.1l-.1-.1h-.1v-.1h-.2v-.1h-.2l-.1-.1h-.4l-.1-.1H4186.7l-.1.1h-.5v.1H4185.8v.1h-.2l-.1.1h-.1v.1h-.2v.1h-.1l-.1.1h-.1v.1h-.1v.1h-.1l-.1.1-.1.1-.1.1-.1.1v.1h-.1v.1h-.1v.1-.1l-.2-.1-.1-.2-.1-.2-.1-.1-.1-.1-.1-.2-.2-.2-.1-.2h-.1v-.1h-.1v-.1l-.1-.1-.1-.2-.1-.1-.1-.2h-.1v-.1l-.1-.1-.1-.1v-.1h-.1l-.1-.1v-.1l-.1-.1-.1-.1-.1-.1-.1-.1-.1-.1-.1-.1-.1-.1-.1-.1-.1-.1h-.1v-.1h-.1v-.1h-.1l-.1-.1h-.1v-.1h-.1l-.1-.1h-.1l-.1-.1h-.1l-.1-.1H4179.7v-.1H4178.2v.1h-.2l-.1.1h-.2l-.1.1h-.1l-.1.1h-.1v.1h-.1l-.1.1h-.1v.1h-.1v.1h-.1v.1h-.1v.1h-.1v.2h-.1v.2l-.1.1V161.1h.1V161.4h.1v.2h.1v.1l.1.1v.1h.1v.1h.1v.1h.1v.1h.1v.1h.1l.1.1.1.1.1.1h.1v.1h.1l.1.1.1.1h.1l.1.1.2.1.1.1.2.1.1.1.3.2.2.1.2.1.1.1.2.1.1.1.1.1h.1l.1.1.1.1h.1l.1.1.1.1.1.1h.1v.1h.1l.1.1.1.1h.1v.1h.1v.1l.1.1h.1v.1h.1v.1h.1v.1h.1v.1h.1v.1l.1.1v.1h.1v.1l.1.1v.1l.1.1V166.7h.1-.1v.2h.1v.4h.1V167.6h.1v.2h.1v.1h.1v.1h.1v.1h.1v.1h.2v.1h.2v.1h.7v-.1H4184.4l.1-.1H4184.8v-.1h.2l.1-.1h.1l.1-.1H4185.6v-.1H4185.9v-.1h.2v-.1h.1v-.1h.1v-.1h.1v-.2h.1v-.1l.1-.1v-.2l.1-.1v-.1l.1-.1v-.1h.1v-.2h.1v-.2h.1v-.2h.1v-.1h.1v-.1h.1v-.1h.1v-.1h.1v-.1h.2l.1-.1h.2v-.1h.2v-.1h.2v-.1h.1l.1-.1.1-.1v-.1h.1v-.1h.1v-.2h.1v-.2h.1v-.4z"/></g><g fill="#dcecbd"><path d="M4072.7 262.3c-54.1-1.3-46.7-18.6-163.1-65.7-38.9-15.7-71.9-21.7-99.4-22.1h-6.6c-27.5.4-60.5 6.4-99.4 22.1-116.5 47-109 64.4-163.1 65.7-58.3 1.4-124.4 146.6-38.3 146.4 57.4-.2 197.1-25.8 304.1-25.8s246.7 25.6 304.1 25.8c86.1.2 20-145-38.3-146.4z"/><path d="M4111.2 409.2h-.2c-24.1-.1-62.6-4.6-107.1-9.9-63.2-7.5-134.8-15.9-197-15.9s-133.8 8.5-197 15.9c-44.6 5.3-83 9.8-107.1 9.9h-.2c-26.5 0-41.3-14.1-41.7-39.6-.3-20.7 9.4-47.4 25.3-69.8 16.9-23.8 36.9-37.6 54.8-38.1 30.6-.7 41-6.4 66.2-20.1 19.5-10.6 46.2-25.2 96.7-45.5 35.3-14.2 68.8-21.7 99.6-22.1h6.6c30.8.4 64.3 7.9 99.6 22.1 50.2 20.3 76.9 34.8 96.4 45.4 25.3 13.8 35.8 19.5 66.5 20.2 17.9.4 37.9 14.3 54.8 38.1 15.9 22.3 25.6 49 25.3 69.8-.2 25.5-15 39.6-41.5 39.6zm-304.3-26.8c62.2 0 133.9 8.5 197.1 15.9 44.5 5.3 83 9.8 107 9.9h.2c25.9 0 40.3-13.7 40.7-38.6.6-42.4-41-105.9-79.1-106.8-30.9-.7-42.2-6.9-66.9-20.3-19.5-10.6-46.2-25.1-96.3-45.4-35.2-14.2-68.6-21.6-99.2-22.1h-6.6c-30.7.4-64 7.9-99.2 22.1-50.4 20.3-77.1 34.9-96.6 45.5-24.6 13.4-35.9 19.5-66.7 20.3-38.1.9-79.7 64.4-79.1 106.8.3 24.9 14.8 38.6 40.7 38.6h.2c24-.1 62.5-4.6 107-9.9 62.9-7.5 134.6-16 196.8-16z"/><path d="M4605.8 262.3c-54.1-1.3-46.7-18.6-163.1-65.7-38.9-15.7-71.9-21.7-99.4-22.1h-6.6c-27.5.4-60.5 6.4-99.4 22.1-116.5 47-109 64.4-163.1 65.7-58.3 1.4-124.5 146.7-38.3 146.4 57.4-.2 197.1-25.8 304.1-25.8s246.7 25.6 304.1 25.8c86.2.2 20-145-38.3-146.4z"/><path d="M4035.6 409.2c-26.5 0-41.3-14-41.6-39.5-.3-20.7 9.4-47.5 25.3-69.8 16.9-23.8 36.9-37.7 54.9-38.1 30.6-.7 41-6.4 66.2-20.1 19.5-10.6 46.2-25.2 96.7-45.5 35.3-14.2 68.8-21.7 99.6-22.1h6.6c30.8.4 64.3 7.9 99.6 22.1 50.2 20.3 76.9 34.8 96.4 45.4 25.3 13.8 35.8 19.5 66.5 20.2 17.9.4 37.9 14.3 54.8 38.1 15.9 22.3 25.6 49 25.3 69.8-.3 25.5-15.1 39.6-41.7 39.6h-.2c-24.1-.1-62.6-4.6-107.1-9.9-63.2-7.5-134.8-15.9-197-15.9-62.2 0-133.8 8.5-197 15.9-44.6 5.3-83 9.8-107.1 9.9 0-.1-.1-.1-.2-.1zM4336.7 175c-30.7.4-64 7.9-99.2 22.1-50.4 20.3-77.1 34.9-96.6 45.5-24.6 13.4-35.9 19.5-66.7 20.3-38.2.9-79.8 64.5-79.2 106.9.3 24.8 14.8 38.5 40.6 38.5h.3c24-.1 62.5-4.6 107-9.9 63.2-7.5 134.9-15.9 197.1-15.9s133.9 8.5 197.1 15.9c44.5 5.3 83 9.8 107 9.9h.2c25.9 0 40.4-13.7 40.7-38.6.6-42.4-41.1-105.9-79.2-106.8-30.9-.7-42.2-6.9-66.9-20.3-19.5-10.6-46.2-25.1-96.3-45.4-35.2-14.2-68.6-21.6-99.2-22.1h-6.7v-.1z"/><path d="M5137.4 262.3c-54.1-1.3-251.6-97.8-379-60.9-44.9 13-98.5 59.6-152.6 60.9-58.3 1.4-124.5 146.7-38.3 146.4 57.4-.2 197.1-25.8 304.1-25.8s246.7 25.6 304.1 25.8c86.2.2 20-145-38.3-146.4z"/><path d="M4567.2 409.2c-26.5 0-41.3-14-41.6-39.5-.3-20.7 9.4-47.5 25.3-69.8 16.9-23.8 36.9-37.7 54.9-38.1 33-.8 65.3-18.2 96.6-35.1 19.7-10.6 38.4-20.7 55.8-25.7 38.9-11.3 87.4-11.3 148.1 0 51.8 9.6 103.8 25.9 145.5 38.9 38.4 12 68.8 21.5 85.5 21.9 17.9.4 37.9 14.3 54.8 38.1 15.9 22.3 25.6 49 25.3 69.8-.3 25.5-15.1 39.6-41.7 39.6h-.2c-24.1-.1-62.6-4.6-107.1-9.9-63.2-7.5-134.8-15.9-197-15.9-62.2 0-133.8 8.5-197 15.9-44.6 5.3-83 9.8-107.1 9.9.1-.1 0-.1-.1-.1zm256.9-215.7c-24.5 0-46.2 2.8-65.6 8.4-17.4 5-36 15.1-55.6 25.7-31.4 16.9-63.9 34.5-97.1 35.3-38.2.9-79.8 64.5-79.2 106.9.3 24.8 14.8 38.5 40.6 38.5h.3c24-.1 62.5-4.6 107-9.9 63.2-7.5 134.9-15.9 197.1-15.9s133.9 8.5 197.1 15.9c44.5 5.3 83 9.8 107 9.9h.2c25.9 0 40.4-13.7 40.7-38.6.6-42.4-41.1-105.9-79.2-106.8-16.9-.4-47.3-9.9-85.8-22-41.7-13.1-93.6-29.3-145.4-38.9-30.3-5.7-57.6-8.5-82.1-8.5z"/><g><path d="M5672.6 262.3c-54.1-1.3-125.7-56.5-213.8-51.3-52 3.1-129.7 30.3-173.9 42.1-81.1 21.7-113.7 10.1-144.7 9.4-58.3-1.3-123.7 146.5-37.5 146.2 57.4-.2 197.1-25.8 304.1-25.8s246.7 25.6 304.1 25.8c86.1.2 20-145-38.3-146.4z"/><path d="M5102.4 409.2c-17.4 0-29.6-5.9-36.3-17.7-12.3-21.5-2.2-57.2 13.2-83 13.6-22.8 36.7-47.1 61-46.5 6.8.2 13.8.8 21.2 1.6 26.8 2.6 60.2 5.9 123.3-11 11-2.9 24.2-6.9 38.2-11 43.1-12.8 96.7-28.8 135.8-31.1 51.7-3.1 97.5 14.6 137.9 30.1 28.8 11.1 53.6 20.7 76 21.2 17.9.4 37.9 14.3 54.8 38.1 15.9 22.3 25.6 49 25.3 69.7-.3 25.5-15.1 39.6-41.7 39.6h-.2c-24.1-.1-62.6-4.6-107.1-9.9-63.2-7.5-134.8-15.9-197-15.9-62.2 0-133.8 8.5-197 15.9-44.6 5.3-83 9.8-107.1 9.9h-.3zm37.1-146.2c-15.6 0-39.2 12.1-59.4 46-15.2 25.6-25.2 60.9-13.1 82 6.5 11.4 18.4 17.1 35.5 17.1h.3c24-.1 62.5-4.6 107-9.9 63.2-7.5 134.9-15.9 197.1-15.9s133.9 8.5 197.1 15.9c44.5 5.3 83 9.8 107 9.9 26 .1 40.5-13.6 40.8-38.6.6-42.4-41-105.9-79.1-106.8-22.5-.5-47.4-10.1-76.3-21.3-40.3-15.5-86-33.1-137.5-30-39 2.3-92.6 18.3-135.6 31.1-14 4.2-27.2 8.1-38.2 11-63.3 16.9-96.8 13.6-123.7 11-7.4-.7-14.3-1.4-21.2-1.6-.2.1-.5.1-.7.1z"/></g><g><path d="M2475.2 262.3c-54.1-1.3-46.7-18.6-163.1-65.7-38.9-15.7-71.9-21.7-99.4-22.1h-6.6c-27.5.4-60.5 6.4-99.4 22.1-116.5 47-109 64.4-163.1 65.7-58.3 1.4-124.5 146.7-38.3 146.4 57.4-.2 197.1-25.8 304.1-25.8s246.7 25.6 304.1 25.8c86.1.2 19.9-145-38.3-146.4z"/><path d="M1905 409.2c-26.5 0-41.3-14-41.6-39.5-.3-20.7 9.4-47.5 25.3-69.8 16.9-23.8 36.9-37.7 54.9-38.1 30.6-.7 41-6.4 66.2-20.1 19.5-10.6 46.2-25.2 96.7-45.5 35.3-14.2 68.8-21.7 99.6-22.1h6.6c30.8.4 64.3 7.9 99.6 22.1 50.2 20.3 76.9 34.8 96.4 45.4 25.3 13.8 35.8 19.5 66.5 20.2 17.9.4 37.9 14.3 54.8 38.1 15.9 22.3 25.6 49.1 25.3 69.8-.3 25.5-15.1 39.6-41.6 39.6h-.2c-24.1-.1-62.6-4.6-107.1-9.9-63.2-7.5-134.8-15.9-197-15.9s-133.8 8.5-197 15.9c-44.6 5.3-83 9.8-107.1 9.9-.1-.1-.2-.1-.3-.1zM2206.1 175c-30.7.4-64 7.9-99.2 22.1-50.4 20.3-77.1 34.9-96.6 45.5-24.6 13.4-35.9 19.5-66.7 20.3-38.2.9-79.8 64.5-79.2 106.9.3 24.8 14.8 38.5 40.6 38.5h.3c24-.1 62.5-4.6 107-9.9 63.2-7.5 134.9-15.9 197.1-15.9s133.9 8.5 197.1 15.9c44.5 5.3 83 9.8 107 9.9h.2c25.9 0 40.3-13.7 40.6-38.6.6-42.4-41-105.9-79.1-106.8-30.9-.7-42.2-6.9-66.9-20.3-19.5-10.6-46.2-25.1-96.3-45.4-35.2-14.2-68.6-21.6-99.2-22.1h-6.7v-.1z"/><path d="M3006.8 262.3c-54.1-1.3-46.7-18.6-163.1-65.7-38.9-15.7-71.9-21.7-99.4-22.1h-6.6c-27.5.4-60.5 6.4-99.4 22.1-116.5 47-109 64.4-163.1 65.7-58.3 1.4-124.5 146.7-38.3 146.4 57.4-.2 197.1-25.8 304.1-25.8s246.7 25.6 304.1 25.8c86.2.2 20-145-38.3-146.4z"/><path d="M2436.6 409.2c-26.5 0-41.3-14-41.6-39.5-.3-20.7 9.4-47.5 25.3-69.8 16.9-23.8 36.9-37.7 54.9-38.1 30.6-.7 41-6.4 66.2-20.1 19.5-10.6 46.2-25.2 96.7-45.5 35.3-14.2 68.8-21.7 99.6-22.1h6.6c30.8.4 64.3 7.9 99.6 22.1 50.2 20.3 76.9 34.8 96.4 45.4 25.3 13.8 35.8 19.5 66.5 20.2 17.9.4 37.9 14.3 54.8 38.1 15.9 22.3 25.6 49 25.3 69.8-.3 25.5-15.1 39.6-41.7 39.6h-.2c-24.1-.1-62.6-4.6-107.1-9.9-63.2-7.5-134.8-15.9-197-15.9s-133.8 8.5-197 15.9c-44.6 5.3-83 9.8-107.1 9.9 0-.1-.1-.1-.2-.1zM2737.7 175c-30.7.4-64 7.9-99.2 22.1-50.4 20.3-77.1 34.9-96.6 45.5-24.6 13.4-35.9 19.5-66.7 20.3-38.1.8-79.8 64.4-79.2 106.8.3 24.8 14.8 38.5 40.6 38.5h.3c24-.1 62.5-4.6 107-9.9 63.2-7.5 134.9-15.9 197.1-15.9 62.2 0 133.9 8.5 197.1 15.9 44.5 5.3 83 9.8 107 9.9h.2c25.9 0 40.4-13.7 40.7-38.6.6-42.4-41.1-105.9-79.2-106.8-30.9-.7-42.2-6.9-66.9-20.3-19.5-10.6-46.2-25.1-96.3-45.4-35.2-14.2-68.6-21.6-99.2-22.1h-6.7z"/><g><path d="M3541.9 262.3c-54.1-1.3-45.5-12.2-162-59.2-38.9-15.7-89.6-18.8-102.8-18.8-11.3 0-64.7-3.3-103.6 12.4-116.5 47-109 64.4-163.1 65.7-58.3 1.3-124.5 146.5-38.3 146.3 57.4-.2 197.1-25.8 304.1-25.8s246.7 25.6 304.1 25.8c86.1.2 19.9-145-38.4-146.4z"/><path d="M2971.9 409.2c-26.6 0-41.4-14.1-41.7-39.6-.3-20.7 9.5-47.4 25.3-69.7 16.9-23.7 36.9-37.6 54.8-38 30.6-.7 41-6.4 66.2-20.1 19.5-10.6 46.2-25.2 96.7-45.5 34.7-14 81.1-12.9 98.5-12.5 2.2.1 4 .1 5.2.1 14.6 0 64.9 3.5 103 18.8 44 17.8 69.8 30.2 88.6 39.3 30.4 14.7 39.6 19.1 73.2 19.9 17.9.4 37.9 14.3 54.9 38.1 15.9 22.3 25.6 49.1 25.3 69.8-.3 25.5-15.1 39.5-41.6 39.5h-.2c-24.1-.1-62.6-4.6-107.1-9.9-63.2-7.5-134.8-15.9-197-15.9s-133.8 8.5-197 15.9c-44.6 5.3-83 9.8-107.1 9.9.1-.1.1-.1 0-.1zm304.3-26.8c62.2 0 133.9 8.5 197.1 15.9 44.5 5.3 83 9.8 107 9.9h.2c25.9 0 40.3-13.7 40.6-38.6.6-42.4-41.1-105.9-79.2-106.8-33.8-.8-43-5.3-73.6-20-18.8-9.1-44.6-21.5-88.6-39.2-38-15.3-88.1-18.8-102.6-18.8-1.3 0-3 0-5.3-.1-17.4-.4-63.7-1.5-98.2 12.5-50.4 20.3-77.1 34.9-96.6 45.5-24.6 13.4-35.9 19.5-66.7 20.3-38.1.8-79.7 64.3-79.2 106.6.3 24.9 14.8 38.7 40.7 38.7h.2c24-.1 62.5-4.6 107-9.9 63.3-7.5 135-16 197.2-16z"/></g></g><path d="M3865.4 174v-.2h-.1V173.5h-.1v-.1l-.1-.1v-.1h-.1v-.1h-.1v-.1h-.2v-.1h-.2v-.1h-1.2v.1h-.4v.1h-.2l-.1.1h-.2v.1h-.2v.1h-.2l-.1.1h-.1v.1h-.1l-.1.1h-.1l-.1.1-.1.1-.1.1h-.1l-.1.1-.1.1h-.1v.1h-.1v.1h-.1v.1h-.1v.1h-.1v.1h-.1v.1l-.1.1v.1h-.1v.1l-.1.1v.1h-.1v.1l-.1.1v.1l-.1-.1v-.1l-.1-.2v-.1l-.1-.1-.1-.1v-.1l-.1-.1v-.1l-.1-.1-.1-.1v-.2l-.1-.1-.1-.1-.1-.2v-.1l-.1-.1-.1-.1v-.1h-.1v-.1l-.1-.1v-.1l-.1-.1-.1-.1v-.1h-.1v-.1h-.1v-.1l-.1-.1-.1-.1v-.1h-.1v-.1l-.1-.1-.1-.1-.1-.1v-.1h-.1v-.1h-.1l-.1-.1v-.1h-.1v-.1h-.1v-.1h-.1v-.1h-.1l-.1-.1-.1-.1-.1-.1h-.1v-.1h-.1v-.1h-.1l-.1-.1h-.1v-.1h-.1l-.1-.1h-.1l-.1-.1h-.1v-.1h-.2l-.1-.1H3854.8v-.1h-1.3l-.1.1H3853.1l-.1.1h-.2v.1h-.1l-.1.1h-.1v.1h-.1v.1h-.1v.1l-.1.1v.1l-.1.1V171.9h.1v.2l.1.1v.2h.1v.1l.1.1v.1h.1v.2h.1v.1h.1v.1l.1.1.1.1v.1h.1v.1l.1.1.1.1v.1h.1l.1.1.1.1.1.1.1.1.1.1.1.1.1.1v.1l.1.1.1.1.1.1h.1l.1.1.1.1.1.1.1.1.1.1.1.1.1.1h.1v.1l.1.1h.1l.1.1.1.1.1.1.1.1.1.1v.1l.1.1.1.1h.1l.1.1.1.2.2.1.2.2.1.2.1.1.2.2.1.1.1.1.1.2.1.1.1.1.1.1.1.1.1.1.1.1.1.1.1.1.1-.1-.1.1v.1h.1l2 .6.5.1.1.1.1.1H3861.5v-.1h.1v-.2h.1v-.1h-.1V179.2h.1V178.9h.1v-.1l.1-.1v-.1l.1-.1v-.1h.1v-.1h.1v-.2h.1v-.1h.1v-.1h.1v-.1l.1-.1.1-.1v-.1h.1v-.1h.1v-.1h.1v-.1h.1v-.1h.1v-.1h.1v-.1h.1v-.1h.1v-.1h.1l.1-.1.1-.1.1-.1.1-.1h.1v-.1h.1v-.1h.1l.1-.1v-.1h.1l.1-.1.1-.1v-.1h.1v-.1l.1-.1.1-.1v-.1h.1v-.2h.1v-.2l.1-.1V174.4h.1V174.1z"/></g><g fill="#d2e2b7"><path d="M4479.9 274.3c-72.3 6.1-128.5-8.6-163.7-21.1-40.1-14.2-80.1-31-142.2-25.1-55.1 5.2-193.3 52.8-323.5 55.8-9.3.2-36.6 147.2 2.6 150.5 51.2 4.2 254.1-13.8 338.6-14.4 70.1-.5 222.3 22.3 247.1 12.8 37.5-14.5 48.5-159.2 41.1-158.5z"/><path d="M4415.6 435.6c-24.7 0-63.4-3.5-103.6-7.2-44.2-4-89.9-8.2-120.2-7.9-37.2.3-98.3 4-157.3 7.5-75 4.5-152.6 9.2-181.3 6.9-10.4-.9-22.4-12.2-20.9-61.1 1.2-37.9 11.8-90.3 18.3-90.4 85-2 174.5-23.2 239.8-38.7 36-8.5 64.5-15.3 83.6-17.1 57.3-5.4 95.7 8.4 132.9 21.7 3.2 1.1 6.4 2.3 9.5 3.4 52.6 18.7 107.6 25.8 163.5 21.1 1.1-.1 1.6 1.4 1.9 2.6 2 8.7.5 43.3-6.6 80.1-4.9 25.4-16.1 69.1-36.1 76.8-4.5 1.6-12.6 2.3-23.5 2.3zM4194 419.5c30.4 0 74.9 4 118 8 57.9 5.3 112.6 10.2 126.6 4.9 34.1-13.2 46.5-137.4 42.1-155.8-.4-1.5-.8-1.8-.8-1.8-56 4.7-111.1-2.4-163.9-21.1-3.2-1.1-6.4-2.3-9.5-3.4-37.1-13.3-75.4-27.1-132.4-21.7-19.1 1.8-47.5 8.5-83.5 17.1-65.4 15.5-155 36.8-240 38.7-4.5.1-16 46-17.3 89.4-.7 21.7 1 58.5 20 60.1 28.6 2.3 106.2-2.3 181.2-6.9 59.1-3.6 120.2-7.3 157.4-7.5h2.1z"/><path d="M5037.4 270.2c-72.3 6.1-128.5-8.6-163.7-21.1-40.1-14.2-80.1-31-142.2-25.1-55.1 5.2-193.3 52.8-323.5 55.8-9.3.2-36.6 147.2 2.6 150.5 51.2 4.2 254.1-13.8 338.6-14.4 70.1-.5 222.3 22.3 247.1 12.8 37.5-14.5 48.5-159.1 41.1-158.5z"/><path d="M4973.1 431.5c-24.7 0-63.4-3.5-103.6-7.2-44.2-4-89.9-8.2-120.2-7.9-37.2.3-98.3 4-157.3 7.5-75 4.5-152.6 9.2-181.3 6.9-10.4-.9-22.4-12.2-20.9-61.1 1.2-37.9 11.8-90.3 18.3-90.4 85-2 174.5-23.2 239.8-38.7 36-8.5 64.5-15.3 83.6-17.1 57.3-5.4 95.7 8.4 132.9 21.7 3.2 1.1 6.4 2.3 9.5 3.4 52.6 18.7 107.6 25.8 163.5 21.1 1.1-.1 1.6 1.5 1.9 2.6 4 17.3-7.1 143-42.8 156.8-4.4 1.7-12.5 2.4-23.4 2.4zm-221.6-16.1c30.4 0 74.9 4 118 8 57.9 5.3 112.6 10.2 126.6 4.9 19.5-7.6 30.6-50.8 35.5-75.9 7-36 8.6-71.3 6.7-79.8-.4-1.6-.7-1.9-.8-1.9-56 4.7-111.1-2.4-163.9-21.1-3.2-1.1-6.4-2.3-9.5-3.4-37.1-13.3-75.4-27.1-132.4-21.7-19.1 1.8-47.5 8.5-83.5 17.1-65.4 15.5-155 36.8-240 38.7-4.5.1-16 46-17.3 89.4-.7 21.7 1 58.5 20 60.1 28.6 2.3 106.2-2.3 181.2-6.9 59.1-3.6 120.2-7.3 157.4-7.5h2z"/><path d="M5565.7 270.2c-72.3 6.1-128.5-8.6-163.7-21.1-40.1-14.2-80.1-31-142.2-25.1-55.1 5.2-193.3 52.8-323.5 55.8-9.3.2-36.6 147.2 2.6 150.5 51.2 4.2 254.1-13.8 338.6-14.4 70.1-.5 222.3 22.3 247.1 12.8 37.6-14.5 48.5-159.1 41.1-158.5z"/><path d="M5501.4 431.5c-24.7 0-63.4-3.5-103.6-7.2-44.2-4-89.9-8.2-120.2-7.9-37.2.3-98.3 4-157.3 7.5-75 4.5-152.6 9.2-181.3 6.9-10.4-.9-22.4-12.2-20.9-61.1 1.2-37.9 11.8-90.3 18.3-90.4 85-2 174.5-23.2 239.8-38.7 36-8.5 64.5-15.3 83.6-17.1 57.3-5.4 95.7 8.4 132.9 21.7 3.2 1.1 6.4 2.3 9.5 3.4 52.6 18.7 107.6 25.8 163.5 21.1 1.1-.1 1.6 1.5 1.9 2.7 4 17.4-7.1 143.1-42.8 156.8-4.4 1.6-12.5 2.3-23.4 2.3zm-221.6-16.1c30.4 0 74.9 4 118 8 57.9 5.3 112.6 10.2 126.6 4.9 19.6-7.5 30.7-50.8 35.5-75.8 7-35.9 8.6-71.3 6.6-79.8-.4-1.6-.7-1.9-.8-1.9-56 4.7-111.1-2.4-163.9-21.1-3.2-1.1-6.4-2.3-9.5-3.4-37.1-13.3-75.4-27.1-132.4-21.7-19.1 1.8-47.5 8.5-83.5 17.1-65.4 15.5-155 36.8-240 38.7-4.5.1-16 46-17.3 89.4-.7 21.7 1 58.5 20 60.1 28.6 2.3 106.2-2.3 181.2-6.9 59.1-3.6 120.2-7.3 157.4-7.5.6-.1 1.3-.1 2.1-.1z"/><path d="M6082 272.2c-72.3 6.1-128.5-8.6-163.7-21.1-40.1-14.2-80.1-31-142.2-25.1-55.1 5.2-193.3 52.8-323.5 55.8-9.3.2-36.6 147.2 2.6 150.5 51.2 4.2 254.1-13.8 338.6-14.4 70.1-.5 222.3 22.3 247.1 12.8 37.5-14.4 48.5-159.1 41.1-158.5z"/><path d="M6017.7 433.5c-24.7 0-63.4-3.5-103.6-7.2-44.2-4-89.9-8.2-120.2-7.9-37.2.3-98.3 4-157.3 7.5-75 4.5-152.6 9.2-181.3 6.9-10.4-.9-22.4-12.2-20.9-61.1 1.2-37.9 11.8-90.3 18.3-90.4 85-2 174.5-23.2 239.8-38.7 36-8.5 64.5-15.3 83.6-17.1 57.3-5.4 95.7 8.4 132.9 21.7 3.2 1.1 6.4 2.3 9.5 3.4 52.6 18.7 107.6 25.8 163.5 21.1 1.1-.1 1.6 1.5 1.9 2.7 4 17.4-7.2 143.1-42.8 156.8-4.4 1.6-12.5 2.3-23.4 2.3zm-221.6-16.1c30.4 0 74.9 4 118 8 57.9 5.3 112.6 10.2 126.6 4.9 19.5-7.5 30.6-50.7 35.5-75.8 7-36 8.6-71.3 6.7-79.8-.4-1.6-.7-1.9-.8-1.9-56 4.7-111.1-2.4-163.9-21.1-3.2-1.1-6.4-2.3-9.5-3.4-37.1-13.3-75.4-27.1-132.4-21.7-19.1 1.8-47.5 8.5-83.5 17.1-65.4 15.5-155 36.8-240 38.7-4.5.1-16 46-17.3 89.4-.7 21.7 1 58.5 20 60.1 28.6 2.3 106.2-2.3 181.2-6.9 59.1-3.6 120.2-7.3 157.4-7.5.5-.1 1.2-.1 2-.1z"/><g><path d="M3881.7 282.2c-72.3 6.1-128.5-8.6-163.7-21.1-40.1-14.2-80.1-31-142.2-25.1-55.1 5.2-193.3 52.8-323.5 55.8-9.3.2-36.6 147.2 2.6 150.5 51.2 4.2 254.1-13.8 338.6-14.4 70.1-.5 222.3 22.3 247.1 12.8 37.5-14.5 48.5-159.2 41.1-158.5z"/><path d="M3817.4 443.5c-24.7 0-63.4-3.5-103.6-7.2-44.2-4-89.9-8.2-120.2-7.9-37.2.3-98.3 4-157.3 7.5-75 4.5-152.6 9.2-181.3 6.9-10.4-.9-22.4-12.2-20.9-61.1 1.2-37.9 11.8-90.3 18.3-90.4 85-2 174.5-23.2 239.8-38.7 36-8.5 64.5-15.3 83.6-17.1 57.3-5.4 95.7 8.4 132.9 21.7 3.2 1.1 6.4 2.3 9.5 3.4 52.6 18.7 107.6 25.8 163.5 21.1 1.1-.1 1.6 1.4 1.9 2.6 2 8.7.5 43.3-6.6 80.1-4.9 25.4-16.1 69.1-36.1 76.8-4.5 1.6-12.6 2.3-23.5 2.3zm-221.6-16.1c30.4 0 74.9 4 118 8 57.9 5.3 112.6 10.2 126.6 4.9 34.1-13.2 46.5-137.4 42.1-155.8-.4-1.5-.7-1.8-.8-1.8-56 4.7-111.1-2.4-163.9-21.1-3.2-1.1-6.4-2.3-9.5-3.4-37.1-13.3-75.4-27.1-132.4-21.7-19.1 1.8-47.5 8.5-83.5 17.1-65.4 15.5-155 36.8-240 38.7-4.5.1-16 46-17.3 89.4-.7 21.7 1 58.5 20 60.1 28.6 2.3 106.2-2.3 181.2-6.9 59.1-3.6 120.2-7.3 157.4-7.5h2.1z"/></g><g><path d="M3285.6 289.8c-72.3 6.1-128.5-8.6-163.7-21.1-40.1-14.2-80.1-31-142.2-25.1-55.1 5.2-193.3 52.8-323.5 55.8-9.3.2-36.6 147.2 2.6 150.5 51.2 4.2 254.1-13.8 338.6-14.4 70.1-.5 222.3 22.3 247.1 12.8 37.5-14.4 48.5-159.1 41.1-158.5z"/><path d="M3221.3 451.1c-24.7 0-63.4-3.5-103.6-7.2-44.2-4-89.9-8.2-120.2-7.9-37.2.3-98.3 4-157.3 7.5-75 4.5-152.6 9.2-181.3 6.9-10.4-.9-22.4-12.2-20.9-61.1 1.2-37.9 11.8-90.3 18.3-90.4 85-2 174.5-23.2 239.8-38.7 36-8.5 64.5-15.3 83.6-17.1 57.3-5.4 95.7 8.4 132.9 21.7 3.2 1.1 6.4 2.3 9.5 3.4 52.6 18.7 107.6 25.8 163.5 21.1 1.1-.1 1.6 1.5 1.9 2.7 4 17.4-7.2 143.1-42.8 156.8-4.4 1.6-12.5 2.3-23.4 2.3zM2999.7 435c30.4 0 74.9 4 118 8 57.9 5.3 112.6 10.2 126.6 4.9 19.5-7.5 30.6-50.7 35.5-75.8 7-36 8.6-71.3 6.7-79.8-.4-1.6-.8-1.9-.8-1.9-56 4.7-111.1-2.4-163.9-21.1-3.2-1.1-6.4-2.3-9.5-3.4-37.1-13.3-75.4-27.1-132.4-21.7-19.1 1.8-47.5 8.5-83.5 17.1-65.4 15.5-155 36.8-240 38.7-4.5.1-16 46-17.3 89.4-.7 21.7 1 58.5 20 60.1 28.6 2.3 106.2-2.3 181.2-6.9 59.1-3.6 120.2-7.3 157.4-7.5.5-.1 1.2-.1 2-.1z"/></g><path d="M3879.9 272.8v-.5h-.1v-.2h-.1v-.1h-.1v-.1h-.1v-.1h-.2v-.1h-.7l-.1.1H3878.2v.1h-.2l-.1.1h-.2v.1h-.2v.1h-.2l-.1.1h-.1v.1l-.1.1h-.1l-.1.1h-.1l-.1.1-.1.1-.1.1h-.1v.1h-.1l-.1.1-.1.1-.1.1-.1.1h-.1v.1l-.1.1h-.1v.1l-.1.1h-.1v.1l-.1.1-.1.1v-.2l.1-.1.1-.1v-.2l.1-.1v-.1l.1-.1v-.1l.1-.1v-.1l.1-.1v-.1l.1-.1v-.1l.1-.1v-.1l.1-.1v-.2l.1-.1.1-.1v-.1l.1-.1.1-.2.1-.2.1-.2.2-.2.1-.2.2-.4.3-.4.1-.2.1-.3.1-.2.1-.1.1-.1v-.1l.1-.1.1-.1v-.1l.1-.1v-.1l.1-.1v-.2l.1-.1v-.1l.1-.1.1-.1v-.2l.1-.1v-.2h.1V266.8h.1v-.5l.1-.1V265.9h-.1v-.4h-.1v-.2h-.1v-.1h-.1v-.1l-.1-.1h-.1v-.1h-.2l-.1-.1H3877l-.1.1h-.4l-.1.1h-.2l-.1.1H3875.8l-.1.1h-.2l-.1.1h-.2v.1h-.2l-.1.1h-.1v.1h-.2l-.1.1-.1.1h-.1l-.1.1h-.1v.1h-.1l-.1.1-.1.1h-.1v.1h-.1l-.1.1v.1h-.1v.1h-.1l-.1.1-.1.1v.1h-.1v.1h-.1v.1l-.1.1-.1.1v.1h-.1v.1l-.1.1-.1.1v.1h-.1v.1l-.1.1v.1h-.1v.2h-.1v.1l-.1.1v.1l-.1.1v.1l-.1.1v.1l-.1.1v.1l-.1.1v.1l-.1.1V269.8h-.1v.2l-.1.1v.2l-.1.1v.1l-.1.1V270.9l-.1.2v.1l-.1.2v.1l-.1.2V272l-.1.1v.2l-.1.1v.5l-.1.1V273.3l-.1.1V273.7l-.1.3v.2l-.1.5v.2l-.1.2V275.4l-.1.1V275.8h-.1v-.2l-.1-.1v-.1l-.1-.1v-.1l-.1-.1V274.8h-.1v-.1l-.1-.2v-.2h-.1V274l-.1-.1v-.2l-.1-.1v-.2l-.1-.1V273l-.1-.1v-.4h-.1v-.5l-.1-.1v-.5l-.1-.1v-.7h-.1v-1.2l-.1-.1V264.6l.1-.3V260.6h-.1v-.4l-.1-.1v-.2l-.1-.1v-.1l-.1-.1v-.1h-.1l-.1-.1h-.1v-.1h-.7v.1h-.2v.1h-.1l-.1.1h-.1v.1h-.1l-.1.1-.1.1h-.1v.1h-.1v.1h-.1v.1l-.1.1-.1.1v.1h-.1v.1l-.1.1v.1h-.1v.1l-.1.1v.1h-.1v.2l-.1.1v.1l-.1.1v.2l-.1.1v.1l-.1.1v.2l-.1.1v.2l-.1.1V263l-.1.1v.2l-.1.1v.4l-.1.1v.5l-.1.1v.5l-.1.1V265.8l-.1.1v1.3l-.1.1V272.4l.1.2V273.8l.1.3v1l.1.3V276.3l.1.3v.7l.1.3v.6l.1.3v.3l.1.3v.6l.1.3v.3l.1.2v.6l.1.3v.3l.1.2v.3l.1.3v.3l.1.2v.3l.1.2v.5l.1.3v.2l.1.2v.3l.1.2v.2l.1.2v.2l.1.2v.2l.1.2v.2l.1.2V287.1l.1.2v.2l.1.1v.2l.1.1v.2l.1.1v.2l.1.1v.2h.1v.2h.1v.1l.1.1.1.1.1.1h.2v-.1h.2l.1-.1h.1v-.1h.1l.1-.1h.1v-.1h.1v-.1h.1l.1-.1.1-.1.1-.1h.1l.1-.1.1-.1.1-.1.1-.1.1-.1.1-.1.1-.2.2-.1.1-.1.2-.2.3-.3.2-.3.2-.1.4-.4.3-.3.3-.3.2-.2.1-.1.2-.2.2-.1.1-.2.2-.2.2-.1.1-.2.2-.2.2-.1.2-.2.1-.2.2-.1.2-.2.2-.2.2-.2.2-.1.2-.2.2-.2.2-.1.1-.1v-.1h.1v-.1h.1v-.1h.1v-.1h.1v-.1h.1v-.1h.1l.1-.1v-.1h.1v-.1h.1v-.1l.1-.1.1-.1v-.1h.1v-.1h.1v-.2h.1v-.1h.1v-.2l.1-.1v-.1l.1-.1v-.2h.1v-.2h.1v-.3l.1-.1v-.1l.1-.1v-.2l.1-.1v-.1l.1-.1v-.1h.1v-.2h.1v-.1h.1v-.1l.1-.1v-.1h.1v-.1l.1-.1.1-.1v-.1l.1-.1v-.1l.1-.1h.1v-.1l.1-.2v-.1l.1-.1.1-.1v-.1l.1-.1v-.1l.1-.1.1-.2v-.1l.1-.1v-.1l.1-.1.1-.2v-.1l.1-.1v-.1l.1-.1V274.5h.1v-.2l.1-.1v-.2l.1-.1V273.6l.1-.1v-.6zM4165.1 225.9l-.2-.1H4160.7V219.6H4159.1l-.1.1-.1.1-.1.1-.1.1-.1.1-.1.1-.1.1-.1.1-.1.1-.1.1-.1.1-.1.1-.1.1-.1.1-.1.1-.1.1-.1.1-.1.1-.1.1-.1.1-.1.1-.1.1-.1.1-.1.1-.1.1-.1.1-.1.1-.1.1v.1l-.1.1V223.7l-.1.2-.1.2-.1.2-.1.2-.1.2-.1.2-.1.2-.1.2-.2.3-.2.3-.1.3-.1.1-.1.1-.1.1-.1.1-.1.1V227v-.2l-.1-.1-.1-.1-.1-.1-.1-.1-.1-.2-.1-.2-.1-.1-.1-.1-.1-.1-.1-.1-.1-.1-.1-.1-.1-.1-.1-.1-.1-.1V223.6l-.1-.1-.1-.1-.1-.1-.1-.1-.1-.1-.1-.1-.1-.1-.1-.1-.1-.1-.1-.1-.1-.1-.1-.1-.1-.1-.1-.1-.1-.1H4150.4v.4l.1.1v.1l.1.1.1.1.1.1.1.1.1.1.1.1.1.1.1.1.1.1.1.1.1.1.1.1.1.1.1.1.1.1.1.1.1.1.1.1.1.1.1.1.1.1.1.1V227.9l.1.2.1.2.1.1.1.1.1.1.1.1.1.1v.7l.1-.1-.1.1 2.4-.3 5.9-.7h.2V227.7H4163.5l1.6-1.8zm-9 .7z"/></g><g><g fill="#ecf7d5"><path d="M4625.6-5.2s-166-100.1-312.2 25.5c-126.9 109.1-162.7 435.8-370 386.3-106.2-25.3-126.8-84.1-241.7-82.4-17.4.3-288.9 43.2-500.4-147.5-81.2-73.2-232.9-124.7-566.8 14.4-57.4 23.9-358.3 383.4 6.6 354.2 268.1-21.3 289.1-88.6 472.9-93.2 151.7-3.7 328.2 41.6 610.9 82.6 257.7 37.4 222.7-50 431-38.1 162.8 9.3 262.6 76.9 440.1 35.3 130.3-30.4 29.6-537.1 29.6-537.1z"/><path d="M2601.2 547.5c-79.3 0-124.9-22.8-135.8-68-13.8-57 32.1-134.4 60.7-175.4 40.2-57.7 88.4-105.2 108.2-113.5 150.8-62.8 278.1-92 378.4-86.9 77.4 4 139.2 27.7 188.9 72.5 82.6 74.5 183.8 122.2 300.8 141.9 92.4 15.6 166.8 8.4 191.2 6.1 4-.4 6.7-.6 8-.7 67-1 102.7 18.9 140.5 40 28 15.6 57 31.8 101.3 42.4 31.9 7.6 60.5 6.7 87.4-2.8 24-8.5 46.1-23.6 67.5-46.2 39.9-42 71.1-104 101.4-163.9 33.3-66 67.8-134.3 113.2-173.4 33.4-28.7 70.6-47.9 110.7-57.1 32-7.3 65.9-8.3 100.6-2.9 59.2 9.2 101 34.2 101.4 34.4.1.1.2.2.2.3.3 1.3 25.3 128.2 34.1 257.2 5.2 75.8 3.8 137.5-4.1 183.3-9.9 57.5-30 90.2-60 97.2-113.1 26.5-194.7 8.7-281-10.1-49.2-10.7-100.1-21.8-159.2-25.2-93.2-5.3-138.1 9.4-181.4 23.6-55.1 18.1-107.2 35.2-249.6 14.5-94.7-13.7-178-28-251.4-40.7-144.5-24.8-258.6-44.4-359.4-41.9-87.7 2.2-138.1 18.6-196.5 37.6-63.9 20.8-136.3 44.4-276.4 55.5-13.9 1.6-27.2 2.2-39.7 2.2zm388.4-443.3c-96.4 0-215.6 29.3-354.9 87.4-19.7 8.1-67.6 55.5-107.7 113.1-28.5 40.9-74.2 117.9-60.6 174.6 12.5 51.8 71.3 73.8 174.6 65.6 140-11.1 212.3-34.7 276.1-55.5 58.4-19 108.9-35.5 196.8-37.7 100.9-2.5 215.1 17.1 359.6 42 73.5 12.6 156.7 26.9 251.4 40.6 142.2 20.6 194.1 3.6 249.2-14.4 43.5-14.3 88.4-29 181.8-23.7 59.2 3.4 110.1 14.5 159.4 25.2 86.2 18.8 167.7 36.5 280.6 10.1 29.5-6.9 49.4-39.3 59.2-96.3 7.9-45.8 9.2-107.4 4.1-183.1-8.6-126.4-32.8-250.8-34-256.9-3.1-1.8-44-25.3-100.9-34.2-34.6-5.4-68.4-4.4-100.3 2.9-39.9 9.1-76.9 28.3-110.2 56.9-45.3 38.9-79.7 107.1-113 173.1-30.3 60-61.6 122-101.6 164.1-21.6 22.7-43.8 37.9-67.9 46.4-27.1 9.6-55.9 10.5-88 2.8-44.5-10.6-73.5-26.8-101.6-42.5-37.7-21-73.2-40.9-140-39.9-1.3 0-3.9.3-7.9.7-24.5 2.3-99 9.5-191.5-6.1-117.2-19.7-218.6-67.6-301.3-142.2-49.5-44.7-111.1-68.3-188.3-72.3-7.6-.5-15.3-.7-23.1-.7z"/></g><g fill="#ecf7d5"><path d="M4325.2 524c93.6 21.9 169.1 36.7 430-27.4 278.3-68.4 854.3 213.4 1050.4 22 147.5-144 90.3-487.8-92.4-300-288 296.1-420.4 56.1-702.7 103.8-167.5 28.3-240-205.1-366.9-314.1-146.2-125.7-333.9 269.8-333.9 269.8S4195 493.4 4325.2 524z"/><path d="M5585.7 586.9c-9.3 0-18.8-.2-28.7-.5-103.7-3.8-224.2-27.6-340.8-50.5-84.7-16.7-172.3-33.9-251.2-43-88.4-10.1-157-8.7-209.7 4.2-120.6 29.6-208.9 44.2-277.8 46-61.3 1.5-101.8-6.7-152.4-18.6-26-6.1-44.2-20.1-54-41.7-16.9-37.3-5.6-91 6.8-129.5 13.5-41.7 31.1-75 31.3-75.4.3-.6 32.1-67.2 78.8-136.2 27.5-40.5 54.6-73.9 80.8-99.3 32.7-31.8 63.9-51 92.8-57.1 29.8-6.3 57.5 1.3 82.3 22.6 42.8 36.8 79.8 88.1 115.5 137.8 36.3 50.5 70.6 98.1 110.7 132.2 21.5 18.3 42.6 30.8 64.4 38.3 24.4 8.4 49.3 10.2 75.9 5.7 102-17.2 183.2 2.8 261.7 22.1 68.1 16.8 132.5 32.6 202.6 20.6 78.4-13.4 154-59.9 238.1-146.4 41.7-42.9 80.4-61.2 111.8-53 26.6 7 47 32.9 57.6 72.9 10.9 41.1 10.2 93.1-1.8 142.8-9.4 38.9-29.9 94.4-74.5 137.9-27.3 26.6-62.2 44.9-106.9 55.9-32.6 8.2-69.9 12.2-113.3 12.2zm-726.1-101.7c31.6 0 66.6 2.2 105.5 6.7 79 9.1 166.6 26.3 251.3 43 116.5 23 237 46.7 340.6 50.5 55.8 2.1 102.2-1.7 141.8-11.5 44.5-11 79.3-29.2 106.4-55.7 24.5-23.9 57.3-67.2 74.2-137.4 12-49.6 12.6-101.4 1.8-142.3-10.5-39.7-30.7-65.4-56.9-72.2-31-8.1-69.4 10.1-110.8 52.7-84.2 86.6-160 133.2-238.6 146.6-70.3 12-134.8-3.8-203-20.6-78.4-19.3-159.5-39.3-261.3-22.1-26.8 4.5-51.8 2.6-76.4-5.8-22-7.5-43.1-20.1-64.7-38.4-40.1-34.1-74.5-81.8-110.8-132.4-35.8-49.6-72.7-101-115.4-137.6-24.6-21.1-52-28.7-81.4-22.4-28.6 6.1-59.7 25.2-92.3 56.8-26.1 25.3-53.2 58.7-80.7 99.2-46.7 68.9-78.4 135.4-78.8 136.1-.2.4-17.8 33.6-31.2 75.2-12.4 38.4-23.6 91.8-6.9 128.8 9.6 21.2 27.5 35.1 53.3 41.1 50.5 11.8 91 20.1 152.1 18.5 68.8-1.7 157.1-16.3 277.6-45.9 29.7-7.3 64.3-10.9 104.6-10.9z"/></g><path d="M4253.1 413.1l17.8-14.3 9.8-2.9 2.1 13.4-19.9 3.9-9.8-.1zM2834.4 446.3l17.8-3.9 2.1-13.4-21.9 5.4-7.8 11.9h9.8z" fill="#d2e2b7"/><path d="M4276.9 225.4l9-5.4 12.2-1.5 6 1.7-.7 6.8-16.8.9-9.7-2.5zM3144.6 237.9l-16.8-.9-.7-6.8 6-1.7 12.2 1.5 9 5.4-9.7 2.5z" fill="#dcecbd"/><path d="M4837 378.7c-.4-3.3-.1-3.6 5.5-5.2s9.7-.2 8.8 3.3-1.5 4.4-5.1 4.7c-2.5.1-8.8.5-9.2-2.8z" fill="#bbcb9e"/><path d="M3761.7 429.4c-2.1.8-16.3 3-16.3 3l-1.1-4.3 9.9-6 7.7-2.5 7.1 3.8c0-.1-5.2 5.2-7.3 6zM5248.8 511.9l7.1-3.8 7.7 2.5 9.9 6-1.1 4.3s-14.2-2.2-16.3-3c-2.1-.7-7.3-6-7.3-6z" fill="#d2e2b7"/><path d="M4094.2 386.4c-1.8-3.9-8.8-14.3-7.9-18.3 1.1-5.3 3.3-2.2 5.8 3.9 3 7.2-1.7-15.7 3.8-20 2.6-2 1.9 2.5 4.2 13.6 2.7 12.8.5-6.1 10.7-6.1 1.3 0-2.1 5.5-4.1 17.5-1.7 10.7-10.7 13.3-12.5 9.4z" fill="#ecf7d5"/><path d="M4110.9 358.5h.1V360.7l-.1.2-.1.2-.1.2-.1.2-.1.2-.1.5-.2.5-.2.5-.1.3-.1.3-.1.3-.1.3-.1.3-.1.3-.1.3-.1.3-.1.2-.1.2-.1.2-.1.2-.1.2-.1.2-.1.2-.1.2-.1.2-.1.2-.1.2-.1.2-.1.2-.1.2-.1.2-.1.2-.1.2-.1.2-.1.2-.1.2-.1.2-.1.2-.1.2-.1.2-.1.2-.1.2-.1.2-.1.2-.1.2-.1.2-.1.2-.1.2-.1.2-.1.2-.1.2-.1.2-.1.3-.1.3-.1.3V381.4l-.1.1-.1.1-.1.1-.1.1-.1.1-.1.1-.1.1-.1.1-.1.1-.1.1-.1.1-.1.1-.1.1-.1.1-.1.1-.1.1-.1.1-.1.1-.1.1-.1.1-.1.1-.1.1-.1.1-.1.1-.1.1-.1.1-.1.1-.1.1-.1.1-.1.1-.1.1-.1.1-.1.1-.1.1-.1.1-.1.1-.1.1-.1.1-.1.1-.1.1-.1.1-.1.1-.1.1-.1.1-.1.1-.1.1-.1.1-.1.1-.1.1-.1.1-.1.1-.1.1-.1.1-.1.1-.1.1-.1.1-.1.1-.1.1-.1.1-.1.1h-.1l-.1.1H4087.8V386l-.1-.1-.1-.1-.1-.1-.1-.1-.1-.1-.1-.1-.1-.1-.1-.1-.1-.1-.1-.2-.1-.2-.1-.3-.1-.3-.2-.3-.2-.3-.2-.3-.3-.6-.3-.6-.3-.6-.2-.3-.2-.3-.2-.3-.2-.3-.2-.3-.2-.3-.2-.3-.2-.3-.2-.3-.1-.2-.1-.2-.1-.2-.1-.2-.1-.2-.1-.2-.1-.2-.1-.2-.1-.2-.1-.2-.1-.2-.1-.2-.1-.2-.1-.2-.1-.2-.1-.2-.1-.2-.1-.2-.1-.2-.1-.2-.1-.2-.1-.2-.1-.2-.1-.2-.1-.2-.1-.2-.1-.2-.1-.2-.1-.2-.1-.2-.1-.2-.1-.2-.1-.2-.1-.2-.1-.2-.1-.2-.1-.2-.1-.2-.1-.2-.1-.2-.1-.2V366.2v2.5V365.9l.1.1.1.1.1.1.1.1.1.1.1.1.1.1.1.1.1.1.1.1.1.1.1.1.1.1.1.1.1.1.1.1.1.1.1.1.1.1.1.1.1.1.1.1.1.1.1.1.1.1.1.1.1.1.1.1.1.1.1.1.1.1.1.1.1.1.1.1.1.1.1.1.1.1.1.1.1.1.1.1.1.1.1.1.1.1.1.1.1.1.1.1.1.1.1.1.1.1.1.1.1.1.1.1.1.1.1.1v.1V354.9l.1-.1h.1l.1-.1h.1V359.3l.1.6.1.7.1.4.1.4.1.4.1.4.1.4.1.4.1.4.1.4V367l.1.2.1.3.1.3.1.3.1.3.1.3.1.3.1.3.1.2.1.2.1.2v.9l.1-.2.1-.3.1-.3v-.1l.1-.2.1-.2.1-.2.1-.2.1-.2.1-.2.1-.2.1-.2.1-.2.1-.2V365.1l.1-.1.1-.1.1-.1.1-.1.1-.1.1-.1.1-.1.1-.1.1-.1.1-.1.1-.1.1-.1.1-.1.1-.1.1-.1.1-.1.1-.1.1-.1.1-.1.1-.1.1-.1.1-.1.1-.1.1-.1.1-.1.1-.1.1-.1.1-.1.1-.1.1-.1.1-.1.1-.1.1-.1.1-.1.1-.1.1-.1.1-.1.1-.1.1-.1.1-.1.1-.1.1-.1H4110.9v-2.4zm-14.1-6.3l-.1.1h-.1V372.8H4095.2V371.1l-.1-.3-.1-.3-.1-.3-.1-.1-.1-.1-.1-.1-.1-.1-.1-.1-.1-.1-.1-.1-.1-.1-.1-.1-.1-.1-.1-.1-.1-.1-.1-.1-.1-.1-.1-.1-.1-.1-.1-.1-.1-.1-.1-.1-.1-.1-.1-.1-.1-.1-.1-.1-.1-.1-.1-.1-.1-.1-.1-.1-.1-.1-.1-.1-.1-.1-.1-.1-.1-.1-.1-.1-.1-.1V365.3 370.3l.1.1.1.1.1.1.1.2.1.1.1.2.1.2.1.2.1.2.1.2.1.2.1.2.1.2.1.2.1.2.1.2.1.2.1.2.1.2.1.2.1.2.1.2.1.2.1.2.1.2.1.2.1.2.1.2.1.2.1.2.1.2.1.2.1.2.1.2.1.2.1.2.1.2.1.2.1.2.2.3.2.3.2.3.2.3.2.3.2.3.2.3.2.3.2.3.3.6.3.6.3.6.2.3.2.3.2.3.1.3.1.3.1.3.1.2.1.1.1.1.1.1.1.1.1.1.1.1.1.1.1.1.1.1.1.1.1.1V385.6H4107.1l.1-.1h.1l.1-.1h.1l.1-.1.1-.1.1-.1.1-.1.1-.1.1-.1.1-.1.1-.1.1-.1.1-.1.1-.1.1-.1.1-.1.1-.1.1-.1.1-.1.1-.1.1-.1.1-.1.1-.1.1-.1.1-.1.1-.1.1-.1.1-.1.1-.1.1-.1.1-.1.1-.1.1-.1.1-.1V373.9l.1-.3.1-.3.1-.3.1-.3.1-.3.1-.3.1-.3.1-.2.1-.3.1-.2.1-.2.1-.2.1-.2.1-.2.1-.2.1-.2.1-.2.1-.2.1-.2.1-.2.1-.2.1-.2.1-.2.1-.2.1-.2.1-.2.1-.2.1-.2.1-.2.1-.2.1-.2.1-.2.1-.2.1-.2.1-.2.1-.2.1-.2.1-.2.1-.2.1-.2.1-.2.1-.2.1-.3.1-.3.1-.3.1-.3.1-.3.1-.3.1-.3.1-.3.2-.5.2-.5.1-.4.1-.2.1-.2.1-.2.1-.2.1-.2V358.9h-.4l-.1.1-.1.1-.1.1-.1.1-.1.1-.1.1-.1.1-.1.1-.1.1-.1.1-.1.1-.1.1-.1.1-.1.1-.1.1-.1.1-.1.1-.1.1-.1.1-.1.1-.1.1-.1.1-.1.1-.1.1-.1.1-.1.1-.1.1-.1.1-.1.1V365.6l-.1.2-.1.2-.1.2-.1.2-.1.2-.1.2-.1.1-.1.2V367.4l-.1.3-.1.3-.1.3-.1.2v.7H4111.1V366.3l-.1-.2-.1-.2-.1-.2-.1-.3-.1-.3-.1-.3-.1-.3-.1-.3-.1-.3-.1-.3-.1-.3-.1-.3V359.7l-.1-.4-.1-.4-.1-.4-.1-.4-.1-.4-.1-.4-.1-.4-.1-.4-.1-.7-.1-.6V351l-12.1 1.2zm847.6-54.5l-.1.1v4.2l-.1.6-.1.7-.1.4-.1.4-.1.4-.1.4-.1.4-.1.4-.1.4-.1.4V309.8l-.1.3-.1.3-.1.3-.1.3-.1.3-.1.3-.1.3-.1.3-.1.3-.1.2-.1.2-.1.2V316H4941.1v-.7l-.1-.2-.1-.3-.1-.3-.1-.3V313.9l-.1-.2-.1-.1-.1-.2-.1-.2-.1-.2-.1-.2-.1-.2-.1-.2V308.6l-.1-.1-.1-.1-.1-.1-.1-.1-.1-.1-.1-.1-.1-.1-.1-.1-.1-.1-.1-.1-.1-.1-.1-.1-.1-.1-.1-.1-.1-.1-.1-.1-.1-.1-.1-.1-.1-.1-.1-.1-.1-.1-.1-.1-.1-.1-.1-.1-.1-.1-.1-.1-.1-.1-.1-.1-.1-.1h-.4V306.7l.1.2.1.2.1.2.1.2.1.2.1.4.2.5.2.5.1.3.1.3.1.3.1.3.1.3.1.3.1.3.1.3.1.2.1.2.1.2.1.2.1.2.1.2.1.2.1.2.1.2.1.2.1.2.1.2.1.2.1.2.1.2.1.2.1.2.1.2.1.2.1.2.1.2.1.2.1.2.1.2.1.2.1.2.1.2.1.2.1.2.1.2.1.2.1.2.1.2.1.3.1.2.1.3.1.3.1.3.1.3.1.3.1.3.1.3V329.1l.1.1.1.1.1.1.1.1.1.1.1.1.1.1.1.1.1.1.1.1.1.1.1.1.1.1.1.1.1.1.1.1.1.1.1.1.1.1.1.1.1.1.1.1.1.1.1.1.1.1.1.1.1.1.1.1.1.1.1.1.1.1h.1l.1.1h.1l.1.1H4953V332.1l.1-.1.1-.1.1-.1.1-.1.1-.1.1-.1.1-.1.1-.1.1-.1.1-.1.1-.1.1-.2.1-.3.1-.3.1-.3.2-.3.2-.3.2-.3.3-.6.3-.6.3-.6.2-.3.2-.3.2-.3.2-.3.2-.3.2-.3.2-.3.2-.3.2-.3.1-.2.1-.2.1-.2.1-.2.1-.2.1-.2.1-.2.1-.2.1-.2.1-.2.1-.2.1-.2.1-.2.1-.2.1-.2.1-.2.1-.2.1-.2.1-.2.1-.2.1-.2.1-.2.1-.2.1-.2.1-.2.1-.2.1-.2.1-.2.1-.2.1-.2.1-.2.1-.2.1-.2.1-.2.1-.1.1-.2.1-.1.1-.1.1-.1V312.1 313.6l-.1.1-.1.1-.1.1-.1.1-.1.1-.1.1-.1.1-.1.1-.1.1-.1.1-.1.1-.1.1-.1.1-.1.1-.1.1-.1.1-.1.1-.1.1-.1.1-.1.1-.1.1-.1.1-.1.1-.1.1-.1.1-.1.1-.1.1-.1.1-.1.1-.1.1-.1.1-.1.1-.1.1-.1.1-.1.3-.1.3-.1.3V319.6H4956.6V299.1h-.1l-12.1-1.4zM2991.1 69.8l-.1.2V74.1l-.1.6-.1.7-.1.4-.1.4-.1.4-.1.4-.1.4-.1.4-.1.4-.1.4V81.9l-.1.3-.1.3-.1.3-.1.3-.1.3-.1.3-.1.3-.1.3-.1.3-.1.2-.1.2-.1.2V88.1H2987.8v-.7l-.1-.2-.1-.3-.1-.3-.1-.3V86l-.1-.2-.1-.1-.1-.2-.1-.2-.1-.2-.1-.2-.1-.2-.1-.2V80.7l-.1-.1-.1-.1-.1-.1-.1-.1-.1-.1-.1-.1-.1-.1-.1-.1-.1-.1-.1-.1-.1-.1-.1-.1-.1-.1-.1-.1-.1-.1-.1-.1-.1-.1-.1-.1-.1-.1-.1-.1-.1-.1-.1-.1-.1-.1-.1-.1-.1-.1-.1-.1-.1-.1-.1-.1-.1-.1h-.4V78.8l.1.2.1.2.1.2.1.2.1.2.1.4.2.5.2.5.1.3.1.3.1.3.1.3.1.3.1.3.1.3.1.3.1.2.1.2.1.2.1.2.1.2.1.2.1.2.1.2.1.2.1.2.1.2.1.2.1.2.1.2.1.2.1.2.1.2.1.2.1.2.1.2.1.2.1.2.1.2.1.2.1.2.1.2.1.2.1.2.1.2.1.2.1.2.1.2.1.2.1.3.1.2.1.3.1.3.1.3.1.3.1.3.1.3.1.3V101.2l.1.1.1.1.1.1.1.1.1.1.1.1.1.1.1.1.1.1.1.1.1.1.1.1.1.1.1.1.1.1.1.1.1.1.1.1.1.1.1.1.1.1.1.1.1.1.1.1.1.1.1.1.1.1.1.1.1.1.1.1.1.1h.1l.1.1h.1l.1.1H2999.7V104.2l.1-.1.1-.1.1-.1.1-.1.1-.1.1-.1.1-.1.1-.1.1-.1.1-.1.1-.1.1-.2.1-.3.1-.3.1-.3.2-.3.2-.3.2-.3.3-.6.3-.6.3-.6.2-.3.2-.3.2-.3.2-.3.2-.3.2-.3.2-.3.2-.3.2-.3.1-.2.1-.2.1-.2.1-.2.1-.2.1-.2.1-.2.1-.2.1-.2.1-.2.1-.2.1-.2.1-.2.1-.2.1-.2.1-.2.1-.2.1-.2.1-.2.1-.2.1-.2.1-.2.1-.2.1-.2.1-.2.1-.2.1-.2.1-.2.1-.2.1-.2.1-.2.1-.2.1-.2.1-.2.1-.1.1-.2.1-.1.1-.1.1-.1V84.2 85.7l-.1.1-.1.1-.1.1-.1.1-.1.1-.1.1-.1.1-.1.1-.1.1-.1.1-.1.1-.1.1-.1.1-.1.1-.1.1-.1.1-.1.1-.1.1-.1.1-.1.1-.1.1-.1.1-.1.1-.1.1-.1.1-.1.1-.1.1-.1.1-.1.1-.1.1-.1.1-8.3-.1-.1.1-.1.1-.1.3-.1.3-.1.3V91.5H2995.1V71h-.1l-3.9-1.2zM3836.4 361.7c-.2-1.8-2.1-11.4 0-16 1.5-3.5 3.6 4 3.8 8.6.1 2.2.9-2.9 3.4-7.4 1.9-3.4 4.9-6.4 7-8 3.3-2.5-1.7 8-2.7 14.8-.5 3 .1-.2 3-2 2.3-1.4 5.6-1.2 7.2-.3 1.8 1.1-.7.2-6 6.9-2 2.6-3.1 7.3-4.1 9.1-2.7 5.1-11.4-3.9-11.6-5.7zM5583.1 294.3V296.7l.1.3.1.3.1.3.1.3.1.3.1.3.2.6.2.7.1.3.1.3.1.3.1.4.1.4.1.4.1.4.1.2.1.2.1.2.1.2.1.2.1.2.1.2.1.2V310.6H5584.6v-.1l-.1-.1-.1-.1v-.2l-.1-.1-.1-.1-.1-.1-.1-.1-.1-.1-.1-.1-.1-.1-.1-.1H5572.5h.2l.1.1.2.1.1.1.1.1.1.1.1.1.1.1.1.1.1.1.1.1.1.1.1.1.1.1.1.1.1.1.1.1.1.1.1.1.1.1.1.1.1.1.1.1.1.1.1.1.1.1.1.1.1.1.1.1.1.1.1.1.1.1.1.1.1.1.1.1.1.1.1.1.1.1.1.1.1.1.1.1.1.1.1.1.1.1.1.1.1.1.1.1.1.1.1.1.1.1.1.1.1.1.1.1.1.1.1.1.1.1.1.1.1.1.1.1.1.2.1.2.1.2.1.2V319.5l.1.2.1.2.1.2.1.2.1.2.1.2.1.2.1.2.1.2.1.2.1.2.1.2.1.2.1.2.1.2.1.2.1.3.1.3.1.3.1.3.1.3.1.3v.1l.1.1v1.3H5588.1l.1-.1.1-.1.1-.1.1-.1.1-.1.1-.1.1-.1.1-.1.1-.1.1-.1.1-.1.1-.1.1-.1.1-.1.1-.1.1-.1.1-.1.1-.1.1-.1.1-.1.1-.1.1-.1.1-.1.1-.1.1-.1.1-.1.1-.1.1-.1.1-.1.1-.1.1-.1.1-.1.1-.1.1-.1.1-.1.1-.1.1-.1.1-.1.1-.1.1-.1.1-.1.1-.1.1-.1.1-.1.1-.1.1-.1.1-.1.1-.1.1-.1V319.4l.1-.4.1-.4V303.2 311.8h-.2v-.6l-.1-.2-.1-.3-.1-.3-.1-.3v-.2l-.1-.2-.1-.2-.1-.2-.1-.2-.1-.2-.1-.2-.1-.2-.1-.2-.1-.2-.1-.2-.1-.2-.1-.2-.1-.2V305.6l-.1-.1-.1-.1-.1-.1-.1-.1-.1-.1-.1-.1-.1-.1-.1-.1-.1-.1-.1-.1-.1-.1-.1-.1-.1-.1-.1-.1-.1-.1V302.6l-.1-.1-.1-.1-.1-.1-.1-.1-.1-.1-.1-.1-.1-.1-.1-.1-.1-.1-.1-.1-.1-.1-.1-.1-.1-.1-.1-.1-.1-.1-.1-.1-.1-.1-.1-.1-.1-.1-.1-.1-.1-.1-.1-.1-.1-.1-.1-.1-.1-.1-.1-.1-.1-.1-.1-.1-.1-.1-.1-.1-.1-.1-.1-.1-.1-.1-.1-.1-.1-.1-.1-.1-.1-.1-.1-.1-.1-.1-.1-.1-.1-.1-.1-.1-.1-.1-.1-.1-.1-.1-.1-.1-.1-.1-.1-.1-.1-.1-.1-.1-.1-.1-.1-.1-.1-.1-.1-.1-.1-.1-.1-.1-.1-.1-.1-.1-.1-.1-.1-.1-.1-.1-.1-.1-.5-2.1zm-2809 66.6V363.3l.1.3.1.3.1.3.1.3.1.3.1.3.2.6.2.7.1.3.1.3.1.3.1.4.1.4.1.4.1.4.1.2.1.2.1.2.1.2.1.2.1.2.1.2.1.2V377.2H2775.6v-.1l-.1-.1-.1-.1v-.2l-.1-.1-.1-.1-.1-.1-.1-.1-.1-.1-.1-.1-.1-.1-.1-.1H2766h4H2767.6h.2l.1.1.2.1.1.1.1.1.1.1.1.1.1.1.1.1.1.1.1.1.1.1.1.1.1.1.1.1.1.1.1.1.1.1.1.1.1.1.1.1.1.1.1.1.1.1.1.1.1.1.1.1.1.1.1.1.1.1.1.1.1.1.1.1.1.1.1.1.1.1.1.1.1.1.1.1.1.1.1.1.1.1.1.1.1.1.1.1.1.1.1.1.1.1.1.1.1.1.1.1.1.1.1.1.1.1.1.1.1.1.1.1.1.1.1.1.1.2.1.2.1.2.1.2V386.1l.1.2.1.2.1.2.1.2.1.2.1.2.1.2.1.2.1.2.1.2.1.2.1.2.1.2.1.2.1.2.1.2.1.3.1.3.1.3.1.3.1.3.1.3v.1l.1.1v1.3H2783.2l.1-.1.1-.1.1-.1.1-.1.1-.1.1-.1.1-.1.1-.1.1-.1.1-.1.1-.1.1-.1.1-.1.1-.1.1-.1.1-.1.1-.1.1-.1.1-.1.1-.1.1-.1.1-.1.1-.1.1-.1.1-.1.1-.1.1-.1.1-.1.1-.1.1-.1.1-.1.1-.1.1-.1.1-.1.1-.1.1-.1.1-.1.1-.1.1-.1.1-.1.1-.1.1-.1.1-.1.1-.1.1-.1.1-.1.1-.1.1-.1.1-.1V386l.1-.4.1-.4V369.8 378.4H2785v-.6l-.1-.2-.1-.3-.1-.3-.1-.3v-.2l-.1-.2-.1-.2-.1-.2-.1-.2-.1-.2-.1-.2-.1-.2-.1-.2-.1-.2-.1-.2-.1-.2-.1-.2-.1-.2V372.2l-.1-.1-.1-.1-.1-.1-.1-.1-.1-.1-.1-.1-.1-.1-.1-.1-.1-.1-.1-.1-.1-.1-.1-.1-.1-.1-.1-.1-.1-.1V369.2l-.1-.1-.1-.1-.1-.1-.1-.1-.1-.1-.1-.1-.1-.1-.1-.1-.1-.1-.1-.1-.1-.1-.1-.1-.1-.1-.1-.1-.1-.1-.1-.1-.1-.1-.1-.1-.1-.1-.1-.1-.1-.1-.1-.1-.1-.1-.1-.1-.1-.1-.1-.1-.1-.1-.1-.1-.1-.1-.1-.1-.1-.1-.1-.1-.1-.1-.1-.1-.1-.1-.1-.1-.1-.1-.1-.1-.1-.1-.1-.1-.1-.1-.1-.1-.1-.1-.1-.1-.1-.1-.1-.1-.1-.1-.1-.1-.1-.1-.1-.1-.1-.1-.1-.1-.1-.1-.1-.1-.1-.1-.1-.1-.1-.1-.1-.1-.1-.1-.1-.1-.1-.1-.1-.1-1.5-2.1zM3744.9 329.4c.5-1.6 2.9-3-.1-6.4-3.8-4.4-8.7-6.6-6.8-8.1 5.1-4 9.7 2.6 10.4 6.5.3 1.6.1 3.3.4 2.8 1.3-2.2 5.6-3.5 6.4-1.7 1.5 3.5-1.7 1.9-3.5 3.7-2.1 2-.2 1.7-1 2.8-2.6 3.8-5.8.4-5.8.4z" fill="#ecf7d5"/><path d="M3753.8 321.2H3755.6V323.6H3751.5l-.1-.1h-.4l.2.1h-.1v-.7l.1-.2V318.9l-.1-.1-.1-.1-.1-.1-.1-.1-.1-.1-.1-.1-.1-.1-.1-.1-.1-.1-.1-.1-.1-.1-.1-.1-.1-.1-.1-.1-.1-.1-.1-.1-.1-.1-.1-.1-.1-.1-.1-.1-.1-.1-.1-.1-.1-.1-.1-.1-.1-.1-.1-.1-.1-.1-.1-.1-.1-.1-.1-.1-.1-.1-.1-.1-.1-.1-.1-.1-.1-.1-.1-.1-.1-.1-.1-.1-.1-.1-.1-.1-.2-.2-.2-.2-.2-.2-.2-.2-.2-.1-.2-.1-.2-.1-.3-.3-.3-.3-.2-.1-.2-.1-.2-.1-.1-.1-.1-.1-.1-.1-.1-.1-.1-.1-.1-.1-.1-.1-.1-.1-.1-.1-.1-.1-.1-.1-.1-.1-.1-.1-.1-.1-.1-.1-.1-.1-.1-.1-.1-.1-.1-.1v-1.2H3754l.1.1.1.1.1.1.1.1.1.1.1.1.1.1.1.1.1.1.1.1.1.1.1.1.1.1.1.1.1.1.1.1.1.1.1.1.1.1.1.1.1.1.1.1.1.1v.1l.1.1.1.1.1.1.1.1V316.9H3763.6l-9.8 4.3zm-496.4-112.3h-1.2V210.7l.1.1.1.1.1.1.1.1.1.1.1.2.1.2.2.3.2.3.1.2.1.2.1.2.1.2.1.2.1.2.1.2V221.3l-.1.1-.1.1-.1.1-.1.1-.1.1-.1.1-.1.1-.1.1-.1.1-.1.1-.1.1-.1.1v.6-.2h1.1v-1.3h-1.2V213.9l.7-5z" fill="#ecf7d5"/></g></svg>