<svg xmlns="http://www.w3.org/2000/svg" width="1572" height="1040" viewBox="0 0 1572 1040">
  <path fill="#F0B7A4" fill-rule="nonzero" d="M71.48855 993.862569c24.05412 22.546491 53.92887 35.557751 85.91716 41.438741 9.4296 1.70701 18.94964 2.90352 28.51604 3.58398 25.27863 1.88973 51.16113.63534 75.98686-1.98748 60.80816-6.44747 120.77933-18.90944 178.98008-37.191935 9.56126-2.99751 19.06661-6.152498 28.51604-9.464964 14.25802-4.974129 28.38744-10.301226 42.38826-15.98129 57.03208-23.14925 115.993187-52.668209 176.665256-43.51277 29.40507 4.447393 57.03208 17.919898 86.504247 21.927438 20.6865 2.62858 41.706745 1.165646 61.795936-4.300775 9.726771-2.526942 19.256161-5.722575 28.516041-9.562709 20.867003-8.786879 40.724917-19.680151 59.246267-32.500178 44.451474-30.170592 84.340383-67.574305 131.140237-93.704775 51.597259-28.818453 108.71321-42.51903 166.902706-52.733371 9.471799-1.661664 18.977146-3.247303 28.516041-4.756919 26.922496-4.317066 53.91209-8.308316 80.515878-13.032652 25.630888-4.594011 51.714678-10.214342 74.024286-24.028954 15.91866-9.855944 29.304425-23.507648 41.583096-37.892438 22.650475-26.655235 42.0788353-55.745172 57.904336-86.699724.8387071-1.629081 1.66064-3.258163 2.4657988-4.887245 24.6412137-49.100519 41.2140653-102.632141 51.379195-158.020916.3019345-1.629082.5870949-3.258163.8722553-4.887245 9.56126057-54.29729 13.05028196-110.435442 11.99351106-166.166324l-.10064485-4.887245c-.65419151-27.515188-2.41547635-54.916341-5.0322424-81.926514-1.87870383-18.995092-4.39482503-38.706979-14.52640641-54.671979-10.1315814-15.965-26.6205623-26.2282139-43.1263174-34.7646016-72.6320321-37.5829127-142.2614931-48.0416167-220.3954431-29.8284843-12.547058 2.9160561-25.043793 6.0601836-37.540528 9.3183469-9.510938 2.476204-19.021877 5.0338621-28.516041 7.6078111-65.653989 17.7406987-131.07314 36.6543359-198.974864 42.3072499-6.553098.553887-13.111787.977448-19.676068 1.270683-12.983185.58647-25.966371.716796-38.949556.39098-33.444146-.911616-66.771729-4.244184-99.705496-9.96998-9.527713-1.5965-19.033059-3.366768-28.516041-5.3108057-40.928904-8.2920254-81.488778-19.3534896-121.394461-31.5878925-8.152232-2.4979251-16.293282-5.0392924-24.423149-7.6241019-18.317363-5.8158214-36.634725-11.7456784-54.985636-17.5126273C581.170838 25.0752201 526.05101 9.32200094 469.40473 2.96858266c-4.84213-.53216666-9.69545-1.00460033-14.55995-1.41730101-4.64644-.39097958-9.30965-.70050509-13.95609-.92857651C352.90832-3.93872338 263.9215 16.669159 185.92175 58.8460819c-9.67309 5.2347823-19.17844 10.7953808-28.51604 16.6817957-12.93846 8.1779897-25.47993 16.9750304-37.6244 26.3911224-24.89283 19.304617-48.19211 41.280928-65.93915 67.688341-17.29414 25.723198-28.51604 54.606815-34.97409 84.972896-.35226 1.629082-.68774 3.258164-.98967 4.887245-9.47739 49.019066-6.52514 101.58953 4.10966 150.70634 1.12387 5.147898 2.31483 10.312087 3.55612 15.459985.38581 1.629081.78838 3.258163 1.19096 4.887244 11.47352 46.445117 26.13412 92.759907 22.30961 140.247636-.48645 5.97873-1.25806 11.908587-2.26451 17.773281-.28516 1.629081-.57032 3.258163-.88903 4.887245-7.48126 38.73956-24.49024 75.491641-34.68892 113.856513-19.14396 72.902337-13.64545 149.85085 15.68382 219.486166 10.75223 25.169311 24.85928 48.58431 44.60244 67.090677z"/>
</svg>
