<svg xmlns="http://www.w3.org/2000/svg" viewBox="232.4 110.1 4036.3 308"><path d="M3029.2 135.7l8.5 52.9h-17l8.5-52.9zM2460.695 134.053l8.1 49.6h-16.2l8.1-49.6zM2253.973 126.311l12.8 54h-25.5l12.7-54z" fill="#bbcb9e"/><g fill="#dbe7c3"><path d="M2461.262 155.832l3.2 49h-6.4l3.2-49z"/><path d="M2461.262 155.632l.1.1v.4l.9 12.6 1.1 15.9.6 8.3.6 8.2.2 3.6v.5l-.1.1H2457.562l-.1-.1-.1-.1v-.4l.2-3.1.2-3.4.2-3.6.5-7.6.5-7.7.5-7.3.9-11.6.4-4.7.5-.1zm-.1 4.8l-.6 11.3-.4 7.1-.4 7.4-.4 7.3-.2 3.5-.2 3.3-.3 3.9H2463.962l-.3-4.3-.5-8-.5-8.1-.9-15.5-.5-9.6-.1 1.7z"/></g><path d="M2254.3 150.5l4.4 59.2h-8.8l4.4-59.2z" fill="#dbe7c3"/><path d="M2254.4 150.3l.1.1v.4l1.2 15.2 1.6 19.3.8 10.1.8 10 .3 4v.5l-.1.1H2249.5l-.1-.1-.1-.1v-.4l.2-3.4.3-4.2.3-4.4.7-9.2.7-9.3.7-8.8 1.2-14.1.5-5.7h.5zm-.2 5.8l-.9 13.8-.6 8.6-.6 9.1-.6 9-.3 4.3-.3 4.1-.3 4.2h7.8l-.4-4.8-.7-9.7-.7-9.9-1.3-18.9-.9-12.9-.2 3.1zM3029.2 164.5l3.1 45.1h-6.3l3.2-45.1z" fill="#dbe7c3"/><path d="M3029.2 164.4v.4l.8 11.6 1.1 14.6.6 7.6.6 7.5.2 3.4v.5l-.1.1H3025.3l-.1-.1-.1-.1v-.4l.2-3 .2-3.1.2-3.3.5-7 .5-7 .5-6.7.8-10.7.3-4.3h.9zm-.2 4.4l-.7 10.5-.4 6.6-.4 6.9-.4 6.8-.2 3.2-.2 3.1-.2 3.3h5.8l-.3-3.9-.5-7.4-.5-7.5-.9-14.3-.7-10.3-.4 3z" fill="#dbe7c3"/><g fill="#e7f3cf"><path d="M3253.4 229.4c.2-11.9-24.9-32.5-58.7-42.6-20.7-6.2-48.7-6.7-64.4-4.3-199.9 30.8-235.5 29.6-285.4 20.1-12.8-2.4-24.8-4.4-36.1-6-17.6-3.3-38.1-5.6-63.7-5.2-25.6-.3-46 1.9-63.7 5.2-11.3 1.6-23.3 3.6-36.1 6-49.9 9.5-85.6 10.7-285.4-20.1-15.7-2.4-43.7-1.9-64.4 4.3-33.8 10.2-58.9 30.7-58.7 42.6.5 27.7-10 54 23.1 74 27.3 16.5 233.3 16.4 335.8 12.2 39.7 1.6 95 2.6 149.4 2.3 54.4.3 109.6-.7 149.4-2.3 102.5 4.1 308.5 4.2 335.8-12.2 33.1-20 22.7-46.3 23.1-74z" stroke="#e7f3cf" stroke-linecap="round" stroke-linejoin="round" stroke-miterlimit="1.5"/><path d="M2436.2 229.7c.2-11.9-24.9-32.5-58.7-42.6-20.7-6.2-48.7-6.7-64.4-4.3-199.9 30.8-235.5 29.6-285.4 20.1-12.8-2.4-24.8-4.4-36.1-6-17.6-3.3-38.1-5.6-63.7-5.2-25.6-.3-46 1.9-63.7 5.2-11.3 1.6-23.3 3.6-36.1 6-49.9 9.5-85.6 10.7-285.4-20.1-15.7-2.4-43.7-1.9-64.4 4.3-33.8 10.2-58.9 30.7-58.7 42.6.5 27.7-10 54 23.1 74 27.3 16.5 233.3 16.4 335.8 12.2 39.7 1.6 95 2.6 149.4 2.3 54.4.3 109.6-.7 149.4-2.3 102.5 4.1 308.5 4.2 335.8-12.2 33.1-20 22.6-46.2 23.1-74z" stroke="#e7f3cf" stroke-linecap="round" stroke-linejoin="round" stroke-miterlimit="1.5"/><path d="M1618.1 229.7c.2-11.9-24.9-32.5-58.7-42.6-20.7-6.2-48.7-6.7-64.4-4.3-199.9 30.8-235.5 29.6-285.4 20.1-12.8-2.4-24.8-4.4-36.1-6-17.6-3.3-38.1-5.6-63.7-5.2-25.6-.3-46 1.9-63.7 5.2-11.3 1.6-23.3 3.6-36.1 6-49.9 9.5-85.6 10.7-285.4-20.1-15.7-2.4-43.7-1.9-64.4 4.3-33.8 10.2-58.9 30.7-58.7 42.6.5 27.7-10 54 23.1 74 27.3 16.5 233.3 16.4 335.8 12.2 39.7 1.6 95 2.6 149.4 2.3 54.4.3 109.6-.7 149.4-2.3 102.5 4.1 308.5 4.2 335.8-12.2 33.1-20 22.6-46.2 23.1-74zM4066.6 229.4c.2-11.9-24.9-32.5-58.7-42.6-20.7-6.2-48.7-6.7-64.4-4.3-199.9 30.8-235.5 29.6-285.4 20.1-12.8-2.4-24.8-4.4-36.1-6-17.6-3.3-38.1-5.6-63.7-5.2-25.6-.3-46 1.9-63.7 5.2-11.3 1.6-23.3 3.6-36.1 6-49.9 9.5-85.6 10.7-285.4-20.1-15.7-2.4-43.7-1.9-64.4 4.3-33.8 10.2-58.9 30.7-58.7 42.6.5 27.7-10 54 23.1 74 27.3 16.5 233.3 16.4 335.8 12.2 39.7 1.6 95 2.6 149.4 2.3 54.4.3 109.6-.7 149.4-2.3 102.5 4.1 308.5 4.2 335.8-12.2 33.1-20 22.7-46.3 23.1-74z" stroke="#e7f3cf" stroke-linecap="round" stroke-linejoin="round" stroke-miterlimit="1.5"/><path d="M2573.2 203.9V203.6h-.1v-.2h-.1v-.2h-.1v-.1h-.1v-.1h-.1l-.1-.1h-.1v-.1h-.2v-.1h-.2l-.1-.1h-.4l-.1-.1H2570.7l-.1.1h-.5v.1H2569.8v.1h-.2l-.1.1h-.1v.1h-.2v.1h-.1l-.1.1h-.1v.1h-.1v.1h-.1l-.1.1-.1.1-.1.1-.1.1v.1h-.1v.1h-.1v.1-.1l-.2-.1-.1-.2-.1-.2-.1-.1-.1-.1-.1-.2-.2-.2-.1-.2h-.1v-.1h-.1v-.1l-.1-.1-.1-.2-.1-.1-.1-.2h-.1v-.1l-.1-.1-.1-.1v-.1h-.1l-.1-.1v-.1l-.1-.1-.1-.1-.1-.1-.1-.1-.1-.1-.1-.1-.1-.1-.1-.1-.1-.1h-.1v-.1h-.1v-.1h-.1l-.1-.1h-.1v-.1h-.1l-.1-.1h-.1l-.1-.1h-.1l-.1-.1H2563.7v-.1H2562.2v.1h-.2l-.1.1h-.2l-.1.1h-.1l-.1.1h-.1v.1h-.1l-.1.1h-.1v.1h-.1v.1h-.1v.1h-.1v.1h-.1v.2h-.1v.2l-.1.1V201.4h.1V201.7h.1v.2h.1v.1l.1.1v.1h.1v.1h.1v.1h.1v.1h.1v.1h.1l.1.1.1.1.1.1h.1v.1h.1l.1.1.1.1h.1l.1.1.2.1.1.1.2.1.1.1.3.2.2.1.2.1.1.1.2.1.1.1.1.1h.1l.1.1.1.1h.1l.1.1.1.1.1.1h.1v.1h.1l.1.1.1.1h.1v.1h.1v.1l.1.1h.1v.1h.1v.1h.1v.1h.1v.1h.1v.1l.1.1v.1h.1v.1l.1.1v.1l.1.1V207h.1-.1v.2h.1v.4h.1V207.9h.1v.2h.1v.1h.1v.1h.1v.1h.1v.1h.2v.1h.2v.1h.7v-.1H2568.4l.1-.1H2568.8v-.1h.2l.1-.1h.1l.1-.1H2569.6v-.1H2569.9v-.1h.2v-.1h.1v-.1h.1v-.1h.1v-.2h.1v-.1l.1-.1v-.2l.1-.1v-.1l.1-.1v-.1h.1v-.2h.1v-.2h.1v-.2h.1v-.1h.1v-.1h.1v-.1h.1v-.1h.1v-.1h.2l.1-.1h.2v-.1h.2v-.1h.2v-.1h.1l.1-.1.1-.1v-.1h.1v-.1h.1v-.2h.1v-.2h.1v-.4z"/></g><g fill="#dcecbd"><path d="M2441.7 302.6c-54.1-1.3-46.7-18.6-163.1-65.7-38.9-15.7-71.9-21.7-99.4-22.1h-6.6c-27.5.4-60.5 6.4-99.4 22.1-116.5 47-109 64.4-163.1 65.7-58.3 1.4-124.4 146.6-38.3 146.4 57.4-.2 197.1-25.8 304.1-25.8s246.7 25.6 304.1 25.8c86.1.2 20-145-38.3-146.4z" stroke="#dcecbd" stroke-linecap="round" stroke-linejoin="round" stroke-miterlimit="1.5"/><g stroke="#dcecbd" stroke-linecap="round" stroke-linejoin="round" stroke-miterlimit="1.5"><path d="M2974.8 302.6c-54.1-1.3-46.7-18.6-163.1-65.7-38.9-15.7-71.9-21.7-99.4-22.1h-6.6c-27.5.4-60.5 6.4-99.4 22.1-116.5 47-109 64.4-163.1 65.7-58.3 1.4-124.5 146.7-38.3 146.4 57.4-.2 197.1-25.8 304.1-25.8s246.7 25.6 304.1 25.8c86.2.2 20-145-38.3-146.4z"/><path d="M3506.4 302.6c-54.1-1.3-251.6-97.8-379-60.9-44.9 13-98.5 59.6-152.6 60.9-58.3 1.4-124.5 146.7-38.3 146.4 57.4-.2 197.1-25.8 304.1-25.8s246.7 25.6 304.1 25.8c86.2.2 20-145-38.3-146.4z"/><path d="M4041.6 302.6c-54.1-1.3-125.7-56.5-213.8-51.3-52 3.1-129.7 30.3-173.9 42.1-81.1 21.7-113.7 10.1-144.7 9.4-58.3-1.3-123.7 146.5-37.5 146.2 57.4-.2 197.1-25.8 304.1-25.8s246.7 25.6 304.1 25.8c86.1.2 20-145-38.3-146.4z"/></g><g stroke="#dcecbd" stroke-linecap="round" stroke-linejoin="round" stroke-miterlimit="1.5"><path d="M844.2 302.6c-54.1-1.3-46.7-18.6-163.1-65.7-38.9-15.7-71.9-21.7-99.4-22.1h-6.6c-27.5.4-60.5 6.4-99.4 22.1-116.5 47-109 64.4-163.1 65.7-58.3 1.4-124.5 146.7-38.3 146.4 57.4-.2 197.1-25.8 304.1-25.8s246.7 25.6 304.1 25.8c86.1.2 19.9-145-38.3-146.4z"/><path d="M1375.8 302.6c-54.1-1.3-46.7-18.6-163.1-65.7-38.9-15.7-71.9-21.7-99.4-22.1h-6.6c-27.5.4-60.5 6.4-99.4 22.1-116.5 47-109 64.4-163.1 65.7-58.3 1.4-124.5 146.7-38.3 146.4 57.4-.2 197.1-25.8 304.1-25.8s246.7 25.6 304.1 25.8c86.2.2 20-145-38.3-146.4z"/><path d="M1910.9 302.6c-54.1-1.3-45.5-12.2-162-59.2-38.9-15.7-89.6-18.8-102.8-18.8-11.3 0-64.7-3.3-103.6 12.4-116.5 47-109 64.4-163.1 65.7-58.3 1.3-124.5 146.5-38.3 146.3 57.4-.2 197.1-25.8 304.1-25.8s246.7 25.6 304.1 25.8c86.1.2 19.9-145-38.4-146.4z"/></g><path d="M2234.4 214.3v-.2h-.1V213.8h-.1v-.1l-.1-.1v-.1h-.1v-.1h-.1v-.1h-.2v-.1h-.2v-.1h-1.2v.1h-.4v.1h-.2l-.1.1h-.2v.1h-.2v.1h-.2l-.1.1h-.1v.1h-.1l-.1.1h-.1l-.1.1-.1.1-.1.1h-.1l-.1.1-.1.1h-.1v.1h-.1v.1h-.1v.1h-.1v.1h-.1v.1h-.1v.1l-.1.1v.1h-.1v.1l-.1.1v.1h-.1v.1l-.1.1v.1l-.1-.1v-.1l-.1-.2v-.1l-.1-.1-.1-.1v-.1l-.1-.1v-.1l-.1-.1-.1-.1v-.2l-.1-.1-.1-.1-.1-.2v-.1l-.1-.1-.1-.1v-.1h-.1v-.1l-.1-.1v-.1l-.1-.1-.1-.1v-.1h-.1v-.1h-.1v-.1l-.1-.1-.1-.1v-.1h-.1v-.1l-.1-.1-.1-.1-.1-.1v-.1h-.1v-.1h-.1l-.1-.1v-.1h-.1v-.1h-.1v-.1h-.1v-.1h-.1l-.1-.1-.1-.1-.1-.1h-.1v-.1h-.1v-.1h-.1l-.1-.1h-.1v-.1h-.1l-.1-.1h-.1l-.1-.1h-.1v-.1h-.2l-.1-.1H2223.8v-.1h-1.3l-.1.1H2222.1l-.1.1h-.2v.1h-.1l-.1.1h-.1v.1h-.1v.1h-.1v.1l-.1.1v.1l-.1.1V212.2h.1v.2l.1.1v.2h.1v.1l.1.1v.1h.1v.2h.1v.1h.1v.1l.1.1.1.1v.1h.1v.1l.1.1.1.1v.1h.1l.1.1.1.1.1.1.1.1.1.1.1.1.1.1v.1l.1.1.1.1.1.1h.1l.1.1.1.1.1.1.1.1.1.1.1.1.1.1h.1v.1l.1.1h.1l.1.1.1.1.1.1.1.1.1.1v.1l.1.1.1.1h.1l.1.1.1.2.2.1.2.2.1.2.1.1.2.2.1.1.1.1.1.2.1.1.1.1.1.1.1.1.1.1.1.1.1.1.1.1.1-.1-.1.1v.1h.1l2 .6.5.1.1.1.1.1H2230.5v-.1h.1v-.2h.1v-.1h-.1V219.5h.1V219.2h.1v-.1l.1-.1v-.1l.1-.1v-.1h.1v-.1h.1v-.2h.1v-.1h.1v-.1h.1v-.1l.1-.1.1-.1v-.1h.1v-.1h.1v-.1h.1v-.1h.1v-.1h.1v-.1h.1v-.1h.1v-.1h.1v-.1h.1l.1-.1.1-.1.1-.1.1-.1h.1v-.1h.1v-.1h.1l.1-.1v-.1h.1l.1-.1.1-.1v-.1h.1v-.1l.1-.1.1-.1v-.1h.1v-.2h.1v-.2l.1-.1V214.7h.1V214.4z"/></g><g fill="#d2e2b7"><path d="M2663.9 314.6c-72.3 6.1-128.5-8.6-163.7-21.1-40.1-14.2-80.1-31-142.2-25.1-55.1 5.2-193.3 52.8-323.5 55.8-9.3.2-36.6 147.2 2.6 150.5 51.2 4.2 254.1-13.8 338.6-14.4 70.1-.5 222.3 22.3 247.1 12.8 37.5-14.5 48.5-159.2 41.1-158.5z" stroke="#d2e2b7" stroke-linecap="round" stroke-linejoin="round" stroke-miterlimit="1.5"/><path d="M3221.4 310.5c-72.3 6.1-128.5-8.6-163.7-21.1-40.1-14.2-80.1-31-142.2-25.1-55.1 5.2-193.3 52.8-323.5 55.8-9.3.2-36.6 147.2 2.6 150.5 51.2 4.2 254.1-13.8 338.6-14.4 70.1-.5 222.3 22.3 247.1 12.8 37.5-14.5 48.5-159.1 41.1-158.5z" stroke="#d2e2b7" stroke-linecap="round" stroke-linejoin="round" stroke-miterlimit="1.5"/><path d="M3749.7 310.5c-72.3 6.1-128.5-8.6-163.7-21.1-40.1-14.2-80.1-31-142.2-25.1-55.1 5.2-193.3 52.8-323.5 55.8-9.3.2-36.6 147.2 2.6 150.5 51.2 4.2 254.1-13.8 338.6-14.4 70.1-.5 222.3 22.3 247.1 12.8 37.6-14.5 48.5-159.1 41.1-158.5z" stroke="#d2e2b7" stroke-linecap="round" stroke-linejoin="round" stroke-miterlimit="1.5"/><path d="M4266 312.5c-72.3 6.1-128.5-8.6-163.7-21.1-40.1-14.2-80.1-31-142.2-25.1-55.1 5.2-193.3 52.8-323.5 55.8-9.3.2-36.6 147.2 2.6 150.5 51.2 4.2 254.1-13.8 338.6-14.4 70.1-.5 222.3 22.3 247.1 12.8 37.5-14.4 48.5-159.1 41.1-158.5zM2065.7 322.5c-72.3 6.1-128.5-8.6-163.7-21.1-40.1-14.2-80.1-31-142.2-25.1-55.1 5.2-193.3 52.8-323.5 55.8-9.3.2-36.6 147.2 2.6 150.5 51.2 4.2 254.1-13.8 338.6-14.4 70.1-.5 222.3 22.3 247.1 12.8 37.5-14.5 48.5-159.2 41.1-158.5z" stroke="#d2e2b7" stroke-linecap="round" stroke-linejoin="round" stroke-miterlimit="1.5"/><path d="M1469.6 330.1c-72.3 6.1-128.5-8.6-163.7-21.1-40.1-14.2-80.1-31-142.2-25.1-55.1 5.2-193.3 52.8-323.5 55.8-9.3.2-36.6 147.2 2.6 150.5 51.2 4.2 254.1-13.8 338.6-14.4 70.1-.5 222.3 22.3 247.1 12.8 37.5-14.4 48.5-159.1 41.1-158.5z" stroke="#d2e2b7" stroke-linecap="round" stroke-linejoin="round" stroke-miterlimit="1.5"/><path d="M2063.9 313.1v-.5h-.1v-.2h-.1v-.1h-.1v-.1h-.1v-.1h-.2v-.1h-.7l-.1.1H2062.2v.1h-.2l-.1.1h-.2v.1h-.2v.1h-.2l-.1.1h-.1v.1l-.1.1h-.1l-.1.1h-.1l-.1.1-.1.1-.1.1h-.1v.1h-.1l-.1.1-.1.1-.1.1-.1.1h-.1v.1l-.1.1h-.1v.1l-.1.1h-.1v.1l-.1.1-.1.1v-.2l.1-.1.1-.1v-.2l.1-.1v-.1l.1-.1v-.1l.1-.1v-.1l.1-.1v-.1l.1-.1v-.1l.1-.1v-.1l.1-.1v-.2l.1-.1.1-.1v-.1l.1-.1.1-.2.1-.2.1-.2.2-.2.1-.2.2-.4.3-.4.1-.2.1-.3.1-.2.1-.1.1-.1v-.1l.1-.1.1-.1v-.1l.1-.1v-.1l.1-.1v-.2l.1-.1v-.1l.1-.1.1-.1v-.2l.1-.1v-.2h.1V307.1h.1v-.5l.1-.1V306.2h-.1v-.4h-.1v-.2h-.1v-.1h-.1v-.1l-.1-.1h-.1v-.1h-.2l-.1-.1H2061l-.1.1h-.4l-.1.1h-.2l-.1.1H2059.8l-.1.1h-.2l-.1.1h-.2v.1h-.2l-.1.1h-.1v.1h-.2l-.1.1-.1.1h-.1l-.1.1h-.1v.1h-.1l-.1.1-.1.1h-.1v.1h-.1l-.1.1v.1h-.1v.1h-.1l-.1.1-.1.1v.1h-.1v.1h-.1v.1l-.1.1-.1.1v.1h-.1v.1l-.1.1-.1.1v.1h-.1v.1l-.1.1v.1h-.1v.2h-.1v.1l-.1.1v.1l-.1.1v.1l-.1.1v.1l-.1.1v.1l-.1.1v.1l-.1.1V310.1h-.1v.2l-.1.1v.2l-.1.1v.1l-.1.1V311.2l-.1.2v.1l-.1.2v.1l-.1.2V312.3l-.1.1v.2l-.1.1v.5l-.1.1V313.6l-.1.1V314l-.1.3v.2l-.1.5v.2l-.1.2V315.7l-.1.1V316.1h-.1v-.2l-.1-.1v-.1l-.1-.1v-.1l-.1-.1V315.1h-.1v-.1l-.1-.2v-.2h-.1V314.3l-.1-.1v-.2l-.1-.1v-.2l-.1-.1V313.3l-.1-.1v-.4h-.1v-.5l-.1-.1v-.5l-.1-.1v-.7h-.1v-1.2l-.1-.1V304.9l.1-.3V300.9h-.1v-.4l-.1-.1v-.2l-.1-.1v-.1l-.1-.1v-.1h-.1l-.1-.1h-.1v-.1h-.7v.1h-.2v.1h-.1l-.1.1h-.1v.1h-.1l-.1.1-.1.1h-.1v.1h-.1v.1h-.1v.1l-.1.1-.1.1v.1h-.1v.1l-.1.1v.1h-.1v.1l-.1.1v.1h-.1v.2l-.1.1v.1l-.1.1v.2l-.1.1v.1l-.1.1v.2l-.1.1v.2l-.1.1V303.3l-.1.1v.2l-.1.1v.4l-.1.1v.5l-.1.1v.5l-.1.1V306.1l-.1.1v1.3l-.1.1V312.7l.1.2V314.1l.1.3v1l.1.3V316.6l.1.3v.7l.1.3v.6l.1.3v.3l.1.3v.6l.1.3v.3l.1.2v.6l.1.3v.3l.1.2v.3l.1.3v.3l.1.2v.3l.1.2v.5l.1.3v.2l.1.2v.3l.1.2v.2l.1.2v.2l.1.2v.2l.1.2v.2l.1.2V327.4l.1.2v.2l.1.1v.2l.1.1v.2l.1.1v.2l.1.1v.2h.1v.2h.1v.1l.1.1.1.1.1.1h.2v-.1h.2l.1-.1h.1v-.1h.1l.1-.1h.1v-.1h.1v-.1h.1l.1-.1.1-.1.1-.1h.1l.1-.1.1-.1.1-.1.1-.1.1-.1.1-.1.1-.2.2-.1.1-.1.2-.2.3-.3.2-.3.2-.1.4-.4.3-.3.3-.3.2-.2.1-.1.2-.2.2-.1.1-.2.2-.2.2-.1.1-.2.2-.2.2-.1.2-.2.1-.2.2-.1.2-.2.2-.2.2-.2.2-.1.2-.2.2-.2.2-.1.1-.1v-.1h.1v-.1h.1v-.1h.1v-.1h.1v-.1h.1v-.1h.1l.1-.1v-.1h.1v-.1h.1v-.1l.1-.1.1-.1v-.1h.1v-.1h.1v-.2h.1v-.1h.1v-.2l.1-.1v-.1l.1-.1v-.2h.1v-.2h.1v-.3l.1-.1v-.1l.1-.1v-.2l.1-.1v-.1l.1-.1v-.1h.1v-.2h.1v-.1h.1v-.1l.1-.1v-.1h.1v-.1l.1-.1.1-.1v-.1l.1-.1v-.1l.1-.1h.1v-.1l.1-.2v-.1l.1-.1.1-.1v-.1l.1-.1v-.1l.1-.1.1-.2v-.1l.1-.1v-.1l.1-.1.1-.2v-.1l.1-.1v-.1l.1-.1V314.8h.1v-.2l.1-.1v-.2l.1-.1V313.9l.1-.1v-.6zM2349.1 266.2l-.2-.1H2344.7V259.9H2343.1l-.1.1-.1.1-.1.1-.1.1-.1.1-.1.1-.1.1-.1.1-.1.1-.1.1-.1.1-.1.1-.1.1-.1.1-.1.1-.1.1-.1.1-.1.1-.1.1-.1.1-.1.1-.1.1-.1.1-.1.1-.1.1-.1.1-.1.1-.1.1v.1l-.1.1V264l-.1.2-.1.2-.1.2-.1.2-.1.2-.1.2-.1.2-.1.2-.2.3-.2.3-.1.3-.1.1-.1.1-.1.1-.1.1-.1.1V267.3v-.2l-.1-.1-.1-.1-.1-.1-.1-.1-.1-.2-.1-.2-.1-.1-.1-.1-.1-.1-.1-.1-.1-.1-.1-.1-.1-.1-.1-.1-.1-.1V263.9l-.1-.1-.1-.1-.1-.1-.1-.1-.1-.1-.1-.1-.1-.1-.1-.1-.1-.1-.1-.1-.1-.1-.1-.1-.1-.1-.1-.1-.1-.1H2334.4v.4l.1.1v.1l.1.1.1.1.1.1.1.1.1.1.1.1.1.1.1.1.1.1.1.1.1.1.1.1.1.1.1.1.1.1.1.1.1.1.1.1.1.1.1.1.1.1.1.1V268.2l.1.2.1.2.1.1.1.1.1.1.1.1.1.1v.7l.1-.1-.1.1 2.4-.3 5.9-.7h.2V268H2347.5l1.6-1.8zm-9 .7z"/></g><g><path d="M3049.3 415.1s-161.8-168.7-502.7-24.1c-146.3 51.6-132.6 49.9-234.2 56-106.2-25.3-126.8-84.1-241.7-82.4-17.4.3-288.9 43.2-500.4-147.5-81.2-73.2-232.9-124.7-566.8 14.4-57.4 23.9-358.3 383.4 6.6 354.2 268.1-21.3 289.1-88.6 472.9-93.2 151.7-3.7 328.2 41.6 610.9 82.6 257.7 37.4 222.7-50 431-38.1 162.8 9.3 262.6 76.9 440.1 35.3 130.3-30.5 84.3-157.2 84.3-157.2z" fill="#ecf7d5" stroke="#ecf7d5" stroke-linecap="round" stroke-linejoin="round" stroke-miterlimit="1.5"/><path d="M2694.2 564.3c93.6 21.9 169.1 36.7 430-27.4 278.3-68.4 854.3 213.4 1050.4 22 147.5-144 90.3-487.8-92.4-300-288 296.1-420.4 56.1-702.7 103.8-167.5 28.3-267 97.7-393.9-11.3-146.2-125.7-562.9 96.4-562.9 96.4s141.3 85.9 271.5 116.5z" fill="#ecf7d5" stroke="#ecf7d5" stroke-linecap="round" stroke-linejoin="round" stroke-miterlimit="1.5"/><path d="M2622.1 453.4l17.8-14.3 9.8-2.9 2.1 13.4-19.9 3.9-9.8-.1zM1203.4 486.6l17.8-3.9 2.1-13.4-21.9 5.4-7.8 11.9h9.8z" fill="#d2e2b7"/><path d="M2645.9 265.7l9-5.4 12.2-1.5 6 1.7-.7 6.8-16.8.9-9.7-2.5zM1513.6 278.2l-16.8-.9-.7-6.8 6-1.7 12.2 1.5 9 5.4-9.7 2.5z" fill="#dcecbd"/><path d="M3206 419c-.4-3.3-.1-3.6 5.5-5.2s9.7-.2 8.8 3.3-1.5 4.4-5.1 4.7c-2.5.1-8.8.5-9.2-2.8z" fill="#bbcb9e"/><path d="M2130.7 469.7c-2.1.8-16.3 3-16.3 3l-1.1-4.3 9.9-6 7.7-2.5 7.1 3.8c0-.1-5.2 5.2-7.3 6zM3617.8 552.2l7.1-3.8 7.7 2.5 9.9 6-1.1 4.3s-14.2-2.2-16.3-3c-2.1-.7-7.3-6-7.3-6z" fill="#d2e2b7"/><path d="M2463.2 426.7c-1.8-3.9-8.8-14.3-7.9-18.3 1.1-5.3 3.3-2.2 5.8 3.9 3 7.2-1.7-15.7 3.8-20 2.6-2 1.9 2.5 4.2 13.6 2.7 12.8.5-6.1 10.7-6.1 1.3 0-2.1 5.5-4.1 17.5-1.7 10.7-10.7 13.3-12.5 9.4z" fill="#ecf7d5"/><path d="M2479.9 398.8h.1V401l-.1.2-.1.2-.1.2-.1.2-.1.2-.1.5-.2.5-.2.5-.1.3-.1.3-.1.3-.1.3-.1.3-.1.3-.1.3-.1.3-.1.2-.1.2-.1.2-.1.2-.1.2-.1.2-.1.2-.1.2-.1.2-.1.2-.1.2-.1.2-.1.2-.1.2-.1.2-.1.2-.1.2-.1.2-.1.2-.1.2-.1.2-.1.2-.1.2-.1.2-.1.2-.1.2-.1.2-.1.2-.1.2-.1.2-.1.2-.1.2-.1.2-.1.2-.1.2-.1.2-.1.3-.1.3-.1.3V421.7l-.1.1-.1.1-.1.1-.1.1-.1.1-.1.1-.1.1-.1.1-.1.1-.1.1-.1.1-.1.1-.1.1-.1.1-.1.1-.1.1-.1.1-.1.1-.1.1-.1.1-.1.1-.1.1-.1.1-.1.1-.1.1-.1.1-.1.1-.1.1-.1.1-.1.1-.1.1-.1.1-.1.1-.1.1-.1.1-.1.1-.1.1-.1.1-.1.1-.1.1-.1.1-.1.1-.1.1-.1.1-.1.1-.1.1-.1.1-.1.1-.1.1-.1.1-.1.1-.1.1-.1.1-.1.1-.1.1-.1.1-.1.1-.1.1-.1.1-.1.1h-.1l-.1.1H2456.8V426.3l-.1-.1-.1-.1-.1-.1-.1-.1-.1-.1-.1-.1-.1-.1-.1-.1-.1-.1-.1-.2-.1-.2-.1-.3-.1-.3-.2-.3-.2-.3-.2-.3-.3-.6-.3-.6-.3-.6-.2-.3-.2-.3-.2-.3-.2-.3-.2-.3-.2-.3-.2-.3-.2-.3-.2-.3-.1-.2-.1-.2-.1-.2-.1-.2-.1-.2-.1-.2-.1-.2-.1-.2-.1-.2-.1-.2-.1-.2-.1-.2-.1-.2-.1-.2-.1-.2-.1-.2-.1-.2-.1-.2-.1-.2-.1-.2-.1-.2-.1-.2-.1-.2-.1-.2-.1-.2-.1-.2-.1-.2-.1-.2-.1-.2-.1-.2-.1-.2-.1-.2-.1-.2-.1-.2-.1-.2-.1-.2-.1-.2-.1-.2-.1-.2-.1-.2-.1-.2V406.5v2.5V406.2l.1.1.1.1.1.1.1.1.1.1.1.1.1.1.1.1.1.1.1.1.1.1.1.1.1.1.1.1.1.1.1.1.1.1.1.1.1.1.1.1.1.1.1.1.1.1.1.1.1.1.1.1.1.1.1.1.1.1.1.1.1.1.1.1.1.1.1.1.1.1.1.1.1.1.1.1.1.1.1.1.1.1.1.1.1.1.1.1.1.1.1.1.1.1.1.1.1.1.1.1.1.1.1.1.1.1.1.1v.1V395.2l.1-.1h.1l.1-.1h.1V399.6l.1.6.1.7.1.4.1.4.1.4.1.4.1.4.1.4.1.4.1.4V407.3l.1.2.1.3.1.3.1.3.1.3.1.3.1.3.1.3.1.2.1.2.1.2v.9l.1-.2.1-.3.1-.3v-.1l.1-.2.1-.2.1-.2.1-.2.1-.2.1-.2.1-.2.1-.2.1-.2.1-.2V405.4l.1-.1.1-.1.1-.1.1-.1.1-.1.1-.1.1-.1.1-.1.1-.1.1-.1.1-.1.1-.1.1-.1.1-.1.1-.1.1-.1.1-.1.1-.1.1-.1.1-.1.1-.1.1-.1.1-.1.1-.1.1-.1.1-.1.1-.1.1-.1.1-.1.1-.1.1-.1.1-.1.1-.1.1-.1.1-.1.1-.1.1-.1.1-.1.1-.1.1-.1.1-.1.1-.1H2479.9v-2.4zm-14.1-6.3l-.1.1h-.1V413.1H2464.2V411.4l-.1-.3-.1-.3-.1-.3-.1-.1-.1-.1-.1-.1-.1-.1-.1-.1-.1-.1-.1-.1-.1-.1-.1-.1-.1-.1-.1-.1-.1-.1-.1-.1-.1-.1-.1-.1-.1-.1-.1-.1-.1-.1-.1-.1-.1-.1-.1-.1-.1-.1-.1-.1-.1-.1-.1-.1-.1-.1-.1-.1-.1-.1-.1-.1-.1-.1-.1-.1-.1-.1-.1-.1-.1-.1V405.6 410.6l.1.1.1.1.1.1.1.2.1.1.1.2.1.2.1.2.1.2.1.2.1.2.1.2.1.2.1.2.1.2.1.2.1.2.1.2.1.2.1.2.1.2.1.2.1.2.1.2.1.2.1.2.1.2.1.2.1.2.1.2.1.2.1.2.1.2.1.2.1.2.1.2.1.2.1.2.1.2.2.3.2.3.2.3.2.3.2.3.2.3.2.3.2.3.2.3.3.6.3.6.3.6.2.3.2.3.2.3.1.3.1.3.1.3.1.2.1.1.1.1.1.1.1.1.1.1.1.1.1.1.1.1.1.1.1.1.1.1V425.9H2476.1l.1-.1h.1l.1-.1h.1l.1-.1.1-.1.1-.1.1-.1.1-.1.1-.1.1-.1.1-.1.1-.1.1-.1.1-.1.1-.1.1-.1.1-.1.1-.1.1-.1.1-.1.1-.1.1-.1.1-.1.1-.1.1-.1.1-.1.1-.1.1-.1.1-.1.1-.1.1-.1.1-.1.1-.1.1-.1V414.2l.1-.3.1-.3.1-.3.1-.3.1-.3.1-.3.1-.3.1-.2.1-.3.1-.2.1-.2.1-.2.1-.2.1-.2.1-.2.1-.2.1-.2.1-.2.1-.2.1-.2.1-.2.1-.2.1-.2.1-.2.1-.2.1-.2.1-.2.1-.2.1-.2.1-.2.1-.2.1-.2.1-.2.1-.2.1-.2.1-.2.1-.2.1-.2.1-.2.1-.2.1-.2.1-.2.1-.3.1-.3.1-.3.1-.3.1-.3.1-.3.1-.3.1-.3.2-.5.2-.5.1-.4.1-.2.1-.2.1-.2.1-.2.1-.2V399.2h-.4l-.1.1-.1.1-.1.1-.1.1-.1.1-.1.1-.1.1-.1.1-.1.1-.1.1-.1.1-.1.1-.1.1-.1.1-.1.1-.1.1-.1.1-.1.1-.1.1-.1.1-.1.1-.1.1-.1.1-.1.1-.1.1-.1.1-.1.1-.1.1-.1.1V405.9l-.1.2-.1.2-.1.2-.1.2-.1.2-.1.2-.1.1-.1.2V407.7l-.1.3-.1.3-.1.3-.1.2v.7H2480.1V406.6l-.1-.2-.1-.2-.1-.2-.1-.3-.1-.3-.1-.3-.1-.3-.1-.3-.1-.3-.1-.3-.1-.3-.1-.3V400l-.1-.4-.1-.4-.1-.4-.1-.4-.1-.4-.1-.4-.1-.4-.1-.4-.1-.7-.1-.6V391.3l-12.1 1.2zm847.6-54.5l-.1.1v4.2l-.1.6-.1.7-.1.4-.1.4-.1.4-.1.4-.1.4-.1.4-.1.4-.1.4V350.1l-.1.3-.1.3-.1.3-.1.3-.1.3-.1.3-.1.3-.1.3-.1.3-.1.2-.1.2-.1.2V356.3H3310.1v-.7l-.1-.2-.1-.3-.1-.3-.1-.3V354.2l-.1-.2-.1-.1-.1-.2-.1-.2-.1-.2-.1-.2-.1-.2-.1-.2V348.9l-.1-.1-.1-.1-.1-.1-.1-.1-.1-.1-.1-.1-.1-.1-.1-.1-.1-.1-.1-.1-.1-.1-.1-.1-.1-.1-.1-.1-.1-.1-.1-.1-.1-.1-.1-.1-.1-.1-.1-.1-.1-.1-.1-.1-.1-.1-.1-.1-.1-.1-.1-.1-.1-.1-.1-.1-.1-.1h-.4V347l.1.2.1.2.1.2.1.2.1.2.1.4.2.5.2.5.1.3.1.3.1.3.1.3.1.3.1.3.1.3.1.3.1.2.1.2.1.2.1.2.1.2.1.2.1.2.1.2.1.2.1.2.1.2.1.2.1.2.1.2.1.2.1.2.1.2.1.2.1.2.1.2.1.2.1.2.1.2.1.2.1.2.1.2.1.2.1.2.1.2.1.2.1.2.1.2.1.2.1.3.1.2.1.3.1.3.1.3.1.3.1.3.1.3.1.3V369.4l.1.1.1.1.1.1.1.1.1.1.1.1.1.1.1.1.1.1.1.1.1.1.1.1.1.1.1.1.1.1.1.1.1.1.1.1.1.1.1.1.1.1.1.1.1.1.1.1.1.1.1.1.1.1.1.1.1.1.1.1.1.1h.1l.1.1h.1l.1.1H3322V372.4l.1-.1.1-.1.1-.1.1-.1.1-.1.1-.1.1-.1.1-.1.1-.1.1-.1.1-.1.1-.2.1-.3.1-.3.1-.3.2-.3.2-.3.2-.3.3-.6.3-.6.3-.6.2-.3.2-.3.2-.3.2-.3.2-.3.2-.3.2-.3.2-.3.2-.3.1-.2.1-.2.1-.2.1-.2.1-.2.1-.2.1-.2.1-.2.1-.2.1-.2.1-.2.1-.2.1-.2.1-.2.1-.2.1-.2.1-.2.1-.2.1-.2.1-.2.1-.2.1-.2.1-.2.1-.2.1-.2.1-.2.1-.2.1-.2.1-.2.1-.2.1-.2.1-.2.1-.2.1-.2.1-.1.1-.2.1-.1.1-.1.1-.1V352.4 353.9l-.1.1-.1.1-.1.1-.1.1-.1.1-.1.1-.1.1-.1.1-.1.1-.1.1-.1.1-.1.1-.1.1-.1.1-.1.1-.1.1-.1.1-.1.1-.1.1-.1.1-.1.1-.1.1-.1.1-.1.1-.1.1-.1.1-.1.1-.1.1-.1.1-.1.1-.1.1-.1.1-.1.1-.1.1-.1.3-.1.3-.1.3V359.9H3325.6V339.4h-.1l-12.1-1.4zM1360.1 110.1l-.1.1v4.2l-.1.6-.1.7-.1.4-.1.4-.1.4-.1.4-.1.4-.1.4-.1.4-.1.4V122.2l-.1.3-.1.3-.1.3-.1.3-.1.3-.1.3-.1.3-.1.3-.1.3-.1.2-.1.2-.1.2V128.4H1356.8v-.7l-.1-.2-.1-.3-.1-.3-.1-.3V126.3l-.1-.2-.1-.1-.1-.2-.1-.2-.1-.2-.1-.2-.1-.2-.1-.2V121l-.1-.1-.1-.1-.1-.1-.1-.1-.1-.1-.1-.1-.1-.1-.1-.1-.1-.1-.1-.1-.1-.1-.1-.1-.1-.1-.1-.1-.1-.1-.1-.1-.1-.1-.1-.1-.1-.1-.1-.1-.1-.1-.1-.1-.1-.1-.1-.1-.1-.1-.1-.1-.1-.1-.1-.1-.1-.1h-.4V119.1l.1.2.1.2.1.2.1.2.1.2.1.4.2.5.2.5.1.3.1.3.1.3.1.3.1.3.1.3.1.3.1.3.1.2.1.2.1.2.1.2.1.2.1.2.1.2.1.2.1.2.1.2.1.2.1.2.1.2.1.2.1.2.1.2.1.2.1.2.1.2.1.2.1.2.1.2.1.2.1.2.1.2.1.2.1.2.1.2.1.2.1.2.1.2.1.2.1.2.1.3.1.2.1.3.1.3.1.3.1.3.1.3.1.3.1.3V141.5l.1.1.1.1.1.1.1.1.1.1.1.1.1.1.1.1.1.1.1.1.1.1.1.1.1.1.1.1.1.1.1.1.1.1.1.1.1.1.1.1.1.1.1.1.1.1.1.1.1.1.1.1.1.1.1.1.1.1.1.1.1.1h.1l.1.1h.1l.1.1H1368.7V144.5l.1-.1.1-.1.1-.1.1-.1.1-.1.1-.1.1-.1.1-.1.1-.1.1-.1.1-.1.1-.2.1-.3.1-.3.1-.3.2-.3.2-.3.2-.3.3-.6.3-.6.3-.6.2-.3.2-.3.2-.3.2-.3.2-.3.2-.3.2-.3.2-.3.2-.3.1-.2.1-.2.1-.2.1-.2.1-.2.1-.2.1-.2.1-.2.1-.2.1-.2.1-.2.1-.2.1-.2.1-.2.1-.2.1-.2.1-.2.1-.2.1-.2.1-.2.1-.2.1-.2.1-.2.1-.2.1-.2.1-.2.1-.2.1-.2.1-.2.1-.2.1-.2.1-.2.1-.2.1-.2.1-.1.1-.2.1-.1.1-.1.1-.1V124.5 126l-.1.1-.1.1-.1.1-.1.1-.1.1-.1.1-.1.1-.1.1-.1.1-.1.1-.1.1-.1.1-.1.1-.1.1-.1.1-.1.1-.1.1-.1.1-.1.1-.1.1-.1.1-.1.1-.1.1-.1.1-.1.1-.1.1-.1.1-.1.1-.1.1-.1.1-.1.1-8.3-.1-.1.1-.1.1-.1.3-.1.3-.1.3V131.8H1364.1V111.3h-.1l-3.9-1.2zM2205.4 402c-.2-1.8-2.1-11.4 0-16 1.5-3.5 3.6 4 3.8 8.6.1 2.2.9-2.9 3.4-7.4 1.9-3.4 4.9-6.4 7-8 3.3-2.5-1.7 8-2.7 14.8-.5 3 .1-.2 3-2 2.3-1.4 5.6-1.2 7.2-.3 1.8 1.1-.7.2-6 6.9-2 2.6-3.1 7.3-4.1 9.1-2.7 5.1-11.4-3.9-11.6-5.7zM3952.1 334.6V337l.1.3.1.3.1.3.1.3.1.3.1.3.2.6.2.7.1.3.1.3.1.3.1.4.1.4.1.4.1.4.1.2.1.2.1.2.1.2.1.2.1.2.1.2.1.2V350.9H3953.6v-.1l-.1-.1-.1-.1v-.2l-.1-.1-.1-.1-.1-.1-.1-.1-.1-.1-.1-.1-.1-.1-.1-.1H3941.5h.2l.1.1.2.1.1.1.1.1.1.1.1.1.1.1.1.1.1.1.1.1.1.1.1.1.1.1.1.1.1.1.1.1.1.1.1.1.1.1.1.1.1.1.1.1.1.1.1.1.1.1.1.1.1.1.1.1.1.1.1.1.1.1.1.1.1.1.1.1.1.1.1.1.1.1.1.1.1.1.1.1.1.1.1.1.1.1.1.1.1.1.1.1.1.1.1.1.1.1.1.1.1.1.1.1.1.1.1.1.1.1.1.1.1.1.1.1.1.2.1.2.1.2.1.2V359.8l.1.2.1.2.1.2.1.2.1.2.1.2.1.2.1.2.1.2.1.2.1.2.1.2.1.2.1.2.1.2.1.2.1.3.1.3.1.3.1.3.1.3.1.3v.1l.1.1v1.3H3957.1l.1-.1.1-.1.1-.1.1-.1.1-.1.1-.1.1-.1.1-.1.1-.1.1-.1.1-.1.1-.1.1-.1.1-.1.1-.1.1-.1.1-.1.1-.1.1-.1.1-.1.1-.1.1-.1.1-.1.1-.1.1-.1.1-.1.1-.1.1-.1.1-.1.1-.1.1-.1.1-.1.1-.1.1-.1.1-.1.1-.1.1-.1.1-.1.1-.1.1-.1.1-.1.1-.1.1-.1.1-.1.1-.1.1-.1.1-.1.1-.1.1-.1V359.7l.1-.4.1-.4V343.5 352.1h-.2v-.6l-.1-.2-.1-.3-.1-.3-.1-.3v-.2l-.1-.2-.1-.2-.1-.2-.1-.2-.1-.2-.1-.2-.1-.2-.1-.2-.1-.2-.1-.2-.1-.2-.1-.2-.1-.2V345.9l-.1-.1-.1-.1-.1-.1-.1-.1-.1-.1-.1-.1-.1-.1-.1-.1-.1-.1-.1-.1-.1-.1-.1-.1-.1-.1-.1-.1-.1-.1V342.9l-.1-.1-.1-.1-.1-.1-.1-.1-.1-.1-.1-.1-.1-.1-.1-.1-.1-.1-.1-.1-.1-.1-.1-.1-.1-.1-.1-.1-.1-.1-.1-.1-.1-.1-.1-.1-.1-.1-.1-.1-.1-.1-.1-.1-.1-.1-.1-.1-.1-.1-.1-.1-.1-.1-.1-.1-.1-.1-.1-.1-.1-.1-.1-.1-.1-.1-.1-.1-.1-.1-.1-.1-.1-.1-.1-.1-.1-.1-.1-.1-.1-.1-.1-.1-.1-.1-.1-.1-.1-.1-.1-.1-.1-.1-.1-.1-.1-.1-.1-.1-.1-.1-.1-.1-.1-.1-.1-.1-.1-.1-.1-.1-.1-.1-.1-.1-.1-.1-.1-.1-.1-.1-.1-.1-.5-2.1zm-2809 66.6V403.6l.1.3.1.3.1.3.1.3.1.3.1.3.2.6.2.7.1.3.1.3.1.3.1.4.1.4.1.4.1.4.1.2.1.2.1.2.1.2.1.2.1.2.1.2.1.2V417.5H1144.6v-.1l-.1-.1-.1-.1v-.2l-.1-.1-.1-.1-.1-.1-.1-.1-.1-.1-.1-.1-.1-.1-.1-.1H1135h4H1136.6h.2l.1.1.2.1.1.1.1.1.1.1.1.1.1.1.1.1.1.1.1.1.1.1.1.1.1.1.1.1.1.1.1.1.1.1.1.1.1.1.1.1.1.1.1.1.1.1.1.1.1.1.1.1.1.1.1.1.1.1.1.1.1.1.1.1.1.1.1.1.1.1.1.1.1.1.1.1.1.1.1.1.1.1.1.1.1.1.1.1.1.1.1.1.1.1.1.1.1.1.1.1.1.1.1.1.1.1.1.1.1.1.1.1.1.1.1.1.1.2.1.2.1.2.1.2V426.4l.1.2.1.2.1.2.1.2.1.2.1.2.1.2.1.2.1.2.1.2.1.2.1.2.1.2.1.2.1.2.1.2.1.3.1.3.1.3.1.3.1.3.1.3v.1l.1.1v1.3H1152.2l.1-.1.1-.1.1-.1.1-.1.1-.1.1-.1.1-.1.1-.1.1-.1.1-.1.1-.1.1-.1.1-.1.1-.1.1-.1.1-.1.1-.1.1-.1.1-.1.1-.1.1-.1.1-.1.1-.1.1-.1.1-.1.1-.1.1-.1.1-.1.1-.1.1-.1.1-.1.1-.1.1-.1.1-.1.1-.1.1-.1.1-.1.1-.1.1-.1.1-.1.1-.1.1-.1.1-.1.1-.1.1-.1.1-.1.1-.1.1-.1.1-.1V426.3l.1-.4.1-.4V410.1 418.7H1154v-.6l-.1-.2-.1-.3-.1-.3-.1-.3v-.2l-.1-.2-.1-.2-.1-.2-.1-.2-.1-.2-.1-.2-.1-.2-.1-.2-.1-.2-.1-.2-.1-.2-.1-.2-.1-.2V412.5l-.1-.1-.1-.1-.1-.1-.1-.1-.1-.1-.1-.1-.1-.1-.1-.1-.1-.1-.1-.1-.1-.1-.1-.1-.1-.1-.1-.1-.1-.1V409.5l-.1-.1-.1-.1-.1-.1-.1-.1-.1-.1-.1-.1-.1-.1-.1-.1-.1-.1-.1-.1-.1-.1-.1-.1-.1-.1-.1-.1-.1-.1-.1-.1-.1-.1-.1-.1-.1-.1-.1-.1-.1-.1-.1-.1-.1-.1-.1-.1-.1-.1-.1-.1-.1-.1-.1-.1-.1-.1-.1-.1-.1-.1-.1-.1-.1-.1-.1-.1-.1-.1-.1-.1-.1-.1-.1-.1-.1-.1-.1-.1-.1-.1-.1-.1-.1-.1-.1-.1-.1-.1-.1-.1-.1-.1-.1-.1-.1-.1-.1-.1-.1-.1-.1-.1-.1-.1-.1-.1-.1-.1-.1-.1-.1-.1-.1-.1-.1-.1-.1-.1-.1-.1-.1-.1-1.5-2.1zM2113.9 369.7c.5-1.6 2.9-3-.1-6.4-3.8-4.4-8.7-6.6-6.8-8.1 5.1-4 9.7 2.6 10.4 6.5.3 1.6.1 3.3.4 2.8 1.3-2.2 5.6-3.5 6.4-1.7 1.5 3.5-1.7 1.9-3.5 3.7-2.1 2-.2 1.7-1 2.8-2.6 3.8-5.8.4-5.8.4z" fill="#ecf7d5"/><path d="M2122.8 361.5H2124.6V363.9H2120.5l-.1-.1h-.4l.2.1h-.1v-.7l.1-.2V359.2l-.1-.1-.1-.1-.1-.1-.1-.1-.1-.1-.1-.1-.1-.1-.1-.1-.1-.1-.1-.1-.1-.1-.1-.1-.1-.1-.1-.1-.1-.1-.1-.1-.1-.1-.1-.1-.1-.1-.1-.1-.1-.1-.1-.1-.1-.1-.1-.1-.1-.1-.1-.1-.1-.1-.1-.1-.1-.1-.1-.1-.1-.1-.1-.1-.1-.1-.1-.1-.1-.1-.1-.1-.1-.1-.1-.1-.1-.1-.1-.1-.2-.2-.2-.2-.2-.2-.2-.2-.2-.1-.2-.1-.2-.1-.3-.3-.3-.3-.2-.1-.2-.1-.2-.1-.1-.1-.1-.1-.1-.1-.1-.1-.1-.1-.1-.1-.1-.1-.1-.1-.1-.1-.1-.1-.1-.1-.1-.1-.1-.1-.1-.1-.1-.1-.1-.1-.1-.1-.1-.1-.1-.1v-1.2H2123l.1.1.1.1.1.1.1.1.1.1.1.1.1.1.1.1.1.1.1.1.1.1.1.1.1.1.1.1.1.1.1.1.1.1.1.1.1.1.1.1.1.1.1.1.1.1v.1l.1.1.1.1.1.1.1.1V357.2H2132.6l-9.8 4.3zm-496.4-112.3h-1.2V251l.1.1.1.1.1.1.1.1.1.1.1.2.1.2.2.3.2.3.1.2.1.2.1.2.1.2.1.2.1.2.1.2V261.6l-.1.1-.1.1-.1.1-.1.1-.1.1-.1.1-.1.1-.1.1-.1.1-.1.1-.1.1-.1.1v.6-.2h1.1v-1.3h-1.2V254.2l.7-5z" fill="#ecf7d5"/></g></svg>