<svg xmlns="http://www.w3.org/2000/svg" xmlns:xlink="http://www.w3.org/1999/xlink" width="6290" height="3090" viewBox="0 0 6290 3090">
  <defs>
    <circle id="a" cx="622.909197" cy="622.909197" r="622.909197"/>
    <circle id="c" cx="943" cy="943" r="943"/>
    <circle id="e" cx="623" cy="623" r="623"/>
  </defs>
  <g fill="none" fill-rule="evenodd">
    <g transform="translate(4595 525)">
      <rect width="1695" height="2041.13406" fill="#F7F7F7" fill-rule="nonzero" rx="100"/>
      <rect width="1083.32034" height="92.4785659" x="224.590803" y="1589.97077" fill="#E3E3E3" fill-rule="nonzero" rx="46.2392829"/>
      <rect width="819.095869" height="92.4785659" x="224.590803" y="1728.68862" fill="#E3E3E3" fill-rule="nonzero" rx="46.2392829"/>
      <g transform="translate(224.590803 185.617693)">
        <circle cx="622.909197" cy="622.909197" r="622.909197" fill="#CFE1B7" fill-rule="nonzero"/>
        <mask id="b" fill="#fff">
          <use xlink:href="#a"/>
        </mask>
        <g fill-rule="nonzero" mask="url(#b)">
          <path fill="#ED923F" d="M1239.13408 770.386743c-98.03665 2.112859-127.61667 24.931734-164.956654 49.786637-19.476716 12.946063-87.702849 51.592171-149.244664 53.897108-70.531069 2.612262-154.161863-37.263146-154.161863-37.263146l-13.099724 109.023515s71.990862 41.949852 171.487305 38.838187c96.461609-3.034834 155.160669-51.054353 166.33961-58.775891 33.30634-23.087785 79.09776-43.371229 148.63002-44.523698 71.91403-1.152468 156.9662 49.364065 156.9662 49.364065l8.14411-108.869853s-64.92239-53.743445-170.10434-51.476924z"/>
          <path fill="#E28D44" d="M794.434918 821.710005c-2.842755 16.595546 23.779266 72.259772 61.464984 98.343974 32.538026 22.511551 91.045008 58.775891 117.167626 89.508383 26.122618 30.732492-127.923998 72.989669-127.923998 72.989669l-74.526293-122.161656-39.568084-72.989668 39.568084-61.464984s25.738462-15.366246 23.817681-4.225718z"/>
          <path fill="#FCB460" d="M1021.048631 1125.50069c-.384156-21.74324-9.104501-42.602919-24.816487-61.849142-72.067694-119.049991-241.595803-128.000829-213.93656-272.251463 26.506774-138.296214 128.69231-207.444321 128.69231-352.655346 0-174.59897-122.200071-316.16051138-272.942945-316.16051138h-22.050563c-150.742873 0-272.942944 141.56154138-272.942944 316.16051138 0 145.211025 102.185536 214.359132 128.69231 352.655346 31.731298 165.5713-196.303793 152.894147-238.560969 333.063375-1.114053 4.76354.307325 8.29778 3.879977 10.75638 9.37341 95.77013 181.206456 172.10195 391.800857 172.10195 214.858535 0 389.342258-79.44349 392.185014-177.90271.230494-1.2293.230494-2.53543 0-3.91839z"/>
          <path fill="#ED923F" d="M853.594965 893.931361s-82.631988 52.783055-218.584849 49.171988c-126.733114-3.380574-214.743288-49.9403-214.743288-49.9403l25.738462-107.947878s102.992264 45.253595 192.846387 47.251206c92.927373 2.074444 201.681979-47.251206 201.681979-47.251206l13.061309 108.71619z"/>
          <path fill="#EBA24C" d="M1158.23079 1161.6882s-389.150178 172.02512-531.287953 168.26039c-132.495456-3.53424-537.050298-154.43077-537.050298-154.43077l305.404139-251.622279s104.106317 54.550173 242.402531 55.702642c157.119865 1.306131 228.957065-49.556143 228.957065-49.556143l291.574516 231.64616z"/>
        </g>
        <g fill-rule="nonzero" transform="translate(414.12033 295.800235)">
          <path fill="#FEF4E9" d="M92.9657883 0C41.604111 0 0 41.604111 0 92.9657883c0 51.3616777 41.604111 92.9657887 92.9657883 92.9657887 51.3616777 0 92.9657887-41.604111 92.9657887-92.9657887C185.931577 41.604111 144.327466 0 92.9657883 0zM72.7975904 120.625031c-26.8525149 0-48.595753-21.743238-48.595753-48.5957529s21.7432381-48.595753 48.595753-48.595753c26.8525149 0 48.5957526 21.7432381 48.5957526 48.595753 0 26.8525149-21.7432377 48.5957529-48.5957526 48.5957529z"/>
          <circle cx="72.7975904" cy="72.0292781" r="48.595753" fill="#495061"/>
          <path fill="#FEF4E9" d="M328.069352 0c-51.361677 0-92.965788 41.604111-92.965788 92.9657883 0 51.3616777 41.604111 92.9657887 92.965788 92.9657887s92.965788-41.604111 92.965788-92.9657887C421.03514 41.604111 379.431029 0 328.069352 0zm-20.168198 120.625031c-26.852515 0-48.595753-21.743238-48.595753-48.5957529s21.743238-48.595753 48.595753-48.595753 48.595753 21.7432381 48.595753 48.595753c0 26.8525149-21.743238 48.5957529-48.595753 48.5957529z"/>
          <circle cx="307.901154" cy="72.0292781" r="48.595753" fill="#495061"/>
        </g>
        <path stroke="#495061" stroke-linecap="round" stroke-width="32" d="M580.075786 542.428484c13.829622 22.281056 53.397705 49.556143 89.89254 0"/>
        <g fill="#FDCBC4" fill-rule="nonzero" transform="translate(441.779572 493.256497)">
          <circle cx="26.5067743" cy="26.5067743" r="26.5067743"/>
          <circle cx="355.344439" cy="26.5067743" r="26.5067743"/>
        </g>
        <path fill="#FCB460" fill-rule="nonzero" d="M693.978085 93.7341006c-8.566682 0-16.172974 4.2257176-20.821263 10.7179564-.460988-23.2414469-11.063698-42.0266826-27.351918-45.2920099-19.054145-3.8031459-39.107096 14.9820898-46.713388 42.7181639-.076831-5.186108-.691481-10.5258785-1.920781-15.9040646-7.721538-33.6904944-36.610081-55.8563042-64.538233-49.4408965-27.928152 6.4154077-44.293204 38.915018-36.571666 72.6055121 7.721539 33.690495 36.610082 55.856304 64.538234 49.440897 17.056533-3.918393 29.810517-17.555936 35.380781-35.265535-.384156 24.509163 10.410632 44.715776 27.351918 48.09635 19.092561 3.803146 39.222343-15.097337 46.790219-42.948657 3.687899 9.565488 12.984478 16.326636 23.817681 16.326636 14.098531 0 25.546384-11.447853 25.546384-25.546384s-11.409437-25.5079684-25.507968-25.5079684z"/>
        <g stroke="#4A4E5D" stroke-width="30" transform="translate(396.064991 122.161656)">
          <circle cx="127.424595" cy="71.5682907" r="71.3377971"/>
          <path d="M199.530704 69.5322631c8.566682-11.5246845 19.97612-18.554742 32.499611-18.554742 12.52349 0 23.932928 7.0300575 32.49961 18.554742M.38415615 137.143746c-1.11405284-15.174168 3.38057412-32.883767 13.67595895-43.3712298 10.2569692-10.5258785 24.5859936-15.2509991 39.7601615-14.4826868"/>
          <circle cx="334.715253" cy="71.5682907" r="71.3377971"/>
        </g>
        <path stroke="#4A4E5D" stroke-width="30" d="M852.711406 253.927215c1.114053-15.174168-3.380574-32.883766-13.675959-43.371229-10.256969-10.525879-24.585993-15.250999-39.760161-14.482687"/>
        <ellipse cx="413.320209" cy="266.392045" fill="#FCB460" fill-rule="nonzero" rx="50.5154223" ry="23.2409358" transform="rotate(-60 413.320209 266.392045)"/>
        <ellipse cx="841.631574" cy="266.371185" fill="#FCB460" fill-rule="nonzero" rx="23.2409358" ry="50.5154223" transform="rotate(-30 841.631574 266.371185)"/>
      </g>
    </g>
    <g transform="translate(1862)">
      <rect width="2566" height="3090" fill="#F7F7F7" fill-rule="nonzero" rx="100"/>
      <rect width="1640" height="140" x="340" y="2407" fill="#E3E3E3" fill-rule="nonzero" rx="70"/>
      <rect width="1240" height="140" x="340" y="2617" fill="#E3E3E3" fill-rule="nonzero" rx="70"/>
      <circle cx="943" cy="943" r="943" fill="#CFE1B7" fill-rule="nonzero" transform="translate(340 281)"/>
      <g transform="translate(340 281)">
        <mask id="d" fill="#fff">
          <use xlink:href="#c"/>
        </mask>
        <g mask="url(#d)">
          <g transform="translate(351.262411 129.106383)">
            <path stroke="#65A1E3" stroke-width="150" d="M262.54643267 1329.44810215c-118.47570834-6.20904878-139.07453644 33.47649952-126.64359073 443.00180515M931.93830813 1333.09580194c118.56602975-4.140417 138.46910523 35.89858637 118.8928484 445.14455947"/>
            <path fill="#65A1E3" fill-rule="nonzero" d="M1196.2695 724.042553c0-218.085106-221.923401-406.33617-511.191486-438.787234-26.693617-3.256737-147.192908-3.256737-173.886525 0C221.923404 317.706383 0 505.957447 0 724.042553c0 151.84539 12.4836886 156.265252 221.089362 487.929077 2.965958 6.45532 18.513475 22.85532 18.513475 29.07802v483.27659l357.078014 54.4922 358.241135-54.4922v-483.27659c0-3.8383 14.364538-26.03688 15.702127-30.04965C1183.59148 872.066668 1196.2695 876.992908 1196.2695 724.042553z"/>
            <ellipse cx="291.361702" cy="895.893617" fill="#F6AB9D" fill-rule="nonzero" rx="59.9007092" ry="35.7659574"/>
            <ellipse cx="900.255319" cy="895.893617" fill="#F6AB9D" fill-rule="nonzero" rx="59.9007092" ry="35.7659574"/>
            <g fill-rule="nonzero">
              <path fill="#9DD3EB" d="M198.893617 1766.780142l21.4033132-493.7446812 448.4740758 83.7446812 301.853107-83.7446812L978.37242 1503.5l14.932545 223.734042s-405.169698 64.553192-422.093248 68.042554c-16.92355 3.489361-372.3181-28.496454-372.3181-28.496454z"/>
              <path fill="#65BFDF" d="M970.624113 1342.241135s-98.167769 90.141844-375.397163 90.141844c-276.043929 0-375.3971628-90.141844-375.3971628-90.141844v-130.269504s143.3847808 98.8652482 375.3971628 95.9574468c237.262298-2.9659574 375.397163-95.9574468 375.397163-95.9574468v130.269504zm13.205674 242.510638s-101.594211 90.141844-388.5 90.141844c-285.678947 0-388.4999998-90.141844-388.4999998-90.141844l6.3446652-130.269504s142.0448086 98.865249 382.1553346 95.957447c245.543684-2.965957 382.418512-95.957447 382.418512-95.957447l6.081488 130.269504z"/>
            </g>
            <path fill="#65A1E3" fill-rule="nonzero" d="M650.358865 112.299291c-4.943262 58.912057-39.662411 206.279432-78.103546 201.161702-43.617021-5.815603-45.419858-152.252482-40.476596-211.164539C536.721986 43.3843972 567.312057-2.09361702 600.053901.63971631 632.795745 3.43120567 655.302128 53.387234 650.358865 112.299291z"/>
            <path fill="#65A1E3" fill-rule="nonzero" d="M604.822695 303.574468c33.148936 43.849645 71.648227-14.190071 109.333333-30.241135 39.5461-16.865248 57.574468-19.191489 57.574468-52.340425 0-33.846809-57.458156-36.75461-94.154609-18.551773-36.696454 18.144681-90.781561 77.289361-72.753192 101.133333zm-44.198582 6.978723c-10.875177 14.887944-39.895035-24.948936-82.58156-50.014184-29.252482-17.156028-50.014184-34.893617-34.660993-60.947518 9.363121-15.934751 41.930497-10.758865 69.26383 9.246809 27.333333 20.005674 58.853901 86.82695 47.978723 101.714893z"/>
            <path stroke="#40455F" stroke-linecap="round" stroke-width="30" d="M536.198582 909.560284c21.51773 54.085106 103.51773 54.085106 125.035461 0M291.361702 751.434043c32.451064-81.476596 155.974468-81.476596 188.425532 0m232.042553 0c32.451064-81.476596 155.974468-81.476596 188.425532 0"/>
          </g>
        </g>
      </g>
    </g>
    <g transform="translate(0 525)">
      <rect width="1695" height="2041" fill="#F7F7F7" fill-rule="nonzero" rx="100"/>
      <rect width="1084" height="92" x="224" y="1590" fill="#E3E3E3" fill-rule="nonzero" rx="46"/>
      <rect width="820" height="92" x="224" y="1729" fill="#E3E3E3" fill-rule="nonzero" rx="46"/>
      <circle cx="623" cy="623" r="623" fill="#CFE1B7" fill-rule="nonzero" transform="translate(225 186)"/>
      <g transform="translate(225 186)">
        <mask id="f" fill="#fff">
          <use xlink:href="#e"/>
        </mask>
        <g mask="url(#f)">
          <path stroke="#FA9064" stroke-width="150" d="M985.888375 1196.05242l9.451619-60.321307c14.753746-163.290164-18.288499-157.911194-51.330743-157.911194M286.6222632 1196.05242l-6.7621338-60.321307c-14.7537466-163.290164 18.2884983-157.911194 51.3307436-157.911194"/>
          <g fill-rule="nonzero">
            <path fill="#FEA770" d="M302.75917364 907.893308H971.288314v350.40148H302.75917364z"/>
            <path fill="#FDCD9A" d="M298.53284 986.2725864h676.213383v78.3792786H298.53284v-78.3792786zm0 130.6321306h676.213383v78.379278H298.53284v-78.379278z"/>
          </g>
          <path fill="#FD8F63" fill-rule="nonzero" d="M1050.051804 840.27197c-18.288499-30.468023-265.990071-453.370336-270.408511-460.939316 20.824299-9.374776 35.270675-30.237496 35.270675-54.481282 0-33.0038239-26.818008-59.7449895-59.937095-59.7449895-8.183719 0-15.983225 1.6521123-23.052729 4.5721246 1.997903-13.5242677-.691582-26.818008-8.721616-37.4606846-18.519025-24.70484115-58.438668-26.04958367-89.175639-2.9968547-8.683195 6.4931853-15.675856 14.2542707-20.86272 22.5916744-6.070552-30.0453901-28.854333-52.4065372-56.056553-52.4065372-31.812766 0-57.631822 30.6217083-57.631822 68.3897626 0 12.9095282 3.035276 25.0122109 8.260561 35.3090964-23.475362-3.304224-44.9144 5.916867-51.407585 23.744311-6.723713 18.442183 4.725809 40.073327 26.164847 52.483379-5.148443 8.798459-252.1584337 430.509714-270.40851076 460.939316-18.44218314 30.736972 12.67900096 86.063521 34.19488126 86.063521h769.5769345c21.515881 0 52.637065-55.326549 34.194882-86.063521z"/>
          <g fill="#FEF4E9" fill-rule="nonzero" transform="translate(434.543941 490.254702)">
            <circle cx="99.5109467" cy="99.5109467" r="99.5109467"/>
            <circle cx="302.374961" cy="99.5109467" r="99.5109467"/>
          </g>
          <g fill="#495063" fill-rule="nonzero" transform="translate(521.375886 557.107616)">
            <circle cx="37.0764724" cy="37.0764724" r="37.0764724"/>
            <circle cx="246.472094" cy="37.0764724" r="37.0764724"/>
          </g>
          <path stroke="#495063" stroke-width="25" d="M433.5834098 537.32069001L607.82362 532.133826s22.47641 133.12951-83.566143 137.355843c-107.0030835 4.264755-90.6740672-132.16897899-90.6740672-132.16897899zm399.7343202 0L659.07752 532.133826s-22.47641 133.12951 83.566143 137.355843c106.964662 4.264755 90.674067-132.16897899 90.674067-132.16897899zM609.821523 577.1634899c4.341597-5.1484428 23.936417-32.9269812 47.373358.1152636l-47.373358-.1152636zm-173.2412584 18.6727104l-66.77607153-26.6259019 66.77607153 26.6259019zm392.7416594 0l66.776071-26.6259019-66.776071 26.6259019z"/>
          <path stroke="#495063" stroke-linecap="round" stroke-width="25" d="M584.962997 752.863706c15.752698 39.958064 76.074006 44.952821 96.43725 0"/>
          <path stroke="#495063" stroke-linecap="round" stroke-width="15" d="M492.752081 456.251927c16.905335-13.447425 58.400247-13.831638 76.84243 0m122.947888 0c16.905334-13.447425 58.400247-13.831638 76.84243 0"/>
        </g>
      </g>
    </g>
    <path stroke="#ABCC7F" stroke-linecap="round" stroke-linejoin="round" stroke-width="30" d="M4299 164l-136.8125 137L4100 238.727273"/>
  </g>
</svg>