<svg xmlns="http://www.w3.org/2000/svg" width="559" height="498" viewBox="0 0 559 498">
  <defs>
    <linearGradient id="a" x1="50.0036425%" x2="50.0036425%" y1="100%" y2="0%">
      <stop offset="0%" stop-color="gray" stop-opacity=".25"/>
      <stop offset="54%" stop-color="gray" stop-opacity=".12"/>
      <stop offset="100%" stop-color="gray" stop-opacity=".1"/>
    </linearGradient>
  </defs>
  <g fill="none" fill-rule="evenodd">
    <g fill-rule="nonzero" opacity=".35421317">
      <path fill="#FCE7E2" d="M132.597701 41.1782946h229.793103v16.0852713H132.597701zM132.597701 109.379845h229.793103v16.0852713H132.597701zM132.597701 181.44186h229.793103v16.0852713H132.597701zM152.551724 0h14.8045977v41.1782946H152.551724z"/>
      <path fill="#FD9E9C" d="M152.551724 7.07751938h14.8045977v3.21705426H152.551724zM152.551724 28.9534884h14.8045977v3.21705426H152.551724z" opacity=".2765067"/>
      <path fill="#FCE7E2" d="M173.7931033 0h14.8045977v41.1782946h-14.8045977z"/>
      <path fill="#FD9E9C" d="M173.7931033 7.07751938h14.8045977v3.21705426h-14.8045977zM173.7931033 28.9534884h14.8045977v3.21705426h-14.8045977z" opacity=".2765067"/>
      <path fill="#FCE7E2" d="M195.6781608 0h14.8045977v41.1782946h-14.8045977z"/>
      <path fill="#FD9E9C" d="M195.6781608 7.07751938h14.8045977v3.21705426h-14.8045977zM195.6781608 28.9534884h14.8045977v3.21705426h-14.8045977z" opacity=".2765067"/>
      <path fill="#FCE7E2" d="M217.5632182 0h14.8045977v41.1782946h-14.8045977z"/>
      <path fill="#FD9E9C" d="M217.5632182 7.07751938h14.8045977v3.21705426h-14.8045977zM217.5632182 28.9534884h14.8045977v3.21705426h-14.8045977z" opacity=".2765067"/>
      <path fill="#FCE7E2" d="M239.448276 0h14.8045977v41.1782946H239.448276z"/>
      <path fill="#FD9E9C" d="M239.448276 7.07751938h14.8045977v3.21705426H239.448276zM239.448276 28.9534884h14.8045977v3.21705426H239.448276z" opacity=".2765067"/>
      <path fill="#FCE7E2" d="M261.333333 0h14.8045977v41.1782946H261.333333z"/>
      <path fill="#FD9E9C" d="M261.333333 7.07751938h14.8045977v3.21705426H261.333333zM261.333333 28.9534884h14.8045977v3.21705426H261.333333z" opacity=".2765067"/>
      <path fill="#FCE7E2" d="M282.574712 0h14.8045977v41.1782946H282.574712z"/>
      <path fill="#FD9E9C" d="M282.574712 7.07751938h14.8045977v3.21705426H282.574712zM282.574712 28.9534884h14.8045977v3.21705426H282.574712z" opacity=".2765067"/>
      <path fill="#FCE7E2" d="M275.88595438 145.82697637l12.9170013-6.47426004 18.45891883 36.79893685-12.9170013 6.47426004z"/>
      <path fill="#FBD2CE" d="M278.80440256 151.63501766l12.91700041-6.4742596 1.29536292 2.58238094-12.91700131 6.47426004zM288.837595 171.65073455l12.91699997-6.47426048 1.29536336 2.58238182-12.9170013 6.47426004z"/>
      <path fill="#FCE7E2" d="M152.551724 69.4883721h14.8045977v41.1782946H152.551724z"/>
      <path fill="#FBD2CE" d="M152.551724 75.9224806h14.8045977v3.21705426H152.551724zM152.551724 98.4418605h14.8045977v3.21705426H152.551724z"/>
      <path fill="#FCE7E2" d="M173.7931033 69.4883721h14.8045977v41.1782946h-14.8045977z"/>
      <path fill="#FBD2CE" d="M173.7931033 75.9224806h14.8045977v3.21705426h-14.8045977zM173.7931033 98.4418605h14.8045977v3.21705426h-14.8045977z"/>
      <path fill="#FCE7E2" d="M195.6781608 69.4883721h14.8045977v41.1782946h-14.8045977z"/>
      <path fill="#FBD2CE" d="M195.6781608 75.9224806h14.8045977v3.21705426h-14.8045977zM195.6781608 98.4418605h14.8045977v3.21705426h-14.8045977z"/>
      <path fill="#FCE7E2" d="M286.436781 69.4883721h14.8045977v41.1782946H286.436781z"/>
      <path fill="#FBD2CE" d="M286.436781 75.9224806h14.8045977v3.21705426H286.436781zM286.436781 98.4418605h14.8045977v3.21705426H286.436781z"/>
      <path fill="#FCE7E2" d="M308.321839 69.4883721h14.8045977v41.1782946H308.321839z"/>
      <path fill="#FBD2CE" d="M308.321839 75.9224806h14.8045977v3.21705426H308.321839zM308.321839 98.4418605h14.8045977v3.21705426H308.321839z"/>
      <path fill="#FCE7E2" d="M330.206896 69.4883721h14.8045977v41.1782946H330.206896z"/>
      <path fill="#FBD2CE" d="M330.206896 75.9224806h14.8045977v3.21705426H330.206896zM330.206896 98.4418605h14.8045977v3.21705426H330.206896z"/>
      <path fill="#FCE7E2" d="M152.551724 140.263566h14.8045977v41.1782946H152.551724z"/>
      <path fill="#FBD2CE" d="M152.551724 146.697674h14.8045977v3.21705426H152.551724zM152.551724 169.217054h14.8045977v3.21705426H152.551724z"/>
      <path fill="#FCE7E2" d="M173.7931033 140.263566h14.8045977v41.1782946h-14.8045977z"/>
      <path fill="#FBD2CE" d="M173.7931033 146.697674h14.8045977v3.21705426h-14.8045977zM173.7931033 169.217054h14.8045977v3.21705426h-14.8045977z"/>
      <path fill="#FCE7E2" d="M195.6781608 140.263566h14.8045977v41.1782946h-14.8045977z"/>
      <path fill="#FBD2CE" d="M195.6781608 146.697674h14.8045977v3.21705426h-14.8045977zM195.6781608 169.217054h14.8045977v3.21705426h-14.8045977z"/>
      <path fill="#FCE7E2" d="M217.5632182 140.263566h14.8045977v41.1782946h-14.8045977z"/>
      <path fill="#FBD2CE" d="M217.5632182 146.697674h14.8045977v3.21705426h-14.8045977zM217.5632182 169.217054h14.8045977v3.21705426h-14.8045977z"/>
      <path fill="#FCE7E2" d="M239.448276 140.263566h14.8045977v41.1782946H239.448276z"/>
      <path fill="#FBD2CE" d="M239.448276 146.697674h14.8045977v3.21705426H239.448276zM239.448276 169.217054h14.8045977v3.21705426H239.448276z"/>
      <path fill="#FCE7E2" d="M261.333333 140.263566h14.8045977v41.1782946H261.333333z"/>
      <path fill="#FBD2CE" d="M261.333333 146.697674h14.8045977v3.21705426H261.333333zM261.333333 169.217054h14.8045977v3.21705426H261.333333z"/>
      <path fill="#FCE7E2" d="M319.264368 3.41459167V41.1782946H304.45977V.64341085c4.954605.85826598 9.889471 1.78199292 14.804598 2.77118082z"/>
      <path fill="#FBD2CE" d="M304.45977 7.07751938h14.8045977v3.21705426H304.45977zM304.45977 28.9534884h14.8045977v3.21705426H304.45977z"/>
      <path fill="#FCE7E2" d="M341.149425 8.62015504V41.1782946h-14.804598V5.14728682c1.924598.4124031 3.841794.84651163 5.758989 1.2878553 3.030008.69457364 6.045211 1.42291128 9.045609 2.18501292z"/>
      <path fill="#FBD2CE" d="M341.149425 9.49031008v.80426352h-14.804598V7.07751938h5.758989c3.030008.76136951 6.045211 1.56563307 9.045609 2.4127907zM326.344827 28.9534884h14.8045977v3.21705426H326.344827z"/>
      <g fill="#FBD2CE">
        <path d="M239.8916091 96.04870894s-4.38827586-1.48339868-6.51724138 2.36911736c-1.13146905 2.1195507-1.0959658 4.6669496.09413794 6.7545046 1.39034482 2.4915338 4.25068965 5.7607716 9.66724134 5.4439292 4.5982759-.2448328 6.1262069-3.7300996 6.5172414-6.9777346.304838-2.4697314-.6941192-4.92096-2.641981-6.48286017-1.9478619-1.56190017-4.5685825-2.0131235-6.93112243-1.19336796l-.18827587.08641157z"/>
        <path d="M234.42436772 105.5251782c-1.19010373-2.087555-1.22560698-4.6349539-.09413793-6.7545047 2.11448276-3.84531502 6.51724138-2.3691173 6.51724138-2.3691173l.22448276-.07921061c1.67531997-.60286548 3.51666517-.56177559 5.16310347.11521543-1.8406026-1.08989136-4.07576357-1.30132406-6.09000002-.57607716l-.22448276.07921061s-4.38827586-1.48339868-6.51724138 2.36911733c-1.13146906 2.1195507-1.0959658 4.6669497.09413793 6.7545047 1.08818416 2.0630316 2.83588819 3.7072437 4.96758621 4.6734259-1.70921272-1.0099827-3.10687652-2.4670974-4.04068966-4.2125642zM237.62505738 97.89935681s1.62931034 1.27457069 5.58310342 0"/>
        <path d="M237.27022979 88.64611745s2.78793104 7.51780692 2.5562069 9.48367023l2.20862069-.23043087s-3.72206897-6.5888825-2.78793104-9.25323936h-1.97689655z"/>
        <path d="M237.27022979 88.64611745s2.78793104 7.51780692 2.5562069 9.48367023l2.20862069-.23043087s-3.72206897-6.5888825-2.78793104-9.25323936h-1.97689655z"/>
        <path d="M248.6681608 89.27980232s-4.3955172-2.23229899-6.35793101-.38885208c-1.96241379 1.84344691-2.26655172 6.56007865-2.26655172 6.56007865s7.16172413.96492924 8.62448273-6.17122657z"/>
        <path d="M248.6681608 89.27980232s-4.3955172-2.23229899-6.35793101-.38885208c-1.96241379 1.84344691-2.26655172 6.56007865-2.26655172 6.56007865s7.16172413.96492924 8.62448273-6.17122657zM240.03643669 95.45102889s1.15137931-5.47273301 8.62448271-6.17842753"/>
      </g>
      <g fill="#FBD2CE">
        <path d="M333.8686201 167.46731294s-4.38827586-1.48339868-6.51724138 2.36911736c-1.13146905 2.1195507-1.0959658 4.6669496.09413794 6.7545046 1.39034482 2.4915338 4.25068965 5.7607716 9.66724134 5.4439292 4.5982759-.2448328 6.1262069-3.7300996 6.5172414-6.9777346.304838-2.4697314-.6941192-4.92096-2.641981-6.48286017-1.9478619-1.56190017-4.5685825-2.0131235-6.93112243-1.19336796l-.18827587.08641157z"/>
        <path d="M328.40137872 176.9437822c-1.19010373-2.087555-1.22560698-4.6349539-.09413793-6.7545047 2.11448276-3.84531502 6.51724138-2.3691173 6.51724138-2.3691173l.22448276-.07921061c1.67531997-.60286548 3.51666517-.56177559 5.16310347.11521543-1.8406026-1.08989136-4.07576357-1.30132406-6.09000002-.57607716l-.22448276.07921061s-4.38827586-1.48339868-6.51724138 2.36911733c-1.13146906 2.1195507-1.0959658 4.6669497.09413793 6.7545047 1.08818416 2.0630316 2.83588819 3.7072437 4.96758621 4.6734259-1.70921272-1.0099827-3.10687652-2.4670974-4.04068966-4.2125642zM331.60206838 169.31796081s1.62931034 1.27457069 5.58310342 0"/>
        <path d="M331.24724079 160.06472145s2.78793104 7.51780692 2.5562069 9.48367023l2.20862069-.23043087s-3.72206897-6.5888825-2.78793104-9.25323936h-1.97689655z"/>
        <path d="M331.24724079 160.06472145s2.78793104 7.51780692 2.5562069 9.48367023l2.20862069-.23043087s-3.72206897-6.5888825-2.78793104-9.25323936h-1.97689655z"/>
        <path d="M342.6451718 160.69840632s-4.3955172-2.23229899-6.35793101-.38885208c-1.96241379 1.84344691-2.26655172 6.56007865-2.26655172 6.56007865s7.16172413.96492924 8.62448273-6.17122657z"/>
        <path d="M342.6451718 160.69840632s-4.3955172-2.23229899-6.35793101-.38885208c-1.96241379 1.84344691-2.26655172 6.56007865-2.26655172 6.56007865s7.16172413.96492924 8.62448273-6.17122657zM334.01344769 166.86963289s1.15137931-5.47273301 8.62448271-6.17842753"/>
      </g>
    </g>
    <g fill-rule="nonzero" transform="matrix(-1 0 0 1 557.425288 191.093023)">
      <ellipse cx="300.597701" cy="274.414729" fill="#45327C" opacity=".15" rx="256.827586" ry="28.6317829"/>
      <path fill="#9A77F8" d="M354.022945 72.1636997V161.39444c.003477 1.515077-.201839 3.02345-.610189 4.482826-2.01991 7.294241-8.676516 12.346767-16.267646 12.347539h-75.66347c-4.478395.001614-8.773832-1.771061-11.940535-4.927717-3.166704-3.156656-4.945022-7.438463-4.943403-11.902648V72.1636997c-.001619-4.4641851 1.776699-8.7459923 4.943403-11.902648 3.166703-3.1566558 7.46214-4.9293315 11.940535-4.9277173h75.66347c7.59113.0007717 14.247736 5.0532977 16.267646 12.3475394.40835 1.4593757.613666 2.9677487.610189 4.4828259z"/>
      <path fill="#000" d="M245.241378 72.0577118v89.4427162c.000442 1.520504-.107821 3.034118-.321838 4.499572-.214016-1.465454-.322279-2.979068-.321838-4.499572V72.0577118c-.000441-1.5205047.107822-3.0341184.321838-4.4995723.214017 1.4654539.32228 2.9790676.321838 4.4995723z" opacity=".1"/>
      <rect width="132.597701" height="122.891473" x="112" y="55.3333333" fill="#9A77F8" rx="27.67"/>
      <path fill="#000" d="M353.379287 72.0521714v89.4537966c.001834 1.518865-.106454 3.031008-.321827 4.494032-.213799-1.463637-.322058-2.975371-.321827-4.494032V72.0521714c-.000231-1.5186613.108028-3.0303945.321827-4.4940319.215373 1.4630238.323661 2.9751674.321827 4.4940319z" opacity=".1"/>
      <rect width="132.597701" height="122.891473" x="353.37931" y="55.3333333" fill="#9A77F8" rx="27.67"/>
      <path fill="#000" d="M237.424027 187.875969H116.492352l-.609135-10.5313c-.670049-11.824192 14.667983-21.639243 33.825295-21.639243h82.306392c6.42638 0 11.384743 3.484131 10.56241 7.417435l-5.153287 24.753108z" opacity=".1"/>
      <path fill="#8059E3" d="M237.424027 188.51938H116.492352l-.609135-10.5313c-.670049-11.824192 14.667983-21.639243 33.825295-21.639243h82.306392c6.42638 0 11.384743 3.484131 10.56241 7.417435l-5.153287 24.753108z"/>
      <path fill="#000" d="M358.621863 188.51938h120.931761l.609136-10.5313c.67005-11.824192-14.667994-21.639243-33.825319-21.639243H364.03099c-6.420293 0-11.384751 3.484131-10.562417 7.417435l5.15329 24.753108z" opacity=".1"/>
      <path fill="#8059E3" d="M358.621863 189.162791h120.931761l.609136-10.531301c.67005-11.824191-14.667994-21.639242-33.825319-21.639242H364.03099c-6.420293 0-11.384751 3.484131-10.562417 7.417435l5.15329 24.753108z"/>
      <path fill="#000" d="M258.557465 156.348838h81.917404c4.617469 0 9.045819 1.83979 12.310862 5.114637 3.265044 3.274847 5.099326 7.716492 5.099326 12.347825v10.847615H239.448276v-9.161837c.006724-10.579642 8.561215-19.151614 19.109189-19.14824z" opacity=".1"/>
      <path fill="#8059E3" d="M340.474869 156.992249c4.617469 0 9.045819 1.83979 12.310862 5.114637 3.265044 3.274846 5.099326 7.716492 5.099326 12.347824v10.847616H239.448276v-9.161837c.006724-10.579642 8.561215-19.151615 19.109189-19.14824h81.917404z"/>
      <path fill="#9A77F8" d="M125.075258 167.930233h97.947106c9.07178 0 16.425912 7.349056 16.425912 16.414576v22.190075H117.793103v-31.327523c.010032-4.014887 3.264495-7.267104 7.282155-7.277128z"/>
      <path fill="#000" d="M251.719822 167.930233h92.976082c9.061637 0 16.407544 7.349056 16.407544 16.414576v22.190075H236.229885v-23.101996c-.000001-8.559507 6.934098-15.499299 15.489937-15.502655z" opacity=".1"/>
      <path fill="#000" d="M254.294535 167.930233h92.976082c9.061636 0 16.407544 7.349056 16.407544 16.414576v22.190075H238.804598v-23.101996c-.000001-8.559507 6.934098-15.499299 15.489937-15.502655z" opacity=".1"/>
      <path fill="#9A77F8" d="M253.650856 167.930233h92.976083c9.061636 0 16.407544 7.349056 16.407544 16.414576v22.190075H238.16092v-23.101996c-.000001-8.559507 6.934098-15.499299 15.489936-15.502655z"/>
      <path fill="#000" d="M366.982444 167.930233h99.464695c8.653089 0 15.667804 7.008822 15.667804 15.654642v22.950009H360.45977v-32.087457c0-3.599347 2.920301-6.517194 6.522674-6.517194z" opacity=".1"/>
      <path fill="#9A77F8" d="M367.626122 167.930233h99.464695c8.653089 0 15.667804 7.008822 15.667804 15.654642v22.950009H361.103448v-32.087457c0-1.728467.687209-3.386141 1.910447-4.608352 1.223239-1.222211 2.882307-1.908842 4.612227-1.908842z"/>
      <path fill="#6441C5" d="M119.724138 258.007752v16.67768c-.003358 4.646267-3.749738 8.411968-8.372165 8.415343h-5.784405c-4.622428-.003375-8.3688076-3.769076-8.3721657-8.415343v-16.67768h22.5287357zM502.712644 258.007752v16.67768c-.003358 4.646267-3.749738 8.411968-8.372166 8.415343h-5.784405c-4.622427-.003375-8.368807-3.769076-8.372165-8.415343v-16.67768h22.528736z"/>
      <path fill="#E9CCDB" d="M126.160908 148.971532c.000225-11.711708-9.085374-21.412628-20.765786-22.172145-11.6804115-.759518-21.9444571 7.683193-23.4592095 19.29642-1.5147524 11.613226 6.2399706 22.408861 17.7239738 24.674194v89.811394h24.9435697V157.171068c1.031875-2.610281 1.560338-5.392484 1.557452-8.199536zM473.10346 148.971532c-.000225-11.711708 9.085374-21.412628 20.765785-22.172145 11.680412-.759518 21.944458 7.683193 23.45921 19.29642 1.514753 11.613226-6.23997 22.408861-17.723974 24.674194v89.811394h-24.943569V157.171068c-1.031876-2.610281-1.560338-5.392484-1.557452-8.199536z"/>
      <path fill="#8863E8" d="M126.160908 148.971532c.000225-11.711708-9.085374-21.412628-20.765786-22.172145-11.6804115-.759518-21.9444571 7.683193-23.4592095 19.29642-1.5147524 11.613226 6.2399706 22.408861 17.7239738 24.674194v89.811394h24.9435697V157.171068c1.031875-2.610281 1.560338-5.392484 1.557452-8.199536zM493.869245 126.799387c11.680412-.759518 21.944458 7.683193 23.45921 19.29642 1.514753 11.613226-6.23997 22.408861-17.723974 24.674194v89.811394h-24.943569v-76.001497-27.40883c-1.031876-2.610281-1.560338-5.392484-1.557452-8.199536-.000225-11.711708 9.085374-21.412628 20.765785-22.172145z"/>
      <path fill="#6441C5" d="M113.287356 244.496124h375.264368v17.372093H113.287356z"/>
      <path fill="#000" d="M117.149425 206.534884h368.827586v39.8914729H117.149425z" opacity=".1"/>
      <path fill="#7752DB" d="M117.149425 205.248062h368.827586v39.8914729H117.149425z"/>
      <path fill="#000" d="M480.183908 258.007752h22.5287356v5.79069767H480.183908z" opacity=".1"/>
      <path fill="#A781FC" d="M499.666247 129.37278c11.683343-.757679 21.947511 7.690758 23.456769 19.307265 1.509258 11.616507-6.254955 22.409812-17.743604 24.666008v89.808986h-24.943475V159.747485c-1.02848-2.610604-1.550844-5.393243-1.539195-8.199316-.002118-11.714246 9.086163-21.417711 20.769505-22.175389z"/>
      <path fill="#000" d="M97.1954023 258.007752h22.5287356v5.79069767H97.1954023z" opacity=".1"/>
      <path fill="#A781FC" d="M121.011494 151.542168c-.001675-11.709168-9.084562-21.407537-20.761997-22.168888-11.677435-.76135-21.9413119 7.675639-23.4615481 19.285581-1.5202362 11.609942 6.224967 22.407897 17.7042709 24.682363v89.813815h24.9435712V159.741925c1.040966-2.608302 1.575736-5.391173 1.575703-8.199757z"/>
      <path fill="#000" d="M124.229885 205.891473h350.804598v1H124.229885z" opacity=".1"/>
      <ellipse cx="97.5172414" cy="150.879845" fill="#6441C5" rx="9.97701149" ry="9.97286822"/>
      <ellipse cx="502.390805" cy="150.879845" fill="#6441C5" rx="9.97701149" ry="9.97286822"/>
      <path fill="#000" d="M203.930395 133.336184c-9.581202-2.384723-29.810216-27.530511-29.810216-27.530511-7.606451-5.291296-23.118002-37.3424665-23.118002-37.3424665s-5.887686-2.7609396-11.074456 9.6541864c-5.186771 12.4151261-35.350492 22.3423721-44.3831519 23.7319441-5.0892518.782772-4.5955639 3.034-3.193734 4.854399.9449932 1.168459 2.1988365 2.0511 3.6203779 2.54856 3.8397948 1.450252 15.755348 15.691845 15.755348 15.691845 11.111026 7.475775 23.434938 42.008758 27.530719 51.031872 2.273403 5.018236 4.802791 2.615308 6.606885-.509712 3.48352-6.033479 8.254215-11.232594 13.975634-15.230677 15.505457-10.85565 32.126283-15.358106 33.259937-15.37631 1.432304-.036408 20.411861-9.138406 10.830659-11.52313z" opacity=".1"/>
      <path fill="#6C63FF" d="M77.2148016 104.054345c-1.557587-.591922-2.9289509-1.589704-3.972255-2.890149-1.5949665-2.046177-2.2741918-4.584165 3.0322558-5.4645675 9.3636057-1.5422224 40.3047436-12.6352944 44.8773846-26.6306589 4.572642-13.9953645 10.916121-10.8623458 10.916121-10.8623458s18.484631 36.1997237 26.829399 42.2046762c0 0 22.96024 28.433966 33.166813 31.160178 10.206573 2.726212-9.048251 12.926738-10.546185 12.951025-1.212903 0-18.296632 5.045617-33.791458 17.237675-5.791393 4.586171-10.443136 10.452983-13.590571 17.140526-1.673805 3.521611-4.160254 6.223536-6.895349.558601-4.918319-10.194455-20.249404-49.181108-32.414814-57.681546 0 0-13.4874735-16.108331-17.6113414-17.723414z"/>
      <path fill="#A17CFA" d="M77.2148016 104.054345c-1.557587-.591922-2.9289509-1.589704-3.972255-2.890149-1.5949665-2.046177-2.2741918-4.584165 3.0322558-5.4645675 9.3636057-1.5422224 40.3047436-12.6352944 44.8773846-26.6306589 4.572642-13.9953645 10.916121-10.8623458 10.916121-10.8623458s18.484631 36.1997237 26.829399 42.2046762c0 0 22.96024 28.433966 33.166813 31.160178 10.206573 2.726212-9.048251 12.926738-10.546185 12.951025-1.212903 0-18.296632 5.045617-33.791458 17.237675-5.791393 4.586171-10.443136 10.452983-13.590571 17.140526-1.673805 3.521611-4.160254 6.223536-6.895349.558601-4.918319-10.194455-20.249404-49.181108-32.414814-57.681546 0 0-13.4874735-16.108331-17.6113414-17.723414z" opacity=".5"/>
      <path fill="#312776" d="M83.2952015 103.38604c-1.4515482-.504607-2.736353-1.395668-3.7147329-2.576307-1.4798034-1.8185704-2.0826863-4.1463401 2.9291583-5.0192538 8.8849103-1.5518464 38.3652741-12.1238005 42.8960301-24.9810909 4.530757-12.8572905 10.523047-10.0748782 10.523047-10.0748782s16.953797 32.7342613 24.760826 38.105105c0 0 21.314042 25.5933429 30.929719 27.9271749 9.615677 2.333831-8.763116 11.923757-10.182022 11.978314-1.126599.036372-17.398347 4.849521-32.275548 16.239831-5.512937 4.227234-9.994956 9.639932-13.11118 15.833684-1.638137 3.237054-4.037489 5.740619-6.540366.60619-4.500308-9.232274-18.421422-44.591339-29.8092094-52.132342 0 0-12.5265666-14.469756-16.4057221-15.906427z"/>
      <path fill="#000" d="M117.433422 114.994761s-3.266066 3.141931 12.353706-2.880634c15.619773-6.022564-12.353706 2.880634-12.353706 2.880634zM129.37931 128.674655s2.362998.301747 11.252074-2.918714c8.889077-3.220462-11.252074 2.918714-11.252074 2.918714zM128.735632 156.348837s2.235632 0 11.215735-4.021318c8.980103-4.021317-11.215735 4.021318-11.215735 4.021318zM484.689655 95.5694225v11.5703925c-2.510618 5.166653-4.966394 11.764445-4.966394 11.764445-7.312481 9.472198-6.154671 41.030019-6.636076 49.550145-.268125 4.730035-3.382023 3.602104-6.093735 1.661577-5.359217-3.800992-11.443902-6.469464-17.879017-7.840943-17.671831-3.850733-34.124914-2.249798-35.173036-1.910206-1.291872.42449-21.474321-.927814-13.747466-5.845838 7.726856-4.918023 16.964957-31.412281 16.964957-31.412281 4.942019-6.622048 7.519669-37.1853493 7.519669-37.1853493s4.265614-4.0569144 13.31481 4.2449029c8.586072 7.962225 36.641626 6.9919615 46.696288 5.4031549z" opacity=".1"/>
      <path fill="#6C63FF" d="M491.770801 100.095894c1.076023-.8112582 1.891323-1.9153113 2.346747-3.1778887.611132-1.892178.268898-3.8510674-4.577378-2.8867844-8.586403 1.7102378-39.167444 3.2082121-48.212196-5.1246489-9.044752-8.332861-13.353232-4.2755946-13.353232-4.2755946s-2.585088 30.5598886-7.541368 37.1885766c0 0-9.258649 26.496557-17.013912 31.415007-7.755264 4.91845 12.491536 6.270872 13.787135 5.84028 1.026702-.339622 17.527264-1.934631 35.274534 1.916437 6.452468 1.372051 12.554227 4.038479 17.93061 7.835558 2.719537 1.940695 5.842421 3.074789 6.111319-1.661721.482795-8.490542-.666133-40.07536 6.655227-49.54838 0 0 5.659081-15.155618 8.592514-17.520841z"/>
      <path fill="#A781FC" d="M491.770801 100.095894c1.076023-.8112582 1.891323-1.9153113 2.346747-3.1778887.611132-1.892178.268898-3.8510674-4.577378-2.8867844-8.586403 1.7102378-39.167444 3.2082121-48.212196-5.1246489-9.044752-8.332861-13.353232-4.2755946-13.353232-4.2755946s-2.585088 30.5598886-7.541368 37.1885766c0 0-9.258649 26.496557-17.013912 31.415007-7.755264 4.91845 12.491536 6.270872 13.787135 5.84028 1.026702-.339622 17.527264-1.934631 35.274534 1.916437 6.452468 1.372051 12.554227 4.038479 17.93061 7.835558 2.719537 1.940695 5.842421 3.074789 6.111319-1.661721.482795-8.490542-.666133-40.07536 6.655227-49.54838 0 0 5.659081-15.155618 8.592514-17.520841z" opacity=".5"/>
      <path fill="#352C79" d="M489.330151 101.926284c1.017015-.780139 1.78584-1.840845 2.212586-3.0525822.607853-1.8315493.255298-3.6630986-4.315759-2.7534291-8.114842 1.6300788-36.993953 3.0525821-45.534292-4.8841314-8.540339-7.9367136-12.612956-4.0843549-12.612956-4.0843549s-2.431414 29.2071056-7.117963 35.5381616c0 0-8.74093 25.330326-16.065563 30.031303-7.324632 4.700976 11.798433 5.989166 13.01414 5.58012.972565-.323574 16.557924-1.83155 33.31644 1.831549 6.093631 1.307806 11.855324 3.857382 16.928715 7.491036 2.57122 1.83155 5.519308 2.936584 5.774607-1.587342.45589-8.144289-.607854-38.303801 6.285203-47.363865 0-.006105 5.343031-14.487554 8.114842-16.746465z"/>
      <path fill="#000" d="M467.954023 118.387597s-2.085771 1.189152-12.067677 4.607964 10.428857-1.337796 12.067677-4.607964zM466.022989 129.325581s-6.069286 5.23694-9.103929 5.69365c-3.034643.45671 7.369847-.578499 9.103929-5.69365zM471.816092 153.131783s-6.069286 5.236404-9.103929 5.693067c-3.034643.456663 7.369847-.566263 9.103929-5.693067z" opacity=".1"/>
      <path fill="#FD6F8D" d="M172.628791 88.7906977l-.766722 9.7034413 4.729139 10.216722 6.685813 5.86606 7.274655 4.277335 6.74715 4.680628 6.747151-6.037154s-9.881509-6.318236-10.764772-8.463014c-.883263-2.144778-5.324115-6.489329-5.324115-6.489329l-6.268716-6.0371538-5.091032-4.6256329-3.968551-3.0919026z"/>
      <path fill="#000" d="M172.628791 88.7906977l-.766722 9.7034413 4.729139 10.216722 6.685813 5.86606 7.274655 4.277335 6.74715 4.680628 6.747151-6.037154s-9.881509-6.318236-10.764772-8.463014c-.883263-2.144778-5.324115-6.489329-5.324115-6.489329l-6.268716-6.0371538-5.091032-4.6256329-3.968551-3.0919026z" opacity=".1"/>
      <path fill="#FFBEC5" d="M142.424721 51.0890802c-2.445077 4.749084-4.511168 11.7273298-2.151668 19.596029 4.364463 14.5380122-27.629375-5.8030899-27.629375-5.8030899s6.895118-10.2008386 8.912307-19.008451c.654059-2.8530849.79465-5.5668472 0-7.735434-3.172488-8.8500149 25.202636 6.487588 25.202636 6.487588-1.719031 1.9608517-3.175679 4.1332238-4.3339 6.4633579z"/>
      <path fill="#000" d="M139.034483 64.3410853s11.916749.442927 13.538734 3.8407238c1.621985 3.3977967 5.005156 8.7189891 6.481888 9.4592234 1.476733.7402342 17.091366 13.5911869 18.416794 14.1797338 1.325428.5885469 14.737067 14.6226607 14.737067 16.1031297 0 1.480468 13.853447 10.04777 22.695687 11.376551 8.84224 1.328782 22.393079 17.286291 26.375415 16.691677 3.982337-.594615 12.104367 2.366322 12.104367 2.366322s9.138797-.442927 11.347844-1.923395c2.209047-1.480469 10.458173 1.480468 8.545683 5.023885s-8.84224 2.366323-10.464225 4.435338c-1.621985 2.069016-5.59827 4.283651-9.429302 4.726578-3.831032.442927-6.778445.734167-9.725859 1.474401-2.947413.740235-2.209047 2.214636-6.657401 1.480469-4.448355-.734167-21.660765-31.472092-21.660765-31.472092l-19.15516-8.712922s-7.220255-5.909739-7.813369-7.833135c-.593114-1.923396-14.440509-15.0655879-14.440509-15.0655879l-18.126289-13.2999472-16.7706-12.8509526z" opacity=".1"/>
      <path fill="#FD6F8D" d="M139.678161 64.3410853s11.916616.442927 13.538583 3.8407238c1.621967 3.3977967 5.011152 8.7189891 6.481816 9.4592234 1.470664.7402342 17.091175 13.5911869 18.422641 14.1797338 1.331465.5885469 14.73085 14.6226607 14.73085 16.1031297 0 1.480468 13.853293 10.04777 22.695434 11.376551 8.842142 1.328782 22.392829 17.286291 26.375121 16.691677 3.982293-.594615 12.104232 2.366322 12.104232 2.366322s9.138695-.442927 11.347717-1.923395c2.209023-1.480469 10.464109 1.480468 8.545588 5.023885-1.918521 3.543417-8.842141 2.366323-10.464108 4.435338-1.621967 2.069016-5.598208 4.283651-9.429197 4.726578-3.830989.442927-6.802578.734167-9.743906 1.474401-2.941329.740235-2.209023 2.214636-6.657328 1.480469-4.448305-.734167-21.660523-31.472092-21.660523-31.472092l-19.154946-8.712922s-7.220175-5.909739-7.813282-7.833135c-.593107-1.923396-14.397984-15.0655879-14.397984-15.0655879l-18.156347-13.2999472-16.764361-12.8509526z"/>
      <path fill="#FFBEC5" d="M201.471264 130.664224s18.031759-15.973224 18.916566-17.158689c.439352-.611065 6.144832-4.919069 11.795394-9.165966 7.022067-5.2457796 13.603796-11.0580568 19.67933-17.3786726 4.070112-4.2285658 8.427025-8.451021 9.928146-8.7871064 3.051059-.6966134 10.794646-.3971919 12.381197 2.2792703 1.58655 2.6764622 8.420922 7.540535 8.420922 7.540535l5.845829 6.5383893s13.77248 10.7119594 22.687675 20.5317644c8.915194 9.819805 19.410837 20.433994 23.188048 20.831186 3.777211.397192 9.507099 5.255154 9.507099 5.255154s8.121919 3.971919 10.983812 7.143343c2.861894 3.171425 7.627648 6.25119 12.478832 6.44673 4.851183.195541-2.575094 3.971919-10.599379 3.470846-8.024285-.501073-17.824287-2.975884-21.296392-2.377041-3.472105.598844-13.16837.690503-13.16837-1.093805 0-1.784308.988543-5.951767.988543-5.951767s-10.697013-8.903209-21.570987-10.785287c-10.873974-1.882079-34.69054-19.639611-34.495272-27.870649 0 0-3.362267-.299421-7.23101 5.652346 0 0-2.770361 2.383151-7.426277 9.025422-4.655916 6.64227-10.202741 16.162654-10.202741 16.162654s-8.616191 17.445889-15.548197 17.305344c-6.932006-.140545-14.364385-.941039-14.364385-.941039l-9.214198-6.5445-.610212-7.943838-1.073973-12.184624z"/>
      <path fill="#000" d="M201.471264 130.664224s18.031759-15.973224 18.916566-17.158689c.439352-.611065 6.144832-4.919069 11.795394-9.165966 7.022067-5.2457796 13.603796-11.0580568 19.67933-17.3786726 4.070112-4.2285658 8.427025-8.451021 9.928146-8.7871064 3.051059-.6966134 10.794646-.3971919 12.381197 2.2792703 1.58655 2.6764622 8.420922 7.540535 8.420922 7.540535l5.845829 6.5383893s13.77248 10.7119594 22.687675 20.5317644c8.915194 9.819805 19.410837 20.433994 23.188048 20.831186 3.777211.397192 9.507099 5.255154 9.507099 5.255154s8.121919 3.971919 10.983812 7.143343c2.861894 3.171425 7.627648 6.25119 12.478832 6.44673 4.851183.195541-2.575094 3.971919-10.599379 3.470846-8.024285-.501073-17.824287-2.975884-21.296392-2.377041-3.472105.598844-13.16837.690503-13.16837-1.093805 0-1.784308.988543-5.951767.988543-5.951767s-10.697013-8.903209-21.570987-10.785287c-10.873974-1.882079-34.69054-19.639611-34.495272-27.870649 0 0-3.362267-.299421-7.23101 5.652346 0 0-2.770361 2.383151-7.426277 9.025422-4.655916 6.64227-10.202741 16.162654-10.202741 16.162654s-8.616191 17.445889-15.548197 17.305344c-6.932006-.140545-14.364385-.941039-14.364385-.941039l-9.214198-6.5445-.610212-7.943838-1.073973-12.184624z" opacity=".05"/>
      <path fill="#FFC0A4" d="M205.333333 131.297418s18.026971-15.969568 18.917945-17.161327c.890975-1.191758 23.275175-17.662476 23.275175-17.662476s15.055023-16.9596443 18.130715-17.6563648c3.075691-.6967205 10.795433-.3972529 12.3821 2.2796207 1.586666 2.6768736 8.415434 7.541694 8.415434 7.541694l5.846255 6.545506s13.767382 10.7136061 22.683227 20.5349201c8.915844 9.821315 19.418355 20.437136 23.189739 20.834389 3.771383.397253 9.507793 5.262073 9.507793 5.262073s8.122511 3.966418 10.984613 7.13833c2.862102 3.171911 7.628203 6.25215 12.479741 6.44772 4.851537.195571-2.575282 3.972529-10.600152 3.47138-8.02487-.50115-17.831689-2.97023-21.297944-2.377406-3.466256.592823-13.163229.721167-13.163229-1.112309 0-1.833475.994718-5.952682.994718-5.952682s-10.697793-8.922912-21.59697-10.811391c-10.899177-1.888479-34.650352-19.624295-34.473378-27.850486 0 0-3.368614-.299468-7.231537 5.653215 0 0-2.770563 2.383517-7.426819 9.026808-4.656255 6.643292-10.203485 16.17125-10.203485 16.17125s-8.616819 17.430237-15.555433 17.301893c-6.938614-.128343-14.35933-.941184-14.35933-.941184l-9.21487-6.545505-.610257-7.945059-1.074051-12.192609z"/>
      <path fill="#000" d="M264.049733 140.421082c-.505843.182995-.99904.403665-1.485914.624335l-3.16152 1.437046c2.754355.387229 5.557332.457829 8.333767.209906 1.542821-.139937 3.711624-1.254052 1.953819-2.57269-1.397392-1.033381-4.217468-.226052-5.640152.301403zM249.805721 142.516867c1.6229-.281694 3.37156-.558172 4.886666 0 .518831.217965 1.010494.481927 1.467198.7877l2.599036 1.632783c-2.238773.575499-4.541258.942709-6.868881 1.095477-.309138.036768-.623276.026176-.928227-.031299-.399461-.122492-.761862-.322245-1.059975-.584255-2.030123-1.471069-3.401504-2.326585-.095817-2.900406zM146.758621 44.7700909c-1.742722 1.9907861-3.219945 4.1971387-4.39505 6.564364-7.481158 2.0382645-15.488456.0284329-21.103654-5.2970172.661421-2.8976715.803596-5.653843 0-7.8563194-3.195837-8.9883184 25.498704 6.5889726 25.498704 6.5889726z" opacity=".1"/>
      <ellipse cx="136.45977" cy="29.5968992" fill="#FEBEA4" rx="21.8850575" ry="21.875969"/>
      <path fill="#504F88" d="M138.934242 64.9844961l-1.187116 1.8231469 14.413196 14.8988985 6.774637 4.5105128 3.915616-5.0018154z"/>
      <path fill="#504F88" d="M160.91954 81.1225937s7.009232-.862921 10.247092 4.386515c1.909358 3.0314767 3.115088 6.4352879 3.532211 9.9715315 0 0 3.231728 2.5288379 2.937377 3.9430695-.242294.9067573-.807638 1.6993183-1.594401 2.2352053 0 0-6.273354-3.4996243-6.322412-3.6494369-.049059-.1498127-4.826129-5.3033686-4.826129-5.3033686l-3.973738-4.0808972v-7.5026186z"/>
      <path fill="#000" d="M118.885139 60.0891553s-10.846579.8662133-11.934275 8.4669297c-1.087697 7.6007165-1.476594 11.9317828 2.36984 17.1778632 3.846435 5.2460803 11.733751 7.4299138 11.733751 7.4299138s11.934276 9.406344 12.037577 15.146532c.103301 5.740188 10.159933 18.617485 10.159933 18.617485s19.147099 14.255918 17.761654 18.812688c-1.385446 4.55677-1.786496 17.525569 3.244859 18.715087 5.031355 1.189518 13.21642.195203 14.401341 1.683626 1.18492 1.488423 20.71484-.793012 20.71484-.793012s10.84658-2.476638 18.04725-.298905c4.483578 1.253994 9.26232.900238 13.51417-1.000415 0 0 8.385591-.793012 8.877788-4.160264.492198-3.367252 4.253561-3.26355.692723-3.861359-3.560838-.597809-5.821301 1.28712-8.385591.396506-2.564289-.890614-4.733605-3.861359-10.652131-3.763758-5.918526.097602-7.291818.201303-7.89947.097602-.607651-.103702 3.74921-3.464853 1.379369-8.906137-2.369841-5.441283-6.896844-9.693048-6.696319-12.743095.200525-3.050047-8.877789-13.469006-8.877789-13.469006s-4.338632-6.331897-9.965485-8.412029c-5.626853-2.080132-16.175683-14.8598276-16.175683-14.8598276s-9.035778-14.1217163-13.939526-14.8781279c-4.903748-.7564116-20.97613-15.2502336-20.97613-15.2502336s-13.629624-5.6425864-19.432696-4.1480636z" opacity=".1"/>
      <path fill="#FD6F8D" d="M118.907025 60.7318261s-10.851262.8843384-11.95097 8.4652532c-1.099709 7.5809149-1.476404 11.9294204 2.369536 17.1805609 3.84594 5.2511406 11.73832 7.4223439 11.73832 7.4223439s11.932744 9.4044819 12.029955 15.1496319c.097212 5.74515 10.158629 18.6077 10.158629 18.6077s19.156793 14.259195 17.777601 18.833359c-1.379192 4.574164-1.780191 17.522099 3.244442 18.711381 5.024633 1.189283 13.220799.201263 14.399492 1.683293 1.178693 1.482029 20.712181-.792855 20.712181-.792855s10.851262-2.470049 18.051008-.292747c4.480271 1.250591 9.254859.892534 13.500283-1.012415 0 0 8.384515-.792855 8.876649-4.153341.492135-3.360486 4.253015-3.269003.692634-3.860595-3.560381-.591592-5.820554 1.286865-8.384514.390329-2.563961-.896536-4.732998-3.860595-10.650764-3.756914-5.917766.103681-7.290882.195165-7.898455.097583-.607574-.097583 3.742652-3.464167 1.379192-8.910472-2.363461-5.446305-6.902035-9.703327-6.683309-12.771067.218727-3.067739-8.876649-13.466339-8.876649-13.466339s-4.338074-6.330644-9.958129-8.410364c-5.620055-2.07972-16.173607-14.8507863-16.173607-14.8507863s-9.040693-14.1189203-13.937736-14.881281c-4.897042-.7623607-20.979513-15.2167197-20.979513-15.2167197s-13.640025-5.6597659-19.436276-4.1655389z" opacity=".95"/>
      <path fill="#000" d="M189.118708 145.931558c-.674811 1.499581-.822043 3.452096.337405 4.615037.73447.599243 1.587336 1.037223 2.502935 1.285355 1.871067.728367 3.680787 2.007602 4.294252 3.917272.112242.528842.320126 1.032853.613464 1.487339.311443.336307.698244.594289 1.128775.752851 5.335886 2.404133 11.139075 3.599764 16.992967 3.501062-1.938387-1.859029-4.395982-3.088242-7.048707-3.525545-2.110318-.342761-4.343329-.183622-6.294146-1.058888-1.950817-.875265-3.251362-2.546227-4.527368-4.186584-.471366-.540729-.839392-1.163088-1.085832-1.836222-.460099-1.475098.276059-3.109335-.147232-4.590553-.245386-.850783-2.294357-3.89279-3.165477-4.082533-1.331218-.263191-3.153207 2.723729-3.601036 3.721409zM265.83908 109.379845c1.197779-.347666 7.288484-1.363921 5.449894-3.428522-1.676891-1.893443-4.150304 3.027369-5.449894 3.428522z" opacity=".1"/>
      <path fill="#2F2E41" d="M236.229886 75.2790698l-6.411678 1.2887519-21.798805 32.2200853 9.617195 1.288752z"/>
      <path fill="#000" d="M123.675477 68.0007659c-5.93981 1.5480146-10.647312 6.0787637-12.426699 11.9601116-.956369 3.2751555-.889362 6.8674583 2.351326 9.2704588 7.419471 5.4890874 17.896884 9.3558446 22.745733 18.3640467 3.0349 5.891101 5.131326 12.221014 6.213349 18.760481l12.560713 18.559215s1.906646 5.940412 14.619646 1.292985c12.713001-4.647427 19.663424-7.032131 19.663424-7.032131s9.856078-5.29392 14.260247-7.227298c.62074-.316417 1.280158-.550162 1.961469-.695285 1.480239 0 12.079482-9.08139 12.566804-10.331682.487321-1.250292-10.714982-6.446628-15.192249-5.318316 0 0-.63961 2.683554-9.045906 2.28712-8.406297-.396434-11.573887 3.171472-11.573887 3.171472s-4.154416-1.488152-6.822501-1.341776c-2.668085.146375-7.510843-2.439595-11.123114-2.128547 0 0 1.827456-3.659391-.542145-6.708884-2.369601-3.049493-4.550365-2.775039-5.537191-6.385639-.566512-2.061457-2.436608-8.6178669-3.953396-13.8873909-1.976808-7.0165475-5.916577-13.3207097-11.354592-18.1688794-3.545264-3.1287798-7.760595-5.672057-11.98811-5.5195824-2.493661.0810369-4.97026.4431618-7.382921 1.0795206z" opacity=".1"/>
      <path fill="#FFC0A4" d="M201.464584 117.031449c6.072817-2.674761 10.937901-7.505107 13.654706-13.557207.572307-1.30063 1.042584-2.658767 1.593689-3.9717756 1.797026-4.3617289 4.592039-8.2415786 8.16068-11.3281102.892299-.756574 1.939151-1.4787126 3.02933-1.2807479 1.046093.1899606 1.869241 1.224546 2.228156 2.3850082.306782 1.1946981.383519 2.4368074.226124 3.6601585-.304964 2.8836134-.801043 5.7438178-1.484965 8.561759l-1.66069 7.564092c-.205607 1.163409-.552765 2.297321-1.033747 3.376492-.716521 1.272969-1.661553 2.403077-2.78777 3.33373-1.517047 1.396819-3.058727 2.75625-4.62504 4.078292-2.175458 2.086971-5.01247 3.347911-8.019915 3.564535-6.805409 1.261522-13.72699 3.078611-19.469668 7.51794.063725-.049246.024376-5.073494.123773-5.649404.262711-1.522156.467433-3.029642 1.458536-4.058784 2.226432-2.311872 5.894934-2.991101 8.606801-4.195978z"/>
      <path fill="#000" d="M123.689729 66.6805153c-5.943612 1.5516722-10.655825 6.0846543-12.443947 11.9706379-.950199 3.2763673-.889289 6.8638979 2.357223 9.2677875 7.412767 5.4911183 17.895407 9.359306 22.737765 18.3708413 3.041539 5.891974 5.144002 12.224363 6.23111 18.767422l12.559676 18.572182s1.900398 5.942611 14.61844 1.287363c12.718043-4.655248 19.661802-7.028632 19.661802-7.028632s9.855265-5.30198 14.252979-7.229972c.61981-.318578 1.279451-.552508 1.961307-.695542 1.486208 0 12.084577-9.08475 12.565767-10.335505.481191-1.250755-10.708007-6.449013-15.184904-5.320283 0 0-.639557 2.684546-9.04516 2.287966-8.405603-.396581-11.572931 3.166545-11.572931 3.166545s-4.154074-1.482602-6.821939-1.336173c-2.667865.14643-7.516314-2.440497-11.122196-2.129333 0 0 1.827305-3.660746-.548192-6.711367-2.375496-3.050621-4.543898-2.769964-5.536734-6.388001-.560373-2.056119-2.436406-8.6149545-3.946979-13.8925293-1.97821-7.0184487-5.917397-13.3245316-11.353654-18.1756016-3.551063-3.1299374-7.759956-5.6741555-11.987121-5.4911183-2.492219.0672799-4.968795.4172845-7.382312 1.0433125z" opacity=".1"/>
      <path fill="#FD6F8D" d="M111.248778 79.2894598c-.956369 3.276613-.889362 6.8705144 2.351326 9.2745843 7.419471 5.4915302 17.896884 9.3600081 22.745733 18.3722189 3.0349 5.893723 5.131326 12.226453 6.213349 18.76883l12.560713 18.567474s1.906646 5.943056 14.619646 1.287459c12.713001-4.655597 19.663424-7.029159 19.663424-7.029159s9.856078-5.302377 14.260247-7.230515c.619479-.319489 1.279297-.553479 1.961469-.695593 1.480239 0 12.079482-9.085432 12.566804-10.336281.487321-1.250848-10.714982-6.449497-15.192249-5.320682 0 0-.63961 2.684748-9.045906 2.288137-8.406297-.39661-11.573887 3.166783-11.573887 3.166783s-4.154416-1.482713-6.822501-1.336272c-2.668085.14644-7.510843-2.440681-11.123114-2.129494 0 0 1.827456-3.66102-.542145-6.71187s-4.550365-2.770172-5.537191-6.382379c-.566512-2.062374-2.436608-8.621702-3.953396-13.8996727-1.976923-7.0178849-5.916768-13.3228581-11.354592-18.1708632-3.545264-3.1362739-7.760595-5.6745812-11.98811-5.4915302-2.492271.0691044-4.968849.4191064-7.382921 1.0433907-5.93981 1.5487035-10.647312 6.081469-12.426699 11.9654342z"/>
      <path fill="#000" d="M162.238366 21.2443763c2.152596-.7532414 4.111154-2.5027054 4.444655-4.7624296.139444-1.513542-.215952-3.0314834-1.012629-4.3250636-2.692261-4.85962205-8.119227-7.44737078-13.340029-9.25757999-5.220802-1.8102092-10.690214-3.16482884-16.202071-2.85502794-5.511857.3098009-11.096478 2.42981102-14.661904 6.68198029-.628353.87286588-1.370688 1.65739423-2.207168 2.33261858-1.267303.86865744-2.886298 1.00837156-4.420401.95370086-5.057083-.18831039-10.338522-2.19290448-15.0014683-.22475756-5.602812 2.35691666-7.5674344 9.23935636-8.2950723 15.28958586-.7518925 6.2203162-.933802 12.5560484-2.5770509 18.6062778-1.643249 6.0502294-5.014638 11.9607447-10.5083043 14.9615613-1.6068671.874732-3.3592618 1.4882593-4.8509195 2.520929-1.4916577 1.0326697-2.7953423 2.6424195-2.801406 4.4769268 0 2.4966308 2.231423 4.3311381 3.3956436 6.5361916.8489109 1.6097498 1.176348 3.535375 2.455778 4.8231749 2.5406691 2.5755996 7.0459605 1.117713 10.3082039 2.6849411 2.8984244 1.3971414 4.1475361 4.8171004 6.4274683 7.0950482 2.680133 2.6788667 6.6336325 3.6143439 10.4052225 3.8755486 2.067704.1397141 4.208172.1032669 6.112158-.7046452 3.795845-1.6097498 5.808976-5.953037 6.033331-10.0715667.224355-4.1185296-.958056-8.164165-1.819094-12.2037258-.284992-1.3303215-.527538-2.751761 0-4.0213372.450546-.9757426 1.151514-1.81422 2.031322-2.4298111 4.481037-3.547524 10.86606-5.1694229 13.437047-10.2781005 1.72814-3.4321081 1.21273-7.5081161 1.625058-11.3289939.157655-1.3910668.503283-2.867177 1.534103-3.8208778 1.261239-1.1602348 3.147034-1.2149055 4.85092-1.3667687 5.052839-.5099946 9.821542-2.5843865 13.643211-5.9348134 1.855476-1.6218989 2.977252-3.6447166 4.590182-5.4124041 1.612931-1.7676875 4.226364-1.0934149 6.403214-1.8405818z" opacity=".1"/>
      <path fill="#7A5653" d="M161.596175 21.2440013c2.152488-.7592914 4.110948-2.5086986 4.444432-4.7683495.136292-1.5121432-.221176-3.0277402-1.018642-4.3188491-2.686062-4.85946444-8.11882-7.44712926-13.339361-9.26335411-5.22054-1.81622484-10.695742-3.1586519-16.20126-2.84886103-5.505518.30979086-11.095923 2.42973223-14.667233 6.68176363-.626172.8726794-1.366448 1.65719962-2.200995 2.33254294-1.267239.86862927-2.886152 1.01441317-4.420179.95366987-5.05683-.18222989-10.338005-2.18675898-15.0067809-.22475021-5.6025316 2.36291461-7.5670556 9.24513111-8.2946571 15.28909001-.7457916 6.2261889-.9276919 12.5556413-2.5708587 18.6056746-1.6431667 6.0500332-5.0204503 11.9664312-10.5138417 14.9610762-1.6067866.8807779-3.3590935 1.488211-4.8506766 2.5269215-1.4915831 1.0387105-2.7952025 2.6423338-2.7952025 4.4707073 0 2.4965499 2.2313113 4.337072 3.3954737 6.542054.8428051 1.6036233 1.1762891 3.5352604 2.4253383 4.8230185 2.5466053 2.5694418 7.0516713 1.1116025 10.307688 2.6848541 2.9043426 1.3970961 4.1533919 4.8169442 6.4332099 7.0948181 2.6739355 2.6727055 6.627237 3.6142267 10.4047016 3.8693486 2.061537.1457839 4.207962.1032636 6.111852-.7046223 3.795655-1.6096976 5.808686-5.9467697 6.03303-10.0651658.224343-4.1183961-.964072-8.1699746-1.819004-12.2033301-.278914-1.3302784-.521448-2.7516718-.030317-4.0212069.454653-.9748804 1.157249-1.8128198 2.037284-2.4297322 4.47475-3.5413347 10.859453-5.163181 13.430311-10.271693 1.728054-3.4319968 1.21267-7.5078726 1.63104-11.3286265.157647-1.397096.503258-2.8731584 1.527964-3.8207539 1.267239-1.1662715 3.152939-1.2148661 4.850676-1.3667244 5.05428-.5148049 9.823851-2.5908114 13.648592-5.9406953 1.855384-1.6157719 2.971039-3.6445984 4.589953-5.4122286 1.618913-1.7676301 4.298912-1.0812308 6.457463-1.8465964z"/>
      <g fill="#000" opacity=".1">
        <path d="M84.3652032 77.5378709c-3.04900186-1.4526788-7.19564433-.2905358-9.81778589-2.2032294.24674295.475815.56093752.9140593.93299456 1.301358 2.56116152 2.5603462 7.09197822 1.1076675 10.36660613 2.67535.7430306.3601043 1.4160446.8478058 1.9879492 1.440573-.8700936-1.3404434-2.0624916-2.4449649-3.469764-3.2140516zM165.0356932 12.03416601c-.6095617-1.09206818-1.3643514-2.09778509-2.2440654-2.99009704.2850582.38843723.547694.79260798.7866425 1.2105656.801136 1.28674628 1.1585942 2.79734458 1.0183666 4.30356073-.3353902 2.25165202-2.3050454 3.99486649-4.4698366 4.75147-2.1647913.7566035-4.878403.0423698-6.4943739 1.8158484-1.615971 1.7734786-2.7562977 3.7830175-4.6222868 5.3930698-3.8445124 3.3375657-8.6392709 5.4062477-13.7205081 5.9196658-1.7196371.1573735-3.6161162.1997433-4.8784029 1.3618863-1.0366607.9442411-1.3842469 2.4211312-1.536697 3.8072288-.4390562 3.801176.0975681 7.8686764-1.6403629 11.2885243-2.5855536 5.0843755-9.0067514 6.7004806-13.5131761 10.2353321-.8830202.6153106-1.5875177 1.4502699-2.0428312 2.4211313-.5000363 1.2589882-.2561161 2.6814028.03049 4.0069721.8659165 4.0190778 2.0611253 8.0502613 1.8294011 12.1601315-.2317241 4.1098702-2.2562613 8.4255366-6.0675136 10.029536-1.9208711.8050262-4.0734664.8413431-6.1528857.7021281-3.7929582-.2542188-7.7688566-1.2105656-10.4641742-3.8556515l-.036588-.0423698c.4576295.6453826.9674839 1.2526752 1.5245009 1.8158484 2.6892196 2.6632444 6.665118 3.6014327 10.4641742 3.8556515 2.0733213.1452679 4.2320146.1028981 6.1467877-.7021281 3.8173503-1.6039994 5.8418875-5.9257186 6.0675136-10.029536.2256261-4.1038174-.9695826-8.1410537-1.8294011-12.1601315-.2805082-1.3255693-.5244283-2.7419311-.03049-4.0069721.4572519-.9714295 1.1638641-1.8064027 2.0489292-2.4211312 4.5003267-3.5287988 10.9215245-5.1449039 13.5070781-10.2353322 1.737931-3.4198479 1.2196007-7.4812955 1.6403629-11.2885243.1585481-1.3921504.5061343-2.8629876 1.542795-3.8072288 1.2683847-1.162143 3.1648638-1.2105656 4.8784029-1.3618863 5.0831702-.5129825 9.8800033-2.5816402 13.7266061-5.9196658 1.8659891-1.6100523 2.9880218-3.6316968 4.6161888-5.3930698 1.6281669-1.7613729 4.3112885-1.0471392 6.5004718-1.8158484s4.1344465-2.49981797 4.4698367-4.75146999c.1266517-1.5081141-.2435699-3.01626436-1.0549546-4.2975079z"/>
      </g>
      <ellipse cx="144.827586" cy="303.046512" fill="#6C63FF" opacity=".1" rx="15.4482759" ry="3.86046512"/>
      <path fill="#FECDBC" d="M56.7531715 170.503876s4.2499925 5.675886-1.9610765 14.241424c-6.2110689 8.565538-11.3253656 15.817045-9.2748783 21.146173 0 0 9.3821713-15.914381 17.0118913-16.133386 7.6297199-.219005 2.6465591-9.684899-5.7759365-19.254211z"/>
      <path fill="#000" d="M56.6471928 170.503876c.3755767.546832.6718757 1.144994.8799268 1.776376 7.5275935 8.930547 11.5415064 17.264913 4.303204 17.477835-6.744097.194671-14.8321917 12.361629-16.7728523 15.433786.0662958.237255.1446455.474511.229022.6996 0 0 9.4863347-15.914381 17.2007619-16.133386 7.7144273-.219005 2.675942-9.684899-5.8400624-19.254211z" opacity=".1"/>
      <path fill="#FFD037" d="M45.0574713 177.641283c0 2.098635-.1452201 3.800577-.3218391 3.800577s-.3218391-1.701942-.3218391-3.800577c0-2.098636.1805439-1.113301.3571629-1.113301s.2865153-.991733.2865153 1.113301z"/>
      <path fill="#FCA19B" d="M33.3641519 170.503876s-4.2504427 5.675886 1.9612843 14.241424 11.3265655 15.817045 9.2698997 21.146173c0 0-9.377204-15.914381-17.0136938-16.133386-7.6364897-.219005-2.6170327-9.684899 5.7825098-19.254211z"/>
      <path fill="#000" d="M33.4712445 170.503876c-.3756588.546832-.6720227 1.144994-.8801192 1.776376-7.529239 8.930547-11.5440293 17.264913-4.3041446 17.477835 6.7455711.194671 14.835434 12.361629 16.7704906 15.433786-.0608949.23807-.1374214.471786-.2290722.6996 0 0-9.4823802-15.914381-17.2045219-16.133386-7.7221418-.219005-2.6463859-9.684899 5.8473673-19.254211z" opacity=".1"/>
      <path fill="#FFD037" d="M6.43678161 177.641283c0 2.098635.14522007 3.800577.32183908 3.800577s.32183908-1.701942.32183908-3.800577c0-2.098636-.18054387-1.113301-.35716288-1.113301-.17661901 0-.28651528-.991733-.28651528 1.113301z"/>
      <path fill="#FFD037" d="M4.15156244 180.166397c1.49948372.905518 2.80632544 1.453442 2.92086934 1.222737.11454389-.230705-1.0100689-1.153525-2.51475917-2.059043-1.50469027-.905517-.90593808-.24224-1.04130814 0-.13537006.242241-.8694923-.069211.63519797.836306z"/>
      <ellipse cx="45.3793103" cy="242.565891" fill="#45327C" opacity=".15" rx="45.3793103" ry="7.07751938"/>
      <path fill="#43317B" d="M68.8639602 198.884161l-.2171794 1.768629-.3016381 2.50404-.126688 1.039297-.301638 2.50404-.126688 1.045375-.3016381 2.497962-3.4447067 28.450019c-.3076709 2.540506-4.4280469 4.515779-9.3930095 4.515779H36.7515715c-4.9709954 0-9.0491421-1.975273-9.3869767-4.515779l-3.4507395-28.443941-.3016381-2.497962-.1266879-1.045376-.3076709-2.504039-.1206552-1.039298-.3016381-2.504039-.2171794-1.76863c-.1749501-1.434352 2.0511389-2.649905 4.8684384-2.649905h36.5947304c2.7992013-.006078 5.0373558 1.209475 4.8624057 2.643828z"/>
      <path fill="#FFF" d="M68.5689836 202.674419H22.8333152l-.3045796-2.573644h46.3448276zM68.2298851 203.317829l-.3060619 2.573644H22.8409187l-.3121831-2.573644zM67.5862069 207.821705l-.3032486 2.573644H23.4756624l-.3032486-2.573644z" opacity=".1"/>
    </g>
    <path fill="#FE848A" fill-rule="nonzero" d="M491.80045111 278.44517868s-9.26482937 21.85582242 8.86183323 41.42632528c18.12666265 19.57050294 9.81575417 67.61467238 9.81575417 67.61467238s.24138265-.13950796.67945484-.41575709c29.67079145-18.5577057 30.76662815-61.5485291 2.00983784-81.54869785-10.69043724-7.43555896-20.8893192-17.10228442-21.36688008-27.07654272z"/>
    <path stroke="#D27581" stroke-width="2" d="M491.40127271 278.68289516s-.9384932 22.58304662 14.01076983 34.66153693c14.94926307 12.07849018 25.446922 58.681885 4.985281 74.25085394"/>
    <path fill="#FDB8AC" fill-rule="nonzero" d="M551.5149645 334.81619903s-18.7694585 4.29789776-13.95091728 20.81354276c4.81854126 16.5156454-26.58645042 31.75279916-26.58645042 31.75279916s.27002121.0584763.77015242.16108868c33.745534 6.81367717 56.65312076-9.86525006 43.3755535-31.65687742-4.93587841-8.10364586-8.347638-16.87228039-3.60833823-21.07055318z"/>
    <path fill="#FEC3B5" fill-rule="nonzero" d="M551.5149645 334.81619903s-18.7694585 4.29789776-13.95091728 20.81354276c4.81854126 16.5156454-26.58645042 31.75279916-26.58645042 31.75279916s.27002121.0584763.77015242.16108868c13.8532249 2.79715248 25.8799644 1.63516944 34.3266053-2.21435874 12.12881422-5.52766612 16.87580523-16.59679559 9.0489482-29.44251868-4.93587841-8.10364586-8.347638-16.87228039-3.60833823-21.07055318z" opacity=".2"/>
    <path stroke="#D7707C" stroke-width="2" d="M551.6805439 334.9251381s-12.47098785 8.5210129-6.32937303 20.47127642c6.14161474 11.95026355-9.28200793 35.49694918-34.29950773 31.8686692"/>
    <g fill-rule="nonzero" opacity=".82175409">
      <path fill="url(#a)" d="M29.9096092 6.31372843V.43170793H.35806897V27.623911c0 3.1651012 2.57958088 5.7309227 5.76165517 5.7309227H24.147954c3.1820743 0 5.7616552-2.5658215 5.7616552-5.7309227v-6.0385147c4.2442639 0 7.6849195-3.4223033 7.6849195-7.6439284 0-4.22162516-3.4406556-7.64392852-7.6849195-7.64392852v.01618905zm0 12.34684667V9.24934234c1.7273967-.05821005 3.3492221.82521216 4.2302577 2.30425766.8810356 1.4790455.8810356 3.3182756 0 4.7973211-.8810356 1.4790455-2.502861 2.3624677-4.2302577 2.3042577v.0053963z" opacity=".7" transform="translate(397.149425 459.395349)"/>
      <path fill="#6C63FF" d="M426.7587239 469.0465118c-2.8637368 0-5.4454917 1.724357-6.5413963 4.3690061s-.4901394 5.6887719 1.5348283 7.7128987c2.0249677 2.0241267 5.0703552 2.6296404 7.716103 1.5341909 2.6457478-1.0954495 4.3708213-3.6761322 4.3708213-6.5386797 0-3.9087489-3.1699835-7.077416-7.0803563-7.077416zm0 11.434433c-2.4194109 0-4.3807309-1.9605055-4.3807309-4.3789116 0-2.4184061 1.96132-4.3789116 4.3807309-4.3789116 2.4194108 0 4.3807309 1.9605055 4.3807309 4.3789116 0 2.4184061-1.9613201 4.3789116-4.3807309 4.3789116z"/>
      <path fill="#000" d="M426.7587239 468.403101c-2.8637368 0-5.4454917 1.724357-6.5413963 4.3690061s-.4901394 5.6887718 1.5348283 7.7128986c2.0249677 2.0241268 5.0703552 2.6296405 7.716103 1.5341909 2.6457478-1.0954495 4.3708213-3.6761322 4.3708213-6.5386797 0-3.9087489-3.1699835-7.0774159-7.0803563-7.0774159zm0 11.434433c-2.4194109 0-4.3807309-1.9605055-4.3807309-4.3789117 0-2.4184061 1.96132-4.3789116 4.3807309-4.3789116 2.4194108 0 4.3807309 1.9605055 4.3807309 4.3789116 0 2.4184062-1.9613201 4.3789117-4.3807309 4.3789117z" opacity=".1"/>
      <path fill="#3F2B79" d="M399.08045948 462.6124033h27.03448272v24.951646c0 2.9208485-2.3725686 5.2886641-5.2992804 5.2886641h-16.43592192c-2.92671175 0-5.2992804-2.3678156-5.2992804-5.2886641v-24.951646z"/>
      <path fill="#000" d="M421.55665 462.6124033v24.9740442c0 2.9084783-2.281951 5.2662659-5.0968802 5.2662659h2.6272578c2.8149292 0 5.0968802-2.3577876 5.0968802-5.2662659v-24.9740442H421.55665z" opacity=".1"/>
      <path fill="#EEE" fill-opacity=".4" d="M404.25227558 442.7415356c-.47406222.01478663-.91683427.23984431-1.20772107.61387547-.35682669.64676166.29095098 1.38121982.88383224 1.82518333 1.09792825.82215466 2.24526327 1.64430931 2.99185448 2.77888273.74659117 1.13457342.97715617 2.74051552.16468924 3.83672172-1.05950076 1.43603015-3.59571502 1.74844885-3.84274888 3.51334085-.1591996 1.1345735.82344619 2.104716 1.8225609 2.6747432 2.45935931 1.408625 5.63237191 1.7813351 7.41101571 3.9847095.7356119-1.5127645 2.3879939-2.3897295 4.0293967-2.7405155 1.6414027-.350786 3.3486811-.3453049 5.0175321-.5974324.557802-.010152 1.0766734-.2875372 1.3943689-.7454202.4666195-.9427373-.8618737-2.0773107-.4007439-3.0200481.3513371-.7234961 1.3724104-.6632047 2.1190016-.9536994 1.2187003-.4713686 1.7182577-2.03346248 1.3724103-3.28861859-.3458474-1.2551561-1.3230036-2.24174169-2.3495665-3.04745325-2.7448206-2.19241241-6.0935018-3.44756851-9.4586519-4.38482482-1.5645477-.42752042-3.4035775-1.0962062-5.0285114-1.16197858-1.6249338-.06577237-3.34868112.44944455-4.91871852.71253404z"/>
    </g>
    <path fill="#D3899B" fill-rule="nonzero" d="M172.418997 343.981234c-.24432 3.35986-.900125 8.753487-.900125 8.753487s-2.726092.331523-6.93739.707674l-2.854681.242267c-2.198876.172137-4.654931.344274-7.252433.49091-4.809238.261393-10.087827.420779-15.057801.306021-2.488202-.057379-4.899251-.184888-7.136703-.401653-.996567-.095632-1.928839-.21039-2.886829-.35065-5.702933-.841558-9.759924-2.454546-10.132833-5.29162-.179416-1.194184-.224699-2.404417-.135018-3.608502.533645-6.375446 5.786516-5.100356 5.786516-5.100356-.340762-1.759623.932272-7.229756 1.928838-11.188908.642947-2.492799 1.20231-4.386306 1.20231-4.386306l36.795813-2.448172h.12216c.494055.001135.966088.202848 1.30621.55818.340121.355332.518655.83328.494039 1.322577-.218602 4.373556-.533645 14.395756 1.285893 14.618897 2.314606.286895 4.147003 2.103897 4.42347 3.251477.06047.841355.043253 1.68643-.051436 2.524677z"/>
    <path fill="#3F2B3B" fill-rule="nonzero" d="M140.321839 341.651163c.325254-.068119 6.505085-2.860984 12.873563 0h-12.873563z"/>
    <path fill="#000" fill-rule="nonzero" d="M129.330984 353.875969c-5.668618-.827249-9.701198-2.41281-10.071863-5.201642-.178337-1.173878-.223348-2.363533-.134207-3.547144.682097-.355905 1.411185-.617429 2.166474-.777113 1.028915-.282016 2.300679-.094005 4.984805.626704 2.684126.72071 2.492403 3.854229 3.067573 7.890202.051352.334799.047036.675548-.012782 1.008993z" opacity=".1"/>
    <path fill="#D3899B" fill-rule="nonzero" d="M121.157358 344.994834s-7.509234 1.35145-3.445796 7.694342c.320508.515433.808142.910506 1.38482 1.121958.474609.165744.936216.165744.890705-.503606l3.309264 3.729238s6.631531.764971 6.046396-3.346752c-.585135-4.111724-.39009-7.260858-3.120721-8.02583-2.73063-.764972-4.024428-.956215-5.064668-.66935z"/>
    <path stroke="#3F2B3B" d="M122.298851 348.728682s1.617447 3.890164 3.862069.625205M119.08046 350.658915s.809377 3.639299 3.862069.92361"/>
    <path fill="#000" fill-rule="nonzero" d="M172.505747 344.29118c-.240284 3.403763-.885257 8.867867-.885257 8.867867s-2.681065.335856-6.822803.716922c-.021437-.238472-.021437-.478449 0-.716922.569094-4.159436.379396-7.356519 3.035167-8.131569 2.44078-.704004 3.705434-.93006 4.672893-.736298z" opacity=".1"/>
    <path fill="#D3899B" fill-rule="nonzero" d="M173.005218 344.994834s7.504211 1.35145 3.446474 7.694342c-.32488.514262-.814157.908737-1.391595 1.121958-.474703.165744-.936401.165744-.884379-.503606l-3.316419 3.729238s-6.626335.764971-6.041085-3.346752c.58525-4.111724.390167-7.260858 3.114833-8.02583 2.724666-.764972 4.025223-.956215 5.072171-.66935z"/>
    <path stroke="#3F2B3B" d="M171.218391 348.728682s-1.617448 3.890164-3.862069.625205M175.08046 350.658915s-.808044 3.639299-3.862069.92361"/>
    <path fill="#000" fill-rule="nonzero" d="M139.677143 355.162791c-2.514268-.058471-4.950574-.188405-7.211467-.409293l-2.241402-7.562171c-.537619-1.799862.022301-3.747988 1.433548-4.987735 1.411247-1.239748 3.415304-1.544017 5.130935-.779012 1.715631.765006 2.828561 2.459148 2.849406 4.33747.01949 2.968997.045477 6.698109.03898 9.400741z" opacity=".1"/>
    <path fill="#D3899B" fill-rule="nonzero" d="M129.557972 346.633487l2.636541 8.965296s-4.489246-.097946-3.238994 2.742479c0 0 1.12717 1.077403 1.515849.652972 0 0-.576541 1.860968 1.749057 1.860968 0 0 2.519937 1.36471 3.491635.391783.971698-.972928 3.018743-2.448643 3.238994-3.036317.123082-.385253.084214-7.881363.045346-13.059425-.024877-2.650766-2.163825-4.786399-4.793711-4.78628-1.537039-.024844-2.992413.695833-3.912289 1.937301-.919877 1.241468-1.192341 2.852686-.732428 4.331223z"/>
    <path stroke="#3F2B3B" d="M133.241379 357.736434s-2.049217 2.05043-.976793 3.217054M132.597701 356.449612s-1.931034.667241-1.931034 2.573644"/>
    <path fill="#000" fill-rule="nonzero" d="M164.137891 345.743486c-.000955.451801-.068792.901112-.20142 1.334087l-2.124648 6.95496c-2.22211.170712-4.704116.341425-7.329064.486847 0-2.598626 0-6.06346.038984-8.851766.010765-2.584025 2.17214-4.670299 4.827566-4.659823 2.655426.010476 4.799347 2.113734 4.788582 4.697759v.037936z" opacity=".1"/>
    <path fill="#D3899B" fill-rule="nonzero" d="M163.959657 346.633565l-2.635298 8.965249s4.48713-.097945 3.237467 2.742465c0 0-1.126638 1.077397-1.515134.652968 0 0 .582744 1.860959-1.748233 1.860959 0 0-2.512274 1.364702-3.48999.39178-.977715-.972922-3.010844-2.448629-3.237467-3.0363-.129498-.385251-.090649-7.881323-.045324-13.059358.021333-2.649701 2.157404-4.786342 4.784976-4.786255 1.537448-.026973 2.994075.692813 3.91504 1.934598.920965 1.241785 1.194043 2.854251.733963 4.333894z"/>
    <path stroke="#3F2B3B" d="M160.91954 357.736434s2.049218 2.05043.976794 3.217054M161.563218 356.449612s1.931035.667241 1.931035 2.573644"/>
    <path fill="#D3899B" fill-rule="nonzero" d="M136.82546955 318.08155614s-6.16665113 20.73746605-14.09835612 19.07949353c-.1895519-.03801617-.37573282-.08443236-.55603613-.13334343-5.44280966-1.3833318-8.6540355-5.95799188-10.02151979-8.3951859-.59467112-1.05778365-1.23722726-2.08130287-1.89992277-3.10324266-2.87758704-4.40963736-3.50622076-9.50210053-3.64503197-11.65937912-.05082272-.67534542-.04261081-1.0481979-.04261081-1.0481979 3.75404954-2.98733626 30.26347759 5.25985548 30.26347759 5.25985548z"/>
    <path fill="#EEC5CD" fill-rule="nonzero" d="M130.81740178 322.04848927s-2.8487427 4.58708559-6.60798921 11.66478606c-.5732076 1.10169169-1.23787743 2.15358271-1.98701977 3.1446111-5.52464948-1.38465254-8.77472914-6.00078768-10.15753184-8.46093945-.60133774-1.06774475-1.25139709-2.10073406-1.92191539-3.13207619-2.91162549-4.45016284-3.537334-9.5961882-3.67290772-11.77647681 8.22779293-2.83099213 24.34736393 8.56009529 24.34736393 8.56009529z"/>
    <path fill="#000" fill-rule="nonzero" d="M125.41942543 322.51060187s-1.50823984 2.44528483-3.4962837 6.22240627c-.30229777.59540984-.6513264 1.16560483-1.04379386 1.7052065-2.93461018-.7497859-4.67097484-3.22098164-5.42916445-4.5279474-.31898383-.56970681-.66768488-1.12679941-1.02827282-1.67884633-1.1638275-1.90395799-1.84052933-4.0659097-1.96961121-6.29258573 4.39594-1.54161641 12.96712604 4.57176669 12.96712604 4.57176669z" opacity=".1"/>
    <path fill="#D3899B" fill-rule="nonzero" d="M145.12059379 314.5604848s19.2081195 9.96651496 23.52002008 3.1114402l.29037731-.49262461c2.7862102-4.8763435 1.72040702-10.36168147.91719843-13.0383963-.3478005-1.16257401-.63180627-2.33828884-.90656224-3.5248992-1.17888254-5.13069463-4.39965719-9.12285926-5.86098976-10.71876084-.4505179-.50568487-.730322-.75628182-.730322-.75628182-4.73947359.61795041-17.22972182 25.41952257-17.22972182 25.41952257z"/>
    <path fill="#EEC5CD" fill-rule="nonzero" d="M152.74023005 312.74280077s5.27783868 1.13755645 12.97946216 3.35040624c1.19301303.35061343 2.4130797.60238883 3.64780778.7527687 2.84094909-4.93563844 1.77190102-10.47756657.9627393-13.18121448-.35036974-1.17427435-.63592859-2.36198495-.91206866-3.5607307-1.1847264-5.18318801-4.44559902-9.21065257-5.92564332-10.82024729-7.77439984 3.96153571-10.75229726 23.45901753-10.75229726 23.45901753z"/>
    <path fill="#000" fill-rule="nonzero" d="M156.24235908 309.46172015s2.81392838.61229888 6.91771703 1.79655535c.63517724.18906308 1.2847201.3256756 1.94209645.40846375 1.50196336-2.62850297.93504275-5.59748109.50733273-7.03845293-.18889337-.62834529-.34781298-1.26941367-.500738-1.91302662-.56332664-2.15891837-1.64978842-4.14597594-3.16311715-5.78510549-4.12973982 2.12140394-5.70329106 12.53156594-5.70329106 12.53156594z" opacity=".1"/>
    <path fill="#D3899B" fill-rule="nonzero" d="M140.74659652 314.5788634c-.86347482.44336636-1.74705.83937897-2.64912882 1.20831725-4.62486525 1.87232431-19.98539568 8.62999753-19.06660085 15.5680239 1.08063953 8.16168766 18.4413077 23.97117631 19.96759064 23.60273691 1.526283-.36843953 24.24301346-7.9154002 27.46033973-14.59022967 3.21732627-6.67482948 3.87485824-23.55901748 2.96565051-24.70994247-.02376301.0100868.66770747-16.00131954-28.6778512-1.07890592z"/>
    <path fill="#000" fill-rule="nonzero" d="M144.4414247 326.14561156s-11.8729494 2.97619508-12.39833451 16.39762319c-.25493 5.3247982 2.34886042 10.41275348 6.81037528 13.30786267 2.81633144 1.74847513 6.1407708 2.52767966 9.06346984-.47366029 6.50612864-6.67754631-3.47551062-29.23182557-3.47551062-29.23182557z" opacity=".1"/>
    <path fill="#EEC5CD" fill-rule="nonzero" d="M144.69282938 326.7378839s-11.87302011 2.97602846-12.39795307 16.39852178c-.25475127 5.32521924 2.3492513 10.41367436 6.81093024 13.30917007 2.81643228 1.7487127 6.14094667 2.52809398 9.06105207-.4793562 6.51359458-6.65995766-3.47402924-29.22833565-3.47402924-29.22833565z"/>
    <path fill="#3F2B3B" fill-rule="nonzero" d="M136.82517234 341.14401512s-1.0945252 2.10525058-.29907182 2.17776361c.79545351.07251309.29907182-2.1777636.29907182-2.1777636zM139.22698686 342.22143356s.04727132 2.471436.74949524 2.45196206c.70222393-.01947392.32507627-1.92900223.32507627-1.92900223l-1.0745715-.52295983zM136.76259644 346.76238545s.33903014 2.65199446 1.0056026 2.36905124c.66657244-.28294322-1.0056026-2.36905124-1.0056026-2.36905124z"/>
    <path stroke="#3F2B3B" d="M138.38783969 353.06227127s3.52716583 3.74627119 7.67819397 1.61500626M142.44569415 352.73776635s2.64435366 1.45233803 3.81964692-.88568697"/>
    <path fill="#000" fill-rule="nonzero" d="M146.8160227 325.1376545s10.38618755-6.47224798 20.40460424 2.4736018c4.01160473 3.51258046 5.86387442 8.92276994 4.84219893 14.14330397-.69826913 3.24033456-2.44656991 6.17278953-6.62922234 6.18749234-9.33300343.04576636-18.61758082-22.8043981-18.61758082-22.8043981z" opacity=".1"/>
    <path fill="#EEC5CD" fill-rule="nonzero" d="M147.0674274 325.72992684s10.38611682-6.4724146 20.40498566 2.4745004c4.01178341 3.5130014 5.86426539 8.92369099 4.84275389 14.14461136-.69816828 3.24057214-2.44639405 6.17320385-6.6316401 6.18179643-9.3255375.063355-18.61609945-22.8009082-18.61609945-22.8009082z"/>
    <path fill="#3F2B3B" fill-rule="nonzero" d="M162.8955626 330.077791s2.27471163.6750944 1.77430479 1.29766746c-.5004069.6225732-1.77430479-1.29766745-1.77430479-1.29766745zM162.00058411 332.55461506s1.74912987 1.7490399 1.24261521 2.24264505c-.50651475.4936052-1.61132158-1.10705011-1.61132158-1.10705011l.36870637-1.13559494zM167.57305777 333.68412054s1.67217504 2.08610802 1.0056026 2.36905124c-.66657255.28294326-1.0056026-2.36905124-1.0056026-2.36905124z"/>
    <path stroke="#3F2B3B" d="M170.97582756 339.2294911s.23874159 5.14212447-4.17198344 6.64510815M167.33106678 342.17455237s-.79219786 2.91106761-3.2904596 2.1323742"/>
    <path fill="#000" fill-rule="nonzero" d="M144.22328683 324.7249977s-8.46302256 3.27372881-5.94372258 9.9501415c2.51929998 6.67641267 14.63948837-1.75353754 14.63948837-1.75353754s5.27578186-3.1386281 2.607234-6.7071819c-2.66854772-3.56855373-5.10663221-3.69480912-11.30299979-1.48942206z" opacity=".1"/>
    <path fill="#3F2B3B" fill-rule="nonzero" d="M143.9718862 324.13273494s-8.4630226 3.27372872-5.94372262 9.9501414c2.51929998 6.67641267 14.63948841-1.75353745 14.63948841-1.75353745s5.27578186-3.1386281 2.607234-6.70718189c-2.66854776-3.56855383-5.10663221-3.69480912-11.30299978-1.48942206z"/>
    <path fill="#000" fill-rule="nonzero" d="M124.873563 339.72093s3.209325 1.107084 3.862069 3.217054M168 338.434109s-2.064672.871322-1.924176 4.503875" opacity=".1"/>
    <ellipse cx="124.84893" cy="353.817787" fill="#EEC5CD" fill-rule="nonzero" rx="1.415945" ry="2.34225875" transform="rotate(-30 124.84893 353.817787)"/>
    <ellipse cx="171.386262" cy="351.907904" fill="#EEC5CD" fill-rule="nonzero" rx="2.35032398" ry="1.42082262" transform="rotate(-60.113 171.386262 351.907904)"/>
  </g>
</svg>
